<?xml version="1.0" encoding="UTF-8"?>
<svg version="1.1" xmlns="http://www.w3.org/2000/svg" width="512" height="512">
<path d="M0 0 C0.77102051 0.16628906 1.54204102 0.33257812 2.33642578 0.50390625 C47.10957536 10.39852494 85.07250929 36.5042767 110 75 C139.3847806 121.91801131 144.27818446 179.88959058 132.3125 233.125 C118.5832106 290.8713285 85.24563877 338.84556618 49.18359375 384.9140625 C46.49718103 388.35044864 43.8597483 391.8175471 41.25 395.3125 C34.50631378 404.34154655 27.82923857 413.26658861 20.18359375 421.56640625 C16.60027889 425.55997541 13.31077566 429.78056454 10 434 C15.84870649 435.07974981 21.70149791 436.12502653 27.56640625 437.11328125 C79.53055506 445.95087195 79.53055506 445.95087195 95 461.8125 C97.57171998 465.91117872 98.39692623 469.17776862 98 474 C94.79908413 482.43877821 87.64294534 486.90421118 79.72265625 490.67626953 C60.80281105 499.17615048 40.39717223 502.9669427 20 506 C18.91847656 506.16661133 17.83695313 506.33322266 16.72265625 506.50488281 C-23.78565311 512.43382627 -68.64486359 511.60901651 -109 505 C-110.21381348 504.80744629 -111.42762695 504.61489258 -112.67822266 504.41650391 C-135.51796466 500.69941741 -166.06381785 495.38790248 -182 477 C-183.6546812 472.03595641 -183.55799914 468.35860659 -181.5625 463.5 C-172.27090242 449.12856707 -150.65716768 444.57276026 -135 441 C-126.49351314 439.30078755 -117.93684752 437.89749295 -109.37060547 436.53710938 C-104.24231905 435.71991177 -99.12130488 434.85969989 -94 434 C-95.12535156 432.69289063 -95.12535156 432.69289063 -96.2734375 431.359375 C-99.52373653 427.5798332 -102.76287113 423.79082226 -106 420 C-106.67144043 419.21641113 -106.67144043 419.21641113 -107.35644531 418.41699219 C-112.92481268 411.90527788 -118.15787815 405.21456358 -123.26220703 398.33764648 C-127.05905813 393.22770268 -130.94766694 388.19763306 -134.875 383.1875 C-187.35229902 316.02233988 -231.66658433 240.11282668 -220.875 151.5625 C-218.48357755 133.90287946 -214.06729832 116.37969845 -207 100 C-206.70367676 99.3085791 -206.40735352 98.6171582 -206.10205078 97.90478516 C-188.80347749 58.11537629 -156.60255286 26.24618429 -116.375 9.8125 C-105.81885875 5.67064182 -95.05195669 2.5137544 -84 0 C-83.22833496 -0.17934082 -82.45666992 -0.35868164 -81.66162109 -0.54345703 C-56.46964275 -6.06431061 -25.11604123 -5.68453952 0 0 Z " fill="#FED8A0" transform="translate(298,3)"/>
<path d="M0 0 C0.73444336 0.22993652 1.46888672 0.45987305 2.22558594 0.69677734 C32.24725674 10.36860152 57.71955932 31.07204239 74 58 C74.37060547 58.60634277 74.74121094 59.21268555 75.12304688 59.83740234 C83.95051998 74.54320631 89.44217084 91.07740229 92 108 C92.13019531 108.82886719 92.26039063 109.65773438 92.39453125 110.51171875 C96.54178342 143.08147245 87.41555729 177.6255994 68 204 C67.42121094 204.80179688 66.84242188 205.60359375 66.24609375 206.4296875 C55.93828051 220.01017579 43.52341366 231.15190074 29 240 C28.39752441 240.37205566 27.79504883 240.74411133 27.17431641 241.12744141 C16.48025351 247.61429273 4.97974844 251.55732279 -7 255 C-8.86785156 255.54527344 -8.86785156 255.54527344 -10.7734375 256.1015625 C-42.84180918 263.676211 -78.95426783 257.00232683 -106.96630859 240.26855469 C-125.39418153 228.77380946 -140.74849633 213.56779862 -152 195 C-152.37060547 194.39897461 -152.74121094 193.79794922 -153.12304688 193.17871094 C-162.39035041 177.90358043 -167.4084586 160.58261168 -170 143 C-170.27457031 141.2984375 -170.27457031 141.2984375 -170.5546875 139.5625 C-174.62863142 106.97094867 -163.86394563 73.52584782 -144.953125 47.14453125 C-134.2317002 33.5009136 -121.81652203 22.00633934 -107 13 C-106.39220703 12.62794434 -105.78441406 12.25588867 -105.15820312 11.87255859 C-74.19212891 -6.71212927 -34.36318611 -10.96004778 0 0 Z " fill="#C9634A" transform="translate(295,56)"/>
<path d="M0 0 C42.0722827 -2.10751694 84.58840431 16.39700902 115.51171875 43.9699707 C150.1838201 75.38337487 168.96676726 120.718017 172 167 C175.34085466 253.51973521 134.80654045 321.96684489 83.18359375 387.9140625 C80.49718103 391.35044864 77.8597483 394.8175471 75.25 398.3125 C68.50631378 407.34154655 61.82923857 416.26658861 54.18359375 424.56640625 C50.60027889 428.55997541 47.31077566 432.78056454 44 437 C49.84870649 438.07974981 55.70149791 439.12502653 61.56640625 440.11328125 C113.53055506 448.95087195 113.53055506 448.95087195 129 464.8125 C131.57171998 468.91117872 132.39692623 472.17776862 132 477 C128.79908413 485.43877821 121.64294534 489.90421118 113.72265625 493.67626953 C94.80281105 502.17615048 74.39717223 505.9669427 54 509 C52.91847656 509.16661133 51.83695313 509.33322266 50.72265625 509.50488281 C10.21434689 515.43382627 -34.64486359 514.60901651 -75 508 C-76.21381348 507.80744629 -77.42762695 507.61489258 -78.67822266 507.41650391 C-101.51796466 503.69941741 -132.06381785 498.38790248 -148 480 C-149.6546812 475.03595641 -149.55799914 471.35860659 -147.5625 466.5 C-138.25531128 452.10445205 -116.66531068 447.61151484 -101 444 C-92.43528328 442.22676672 -83.82822835 440.77614426 -75.17871094 439.48535156 C-72.48560362 439.07414593 -69.81224916 438.60720121 -67.1328125 438.1171875 C-58.5829566 436.89577951 -58.5829566 436.89577951 -54.4296875 439.79296875 C-51.99686936 442.38660029 -50.01863858 445.07432496 -48 448 C-46.49469089 449.88748603 -44.97380414 451.76265508 -43.4375 453.625 C-42.69886719 454.53507812 -41.96023437 455.44515625 -41.19921875 456.3828125 C-36.64340142 461.80447789 -32.19280449 466.49786229 -26 470 C-15.29199551 463.70117383 -8.08073607 456.48373479 -0.3515625 446.85546875 C2.01489388 443.98191458 4.47758303 441.23717383 7 438.5 C11.1145383 434.02933474 14.97340891 429.40920177 18.78515625 424.6796875 C20.94906084 422.06163009 23.19832079 419.55964244 25.5 417.0625 C29.92619908 412.19368101 33.82031235 407.02627833 37.71630859 401.72949219 C40.12859379 398.47946778 42.59925937 395.27396303 45.0625 392.0625 C46.17845377 390.60421897 47.29433706 389.14588401 48.41015625 387.6875 C50.25102711 385.2827634 52.09297715 382.87887423 53.93701172 380.4765625 C90.74658645 332.51338955 123.53847286 283.07322287 136 223 C136.27118652 221.73953857 136.27118652 221.73953857 136.54785156 220.45361328 C139.37087548 206.73416602 139.30772962 192.82253871 139.375 178.875 C139.3830365 177.94472992 139.391073 177.01445984 139.39935303 176.05599976 C139.51275826 158.7261914 137.76708767 141.94469809 133.1875 125.1875 C132.92888184 124.22448975 132.67026367 123.26147949 132.40380859 122.26928711 C125.90988427 98.76568638 114.18031143 75.33955576 98 57 C97.24589844 56.13632812 96.49179687 55.27265625 95.71484375 54.3828125 C93.50740254 51.89139514 91.26635129 49.43785895 89 47 C88.06607422 45.98486328 88.06607422 45.98486328 87.11328125 44.94921875 C69.69496204 26.7275389 46.34230698 14.68590274 22.75 6.6875 C21.75597168 6.34952393 20.76194336 6.01154785 19.73779297 5.66333008 C13.22377038 3.52785978 6.77371138 2.04625797 0 1 C0 0.67 0 0.34 0 0 Z " fill="#DEB476" transform="translate(264,0)"/>
<path d="M0 0 C3.69478772 0.45318464 4.67517943 1.80570221 7.01953125 4.64453125 C7.7878125 5.55589844 8.55609375 6.46726562 9.34765625 7.40625 C10.51554687 8.85451172 10.51554687 8.85451172 11.70703125 10.33203125 C24.88866429 27.63042261 24.88866429 27.63042261 43.70703125 37.33203125 C55.84510465 38.44536684 65.16495066 36.75262811 74.71484375 29.08203125 C80.45100034 24.04321134 85.56309058 18.61662898 90.39453125 12.70703125 C91.52375 11.33417969 91.52375 11.33417969 92.67578125 9.93359375 C94.69463346 7.44783135 94.69463346 7.44783135 96.11328125 5.04296875 C97.53561655 2.86610192 98.49978091 1.72013251 100.70703125 0.33203125 C109.9284821 -0.07750076 119.41574968 1.92027366 128.45703125 3.58203125 C129.67422852 3.80455566 130.89142578 4.02708008 132.14550781 4.25634766 C151.31602756 7.85938971 174.52213278 12.60001564 188.70703125 27.14453125 C191.27875123 31.24320997 192.10395748 34.50979987 191.70703125 39.33203125 C188.50611538 47.77080946 181.34997659 52.23624243 173.4296875 56.00830078 C154.5098423 64.50818173 134.10420348 68.29897395 113.70703125 71.33203125 C112.08474609 71.58194824 112.08474609 71.58194824 110.4296875 71.83691406 C69.92137814 77.76585752 25.06216766 76.94104776 -15.29296875 70.33203125 C-17.11368896 70.04320068 -17.11368896 70.04320068 -18.97119141 69.74853516 C-41.81093341 66.03144866 -72.3567866 60.71993373 -88.29296875 42.33203125 C-89.94764995 37.36798766 -89.85096789 33.69063784 -87.85546875 28.83203125 C-78.56087484 14.45596385 -56.95207223 9.91208202 -41.29296875 6.33203125 C-27.61326742 3.5751386 -13.87885507 1.39941006 0 0 Z " fill="#00D2A0" transform="translate(204.29296875,437.66796875)"/>
<path d="M0 0 C1.07672974 -0.00983414 2.15345947 -0.01966827 3.26281738 -0.02980042 C4.43904663 -0.02013245 5.61527588 -0.01046448 6.82714844 -0.00050354 C8.0697644 -0.00590652 9.31238037 -0.01130951 10.59265137 -0.01687622 C13.99788535 -0.02724171 17.40214798 -0.01966007 20.80729675 -0.00316501 C24.37153516 0.01068985 27.93574438 0.00422492 31.5 0.0007019 C37.48543433 -0.00199989 43.47066809 0.01147254 49.45605469 0.03465271 C56.37485261 0.06126241 63.2933152 0.06300952 70.21214676 0.05126435 C76.86929869 0.04048301 83.52632937 0.04667638 90.18347168 0.06081963 C93.015939 0.06657639 95.84831751 0.06649922 98.68078613 0.06175423 C102.63595253 0.05609345 106.59078372 0.07530771 110.54589844 0.09715271 C112.31024231 0.09040024 112.31024231 0.09040024 114.11022949 0.08351135 C115.18695923 0.09341599 116.26368896 0.10332062 117.37304688 0.11352539 C118.77559723 0.11717023 118.77559723 0.11717023 120.20648193 0.12088871 C123.14234616 0.57110629 124.38403373 1.69153154 126.68652344 3.50120544 C129.48721871 3.77270141 132.13588032 3.91025408 134.93652344 3.93870544 C142.36428447 4.21279257 147.80887442 4.82011928 153.38183594 10.11058044 C159.73943898 17.05173159 161.98799066 24.03229176 161.83496094 33.30589294 C161.30908979 41.0832505 156.66872681 47.90427067 151.12402344 53.12620544 C138.63508995 63.38915641 124.44448874 66.13059163 108.68652344 65.50120544 C108.39777344 66.09933044 108.10902344 66.69745544 107.81152344 67.31370544 C106.68652344 69.50120544 106.68652344 69.50120544 104.68652344 72.50120544 C105.2964917 72.51055115 105.90645996 72.51989685 106.53491211 72.52952576 C109.3154183 72.5834187 112.09427606 72.66702613 114.87402344 72.75120544 C116.31358398 72.77247498 116.31358398 72.77247498 117.78222656 72.79417419 C122.17711834 72.94624657 124.9681377 73.0707155 128.79589844 75.36448669 C131.26400767 78.15385808 131.76245467 79.78057525 131.68652344 83.50120544 C129.91612895 86.24836931 128.623605 88.03266466 125.68652344 89.50120544 C123.9471934 89.60286595 122.20398184 89.64067178 120.46170044 89.64837646 C119.35406342 89.65553177 118.24642639 89.66268707 117.10522461 89.6700592 C115.27399048 89.67409256 115.27399048 89.67409256 113.40576172 89.6782074 C112.12442352 89.68477859 110.84308533 89.69134979 109.5229187 89.69812012 C106.00222595 89.71553299 102.48154677 89.72608233 98.96082163 89.73432565 C96.76204473 89.7394745 94.56327206 89.74555023 92.36449814 89.75183678 C85.48740489 89.77088844 78.61032239 89.78512043 71.73320782 89.79344875 C63.79009111 89.80322647 55.84725268 89.82955975 47.90423405 89.86994964 C41.76744921 89.90008617 35.63074425 89.9149152 29.49388683 89.91822976 C25.82719069 89.92058281 22.16079184 89.92957584 18.49417496 89.95469093 C14.40462905 89.98225059 10.31570699 89.97814815 6.22607422 89.97117615 C5.00929993 89.98398621 3.79252563 89.99679626 2.53887939 90.00999451 C1.42560272 90.00305069 0.31232605 89.99610687 -0.83468628 89.98895264 C-1.80181486 89.99134099 -2.76894344 89.99372934 -3.76537895 89.99619007 C-7.05009764 89.35811198 -8.23876758 88.06799361 -10.31347656 85.50120544 C-10.87988281 83.50120544 -10.87988281 83.50120544 -10.87597656 81.50120544 C-10.89789063 80.84120544 -10.91980469 80.18120544 -10.94238281 79.50120544 C-9.88937891 76.15252224 -8.34736816 75.22396801 -5.31347656 73.50120544 C-1.85951668 73.02596772 1.52108986 73.12339446 4.99902344 73.25120544 C5.93037109 73.26925232 6.86171875 73.28729919 7.82128906 73.30589294 C10.11076541 73.35285656 12.39810528 73.4185107 14.68652344 73.50120544 C14.12964844 72.82058044 13.57277344 72.13995544 12.99902344 71.43870544 C-0.41304515 54.40175346 -9.18440016 33.89390222 -9.68847656 12.06370544 C-9.71466064 11.37679626 -9.74084473 10.68988708 -9.76782227 9.98216248 C-9.77857807 6.75621674 -9.61904206 4.89518769 -7.61676025 2.31353664 C-4.82812309 0.11930666 -3.51225172 0.00078613 0 0 Z " fill="#E1CDCA" transform="translate(190.3134765625,172.49879455566406)"/>
<path d="M0 0 C0.91245483 -0.00525696 1.82490967 -0.01051392 2.76501465 -0.01593018 C5.7862247 -0.02915217 8.80690943 -0.02038425 11.828125 -0.01025391 C13.92415468 -0.01227401 16.02018367 -0.01518491 18.11621094 -0.01895142 C22.51113571 -0.02337775 26.9058777 -0.01693367 31.30078125 -0.00292969 C36.94031321 0.01416227 42.57941687 0.00432276 48.21893311 -0.01364708 C52.54772176 -0.02447649 56.87640851 -0.02104243 61.2052002 -0.0132637 C63.28487193 -0.01125937 65.36455286 -0.01372912 67.44421387 -0.02070236 C70.34847598 -0.02830291 73.25204001 -0.01673213 76.15625 0 C77.01972046 -0.00607269 77.88319092 -0.01214539 78.77282715 -0.0184021 C84.62716993 0.04423033 84.62716993 0.04423033 86.79974365 1.70129967 C88.88235442 4.44940189 88.47679541 7.52158701 88.390625 10.82568359 C88.37644531 11.54796143 88.36226563 12.27023926 88.34765625 13.0144043 C87.79633862 32.43758274 80.69110347 50.85556427 69.078125 66.38818359 C68.44261719 67.41959473 67.80710937 68.45100586 67.15234375 69.51367188 C64.67727295 72.43991083 62.73057125 72.88760047 58.95581055 73.2121582 C56.87618319 73.27193461 54.79532316 73.29587036 52.71484375 73.29052734 C51.60889359 73.30338272 50.50294342 73.3162381 49.36347961 73.32948303 C47.02599235 73.34669308 44.68834443 73.34822789 42.35083008 73.33520508 C38.78641098 73.3257388 35.22950734 73.39602393 31.66601562 73.47216797 C29.39063439 73.47898945 27.11523314 73.48109626 24.83984375 73.47802734 C23.78125656 73.50565659 22.72266937 73.53328583 21.63200378 73.56175232 C17.13857592 73.47814727 14.22490656 73.3123713 10.6530304 70.43380737 C8.61013531 68.17066917 6.80840153 65.89624524 5.078125 63.38818359 C4.44626282 62.48298225 4.44626282 62.48298225 3.80163574 61.55949402 C-5.84125136 46.76256068 -12.04145092 28.88944998 -12.171875 11.20068359 C-12.1925 10.48976562 -12.213125 9.77884766 -12.234375 9.04638672 C-12.27343333 3.85651171 -12.27343333 3.85651171 -10.64569092 1.68811607 C-7.57681476 -0.6261286 -3.69846479 -0.0260109 0 0 Z " fill="#EEEAE8" transform="translate(192.921875,173.61181640625)"/>
<path d="M0 0 C1.24700684 0.12769775 2.49401367 0.25539551 3.77880859 0.38696289 C9.67360881 1.15446423 15.52055519 2.0621271 21.3671875 3.13671875 C22.58438477 3.35924316 23.80158203 3.58176758 25.05566406 3.81103516 C44.22618381 7.41407721 67.43228903 12.15470314 81.6171875 26.69921875 C84.18890748 30.79789747 85.01411373 34.06448737 84.6171875 38.88671875 C81.41627163 47.32549696 74.26013284 51.79092993 66.33984375 55.56298828 C47.41999855 64.06286923 27.01435973 67.85366145 6.6171875 70.88671875 C5.53566406 71.05333008 4.45414062 71.21994141 3.33984375 71.39160156 C-26.20356613 75.71568246 -56.60489708 74.16694909 -86.3828125 73.88671875 C-86.7128125 73.22671875 -87.0428125 72.56671875 -87.3828125 71.88671875 C-85.58263672 71.82629395 -85.58263672 71.82629395 -83.74609375 71.76464844 C-72.06057133 71.31199007 -60.59679302 70.21905631 -49.02832031 68.52246094 C-46.3853102 68.13708294 -43.73996073 67.77282495 -41.09375 67.41015625 C-3.27267984 62.07899955 -3.27267984 62.07899955 27.4296875 41.63671875 C29.03161552 37.92699071 29.46611955 34.80486667 28.6171875 30.88671875 C24.2470522 21.22447868 13.7299974 16.98401938 4.40576172 13.36376953 C-1.12458827 11.28555063 -6.68710549 9.45616971 -12.3828125 7.88671875 C-9.51601131 1.6480133 -7.01890372 -0.73390818 0 0 Z " fill="#00A97D" transform="translate(311.3828125,438.11328125)"/>
<path d="M0 0 C6.02652079 -0.09074663 12.05184785 -0.09757313 18.07892609 -0.08986664 C19.99303957 -0.09054362 21.90715298 -0.09151688 23.82126617 -0.09276581 C27.79941388 -0.094225 31.77753887 -0.09214682 35.7556839 -0.08742523 C40.78626256 -0.08173695 45.81678773 -0.08501279 50.84736443 -0.0909977 C54.79083387 -0.09465862 58.73429121 -0.09343959 62.67776108 -0.0908699 C64.52960593 -0.09021541 66.38145199 -0.09097554 68.23329544 -0.09334946 C74.30019007 -0.09942323 80.36436812 -0.05387964 86.43048859 0.04294586 C87.89815044 0.06275387 87.89815044 0.06275387 89.39546204 0.08296204 C92.4063657 0.13311129 95.41511343 0.21294439 98.42511749 0.30124664 C99.35177908 0.31483152 100.27844067 0.3284164 101.23318291 0.34241295 C105.42051104 0.49487966 107.8504477 0.68972478 111.48941803 2.90570831 C114.0150502 5.68658399 114.50703254 7.29229212 114.43048859 11.04294586 C112.66009409 13.79010973 111.36757015 15.57440508 108.43048859 17.04294586 C106.69115854 17.14460637 104.94794699 17.1824122 103.20566559 17.19011688 C102.09802856 17.19727219 100.99039154 17.20442749 99.84918976 17.21179962 C98.628367 17.21448853 97.40754425 17.21717743 96.14972687 17.21994781 C94.22771957 17.22980461 94.22771957 17.22980461 92.26688385 17.23986053 C88.7461911 17.25727341 85.22551192 17.26782275 81.70478678 17.27606606 C79.50600988 17.28121491 77.3072372 17.28729065 75.10846329 17.29357719 C68.23137004 17.31262886 61.35428754 17.32686085 54.47717297 17.33518916 C46.53405626 17.34496689 38.59121783 17.37130016 30.6481992 17.41169006 C24.51141436 17.44182658 18.3747094 17.45665562 12.23785198 17.45997018 C8.57115583 17.46232322 4.90475699 17.47131625 1.23814011 17.49643135 C-2.8514058 17.52399101 -6.94032786 17.51988857 -11.02996063 17.51291656 C-12.24673492 17.52572662 -13.46350922 17.53853668 -14.71715546 17.55173492 C-15.83043213 17.54479111 -16.9437088 17.53784729 -18.09072113 17.53069305 C-19.05784971 17.53308141 -20.02497829 17.53546976 -21.0214138 17.53793049 C-24.30613249 16.8998524 -25.49480243 15.60973403 -27.56951141 13.04294586 C-28.13591766 11.04294586 -28.13591766 11.04294586 -28.13201141 9.04294586 C-28.15392548 8.38294586 -28.17583954 7.72294586 -28.19841766 7.04294586 C-27.18277169 3.81306549 -25.39948246 2.84068519 -22.56951141 1.04294586 C-19.56878606 0.40685191 -16.60801536 0.3511904 -13.54753876 0.30124664 C-12.66672323 0.27267138 -11.78590771 0.24409611 -10.8784008 0.21465492 C-7.25266011 0.10820529 -3.62671437 0.06061556 0 0 Z " fill="#FDD7A0" transform="translate(207.56951141357422,244.9570541381836)"/>
<path d="M0 0 C2.85520781 -0.10876982 5.70620561 -0.18766466 8.5625 -0.25 C9.36236328 -0.28351563 10.16222656 -0.31703125 10.98632812 -0.3515625 C16.88095954 -0.44780138 20.16018264 0.60169985 25 4 C31.8652368 11.17729302 34.30891788 18.07957666 34.1484375 27.8046875 C33.62256635 35.58204505 28.98220337 42.40306523 23.4375 47.625 C11.32218356 57.58092608 -2.66095987 60.66799046 -18 60 C-17.38511719 58.87851563 -17.38511719 58.87851563 -16.7578125 57.734375 C-16.21898437 56.74953125 -15.68015625 55.7646875 -15.125 54.75 C-14.32449219 53.28820312 -14.32449219 53.28820312 -13.5078125 51.796875 C-11.98616517 49.15853556 -11.98616517 49.15853556 -11.24609375 46.7890625 C-9.24471282 43.9156065 -6.16312478 43.50902818 -2.9375 42.625 C4.87694963 40.25882348 12.52900007 37.26198776 17 30 C17.78672401 25.68844391 17.44645598 21.97408578 15.625 18 C13.49553951 15.37912555 12.5421841 15.06082675 9.1796875 14.68359375 C8.08914063 14.60238281 6.99859375 14.52117187 5.875 14.4375 C3.93625 14.293125 1.9975 14.14875 0 14 C0 9.38 0 4.76 0 0 Z " fill="#EEE9E7" transform="translate(318,178)"/>
<path d="M0 0 C3.5 0.8125 3.5 0.8125 5.4375 1.875 C6.8302018 4.4146327 7.20375401 6.75773357 7.140625 9.640625 C6.27332186 12.58099417 4.72826793 13.74758048 2.4375 15.75 C-0.57070106 18.3741641 -0.57070106 18.3741641 -1.94921875 21.96484375 C-1.5697971 26.19799898 -0.15302917 29.70723808 1.5625 33.5625 C4.31307566 40.02081135 4.93601614 47.25435888 2.8046875 54.01953125 C0.57220502 58.32503318 -2.47750062 61.25976001 -6.5 63.8125 C-9.58366812 64.54472235 -11.23748869 64.3387115 -14.5 63.8125 C-17.0625 61.75 -17.0625 61.75 -18.5 58.8125 C-18.5625 55.25 -18.5625 55.25 -17.5 51.8125 C-16.63375 51.1525 -15.7675 50.4925 -14.875 49.8125 C-14.09125 49.1525 -13.3075 48.4925 -12.5 47.8125 C-12.80105053 42.78679936 -14.21244736 38.58635021 -16.0625 33.9375 C-18.71041577 26.67112648 -20.13614693 21.02079803 -17 13.75 C-13.66866742 7.79181019 -7.19908871 -0.38566547 0 0 Z " fill="#E1CCC9" transform="translate(238.5,93.1875)"/>
<path d="M0 0 C2 1 2 1 3 3 C3.6240328 7.09088172 3.9541741 9.54523022 1.65234375 13.0546875 C0.83443359 14.04855469 0.83443359 14.04855469 0 15.0625 C-2.17201097 17.72347079 -2.95931935 18.78846062 -3.625 22.25 C-3.05967108 25.64197349 -2.18146987 28.35383184 -1 31.5625 C1.75053523 39.37205537 2.88888973 47.85897252 -0.625 55.5625 C-1.40875 56.366875 -2.1925 57.17125 -3 58 C-3.45890625 58.48082031 -3.9178125 58.96164063 -4.390625 59.45703125 C-6.88083833 61.8358403 -8.72942467 62.95129644 -12.125 63.5625 C-15 63 -15 63 -17.375 61.4375 C-19.63326454 58.05010319 -19.56116268 55.9982841 -19 52 C-18.319375 51.195625 -17.63875 50.39125 -16.9375 49.5625 C-14.61408254 47.03674005 -14.61408254 47.03674005 -15.0625 43.25 C-15.58914992 40.29856607 -16.48385067 37.66496797 -17.5625 34.875 C-20.28677949 27.13160461 -20.46957696 17.32270914 -17.05859375 9.75 C-12.63851982 2.44301432 -8.84091892 -0.94013862 0 0 Z " fill="#E1CDC9" transform="translate(284,85)"/>
<path d="M0 0 C2.43816585 -0.0809723 4.87364384 -0.14046972 7.3125 -0.1875 C8.34793945 -0.22520508 8.34793945 -0.22520508 9.40429688 -0.26367188 C14.51091074 -0.33768077 14.51091074 -0.33768077 16.91796875 1.32421875 C19.61844148 5.50653933 19.79187622 10.20874895 19 15 C16.08787561 21.13404925 10.10127115 23.90435167 4.29296875 26.8359375 C0.2079815 28.27997807 -3.69867303 28.68937859 -8 29 C-7.82871582 28.47680176 -7.65743164 27.95360352 -7.48095703 27.41455078 C-3.0367056 13.89036805 -3.0367056 13.89036805 0 0 Z " fill="#C9654C" transform="translate(317,193)"/>
</svg>
