<?xml version="1.0" encoding="UTF-8"?>
<svg version="1.1" xmlns="http://www.w3.org/2000/svg" width="512" height="512">
<path d="M0 0 C0.72655104 -0.00350607 1.45310208 -0.00701215 2.20166981 -0.01062447 C4.63725058 -0.0199314 7.07259186 -0.01501701 9.50818253 -0.01015663 C11.27165047 -0.01389325 13.03511675 -0.01849482 14.79858041 -0.02388728 C19.64561074 -0.0361313 24.49257212 -0.03585515 29.33961439 -0.03349853 C34.56675374 -0.03309071 39.79387088 -0.04412613 45.02099991 -0.05361366 C55.26254238 -0.07023245 65.50406182 -0.07572361 75.74561664 -0.07683842 C84.07014399 -0.0777885 92.39466374 -0.08189679 100.71918869 -0.08823967 C124.31754918 -0.10585466 147.91589148 -0.11507816 171.51425859 -0.11357872 C173.42288027 -0.11345885 173.42288027 -0.11345885 175.37005997 -0.11333656 C177.28101048 -0.11321392 177.28101048 -0.11321392 179.23056605 -0.1130888 C199.8775458 -0.11227588 220.5244526 -0.1314144 241.17141125 -0.1596133 C262.3684273 -0.18833513 283.56540777 -0.20215397 304.76244378 -0.20042574 C316.6642097 -0.19976159 328.56589915 -0.20526504 340.46764755 -0.22678185 C350.60118152 -0.24498442 360.73460435 -0.24934855 370.86814758 -0.235763 C376.0379862 -0.22922866 381.20761157 -0.22913308 386.37742996 -0.2464695 C391.11245994 -0.26218452 395.84710728 -0.25935251 400.58212784 -0.24190123 C402.29274937 -0.23882789 404.00339934 -0.24247632 405.71398732 -0.25362138 C415.6380373 -0.31398446 424.9428522 -0.30726209 433.04291153 6.22211266 C433.55853653 6.87308922 434.07416153 7.52406578 434.60541153 8.19476891 C435.40978653 9.16736656 435.40978653 9.16736656 436.23041153 10.15961266 C438.9418762 14.29613689 439.85541062 17.8640697 439.86268044 22.78525066 C439.86912933 23.89102532 439.87557822 24.99679997 439.88222253 26.13608295 C439.87912533 27.34560144 439.87602813 28.55511994 439.87283707 29.80129051 C439.87736818 31.09032066 439.88189929 32.3793508 439.88656771 33.70744246 C439.89880303 37.28362389 439.89853663 40.85971181 439.89617896 44.43590939 C439.89577093 48.29355761 439.90680866 52.1511758 439.9162941 56.00881004 C439.93290804 63.5660746 439.93840382 71.12330795 439.93951885 78.68058924 C439.94046915 84.82361771 439.94457854 90.96663589 439.9509201 97.1096611 C439.96853368 114.52625926 439.97775881 131.94283276 439.97625916 149.35943989 C439.97613929 150.76788259 439.97613929 150.76788259 439.976017 152.20477867 C439.97593524 153.14488695 439.97585348 154.08499522 439.97576924 155.05359163 C439.97495633 170.28951458 439.99409488 185.52533866 440.02229373 200.76123301 C440.05101961 216.40532866 440.06483419 232.04937609 440.06310618 247.69349879 C440.06244217 256.47648937 440.06793924 265.25937631 440.08946228 274.04234314 C440.1076702 281.52043407 440.11202466 288.9983744 440.09844343 296.4764779 C440.09191173 300.29118614 440.09180357 304.1056054 440.10914993 307.92028618 C440.12777081 312.05784178 440.11533151 316.19472785 440.09988785 320.33229637 C440.11017497 321.5351227 440.1204621 322.73794903 440.13106096 323.97722465 C440.06548579 331.91673407 438.99144505 337.32288988 433.67572403 343.49945641 C433.0337709 344.03828453 432.39181778 344.57711266 431.73041153 345.13226891 C431.09361465 345.68656578 430.45681778 346.24086266 429.80072403 346.81195641 C424.8061662 350.10018843 419.95758788 350.50600969 414.0883522 350.49777794 C412.98422857 350.50034121 412.98422857 350.50034121 411.85779941 350.50295627 C409.40263864 350.50623848 406.94775396 350.49526857 404.49261856 350.48431969 C402.72820924 350.4837553 400.96379946 350.48407267 399.19939041 350.4852047 C394.41679912 350.48577813 389.63430831 350.47402528 384.85174036 350.46005678 C379.8509246 350.44754791 374.85010649 350.4463788 369.8492775 350.44400597 C360.38276706 350.43779167 350.91630286 350.4213815 341.44981277 350.40130699 C330.67116693 350.37894645 319.89251887 350.36795416 309.1138556 350.35791612 C286.94434845 350.33701525 264.7748829 350.30184022 242.60541153 350.25726891 C242.62843556 354.71670769 242.70605537 359.17365263 242.79291153 363.63226891 C242.79871231 364.88394859 242.80451309 366.13562828 242.81048965 367.42523766 C243.01099951 375.9357671 244.00414778 383.7217654 250.33075333 389.9579525 C258.81786919 396.90587291 270.53131749 395.60873998 280.85028458 395.63812828 C282.84563888 395.64766972 284.84082029 395.68263327 286.83588028 395.71820641 C288.01561417 395.72642418 289.19534805 395.73464195 290.41083145 395.74310875 C294.22413585 396.35685113 295.86377785 397.59145645 298.60541153 400.25726891 C301.03070586 404.11569171 300.82438941 407.72248906 300.21869278 412.10101891 C299.25439665 415.4914104 297.3526855 417.16410779 294.60541153 419.25726891 C291.00791332 420.45643497 287.73330924 420.39887116 283.98923111 420.39098167 C282.81461486 420.39438001 282.81461486 420.39438001 281.61626899 420.397847 C278.98389149 420.40419332 276.35156538 420.40335723 273.71918106 420.40253258 C271.8352489 420.40552368 269.95131736 420.40892609 268.06738663 420.41271019 C262.94342176 420.42155947 257.81947358 420.4238887 252.6955018 420.42452598 C248.42105618 420.42547446 244.14661446 420.42915206 239.87217033 420.43269807 C229.78894534 420.44084619 219.70572928 420.44328198 209.62250137 420.44257164 C199.21437042 420.44197077 188.80629129 420.45252362 178.39817345 420.4683153 C169.46816994 420.48138248 160.53818339 420.48675588 151.60817039 420.48611623 C146.27208949 420.485861 140.93605461 420.48872612 135.59998322 420.49929428 C130.58167545 420.5089614 125.56345785 420.50906396 120.54514694 420.50177765 C118.70247771 420.50073007 116.8598029 420.50310491 115.01714325 420.50913811 C112.50317526 420.51683663 109.98952031 420.51222745 107.47555923 420.50450706 C106.74510773 420.50965063 106.01465622 420.51479419 105.26206982 420.52009362 C99.88681531 420.48357556 96.25517233 419.86120302 92.35541153 416.06976891 C90.29223954 412.75395679 89.90824467 410.1183915 89.60541153 406.25726891 C89.26509903 406.77676109 88.92478653 407.29625328 88.57416153 407.83148766 C84.20237919 414.12173831 79.27866871 418.68099221 71.60541153 420.25726891 C69.88762312 420.35268382 68.16661844 420.39631704 66.44620132 420.40443993 C65.40338501 420.41159523 64.3605687 420.41875053 63.28615189 420.42612267 C61.57802574 420.43015602 61.57802574 420.43015602 59.835392 420.43427086 C58.6316745 420.44084206 57.427957 420.44741325 56.18776321 420.45418358 C52.19937261 420.47391309 48.21102221 420.48558391 44.22259903 420.49555016 C42.84591146 420.49959991 41.46922409 420.5037169 40.09253693 420.50790024 C33.62122972 420.52694441 27.14993384 420.54117515 20.67860401 420.54951221 C13.22740302 420.5592719 5.7765001 420.58556114 -1.67459595 420.6260131 C-7.44548824 420.65625948 -13.21629551 420.67098925 -18.98726547 420.67429322 C-22.42833126 420.67663466 -25.86907838 420.68547527 -29.31005859 420.71075439 C-33.15634604 420.73515557 -37.00186025 420.73417817 -40.84820175 420.72723961 C-41.97480713 420.74004967 -43.10141251 420.75285973 -44.26215744 420.76605797 C-52.27896531 420.71352858 -59.45074482 419.43636082 -65.83208847 414.29242516 C-66.34771347 413.64144859 -66.86333847 412.99047203 -67.39458847 412.31976891 C-67.93083847 411.67137047 -68.46708847 411.02297203 -69.01958847 410.35492516 C-72.67293137 404.78150148 -72.68341358 399.84580084 -72.66201401 393.370718 C-72.66881068 391.86594578 -72.66881068 391.86594578 -72.67574465 390.33077413 C-72.68841677 386.96532403 -72.68676645 383.60003517 -72.68511581 380.23456383 C-72.69109931 377.82318984 -72.69790444 375.41181777 -72.70547104 373.00044823 C-72.72131904 367.1276243 -72.72758023 361.25483825 -72.72869579 355.38199731 C-72.72964668 350.60719813 -72.73375899 345.83241218 -72.74009705 341.05761719 C-72.75770759 327.51464453 -72.76693625 313.97170355 -72.7654361 300.42871936 C-72.76535619 299.69884726 -72.76527627 298.96897515 -72.76519394 298.2169857 C-72.76511218 297.48622046 -72.76503042 296.75545522 -72.76494618 296.00254557 C-72.76413341 284.16153682 -72.78326916 272.32065531 -72.81147067 260.47968336 C-72.84021168 248.31602389 -72.85401029 236.15242645 -72.85228312 223.98873216 C-72.85161962 217.1619268 -72.85709425 210.33525482 -72.87863922 203.50848007 C-72.89877425 197.08739556 -72.89816483 190.66651989 -72.88360596 184.24541855 C-72.88151331 181.88959912 -72.88624578 179.53376218 -72.89832687 177.17797279 C-72.91376014 173.95990718 -72.90448297 170.74281535 -72.88906479 167.52477074 C-72.89935192 166.59431079 -72.90963904 165.66385084 -72.9202379 164.70519513 C-72.8419464 157.30164494 -70.82255264 152.22478067 -66.14458847 146.50726891 C-57.82086711 139.69695143 -50.85878199 139.74079581 -40.39458847 140.00726891 C-39.03393774 140.02736906 -37.67325827 140.04561361 -36.31255722 140.06195641 C-33.00582547 140.1088604 -29.70058431 140.17449166 -26.39458847 140.25726891 C-26.39827564 139.64196343 -26.40196281 139.02665796 -26.40576172 138.39270687 C-26.4942533 123.39326097 -26.56036617 108.39389563 -26.60183716 93.39425564 C-26.62242737 86.14040859 -26.65047969 78.88673623 -26.69634628 71.63300133 C-26.73632313 65.30768395 -26.76204701 58.98249314 -26.77094245 52.65705293 C-26.77613912 49.31031396 -26.79040275 45.96422249 -26.8175087 42.61754608 C-26.84662119 38.87362046 -26.850541 35.13044023 -26.84869003 31.3864193 C-26.86307114 30.28733742 -26.87745224 29.18825554 -26.89226913 28.05586815 C-26.84861577 19.87494037 -25.33340424 13.63690704 -19.89458847 7.38226891 C-19.06958847 6.68101891 -18.24458847 5.97976891 -17.39458847 5.25726891 C-16.43552597 4.42195641 -16.43552597 4.42195641 -15.45708847 3.56976891 C-10.53337714 0.43649806 -5.73109245 0.00624718 0 0 Z M90.60541153 350.25726891 C90.60541153 367.41726891 90.60541153 384.57726891 90.60541153 402.25726891 C92.25541153 400.93726891 93.90541153 399.61726891 95.60541153 398.25726891 C98.37691417 396.87151758 100.6942843 397.09403626 103.79291153 397.04633141 C105.67816544 397.00379234 105.67816544 397.00379234 107.60150528 396.96039391 C110.23957549 396.90617372 112.87711764 396.86448281 115.51556778 396.82758141 C126.18378303 396.56711633 135.04033668 395.74360051 142.98041153 388.15570641 C151.67612609 377.99677064 148.60541153 362.06215536 148.60541153 350.25726891 C129.46541153 350.25726891 110.32541153 350.25726891 90.60541153 350.25726891 Z " fill="#595A66" transform="translate(72.39458847045898,45.74273109436035)"/>
<path d="M0 0 C138.27 0 276.54 0 419 0 C419 76.89 419 153.78 419 233 C311.42 233 203.84 233 93 233 C92.67 200.33 92.34 167.66 92 134 C88.37329145 125.365751 88.37329145 125.365751 82.375 120.4375 C81.61960937 119.98246094 80.86421875 119.52742188 80.0859375 119.05859375 C75.95654654 116.9629665 72.2972727 116.83239875 67.7746582 116.79467773 C67.03088267 116.78464501 66.28710714 116.77461229 65.52079296 116.76427555 C63.11415403 116.73290333 60.70749862 116.70812469 58.30078125 116.68359375 C56.81456975 116.66518912 55.32836353 116.64635238 53.84216309 116.6270752 C48.33233798 116.55864336 42.8224115 116.49858043 37.3125 116.4375 C24.999375 116.293125 12.68625 116.14875 0 116 C0 77.72 0 39.44 0 0 Z " fill="#70B7E5" transform="translate(70,70)"/>
<path d="M0 0 C115.17 0 230.34 0 349 0 C349 56.35222672 349 56.35222672 343.0703125 63.2421875 C342.42835938 63.78101563 341.78640625 64.31984375 341.125 64.875 C340.48820312 65.42929687 339.85140625 65.98359375 339.1953125 66.5546875 C334.20075467 69.84291952 329.35217635 70.24874078 323.48294067 70.24050903 C322.37881704 70.24307231 322.37881704 70.24307231 321.25238788 70.24568737 C318.79722711 70.24896958 316.34234243 70.23799966 313.88720703 70.22705078 C312.12279771 70.22648639 310.35838793 70.22680377 308.59397888 70.22793579 C303.81138759 70.22850922 299.02889678 70.21675638 294.24632883 70.20278788 C289.24551307 70.190279 284.24469496 70.18910989 279.24386597 70.18673706 C269.77735553 70.18052276 260.31089133 70.1641126 250.84440124 70.14403808 C240.0657554 70.12167755 229.28710734 70.11068526 218.50844407 70.10064721 C196.33893692 70.07974635 174.16947137 70.04457131 152 70 C152.02302403 74.45943878 152.10064384 78.91638372 152.1875 83.375 C152.19330078 84.62667969 152.19910156 85.87835938 152.20507812 87.16796875 C152.40558798 95.67849819 153.39873625 103.46449649 159.7253418 109.70068359 C168.21245766 116.64860401 179.92590596 115.35147107 190.24487305 115.38085938 C192.24022735 115.39040082 194.23540876 115.42536436 196.23046875 115.4609375 C198.00006958 115.47326416 198.00006958 115.47326416 199.80541992 115.48583984 C203.61872433 116.09958223 205.25836632 117.33418755 208 120 C210.42529433 123.85842281 210.21897788 127.46522015 209.61328125 131.84375 C208.64898512 135.23414149 206.74727397 136.90683888 204 139 C200.40250179 140.19916607 197.12789771 140.14160226 193.38381958 140.13371277 C192.60074208 140.13597833 191.81766458 140.13824388 191.01085746 140.14057809 C188.37847996 140.14692441 185.74615386 140.14608832 183.11376953 140.14526367 C181.22983737 140.14825477 179.34590583 140.15165719 177.4619751 140.15544128 C172.33801023 140.16429057 167.21406205 140.16661979 162.09009027 140.16725707 C157.81564465 140.16820555 153.54120293 140.17188315 149.2667588 140.17542917 C139.18353381 140.18357728 129.10031775 140.18601308 119.01708984 140.18530273 C108.60895889 140.18470186 98.20087976 140.19525472 87.79276192 140.2110464 C78.86275841 140.22411358 69.93277186 140.22948698 61.00275886 140.22884732 C55.66667796 140.22859209 50.33064308 140.23145721 44.99457169 140.24202538 C39.97626392 140.25169249 34.95804632 140.25179506 29.93973541 140.24450874 C28.09706618 140.24346117 26.25439137 140.245836 24.41173172 140.2518692 C21.89776373 140.25956773 19.38410878 140.25495854 16.87014771 140.24723816 C16.1396962 140.25238172 15.40924469 140.25752529 14.65665829 140.26282471 C9.25189847 140.22610621 5.62109239 139.62109239 1.75 135.75 C-0.88729726 131.60567573 -1.3667263 128.66693774 -0.3125 123.875 C1.37547846 120.17752337 3.34781414 117.82609293 7 116 C9.06026415 115.8809969 11.12404637 115.82083036 13.1875 115.7890625 C14.44433594 115.76070313 15.70117188 115.73234375 16.99609375 115.703125 C19.63416396 115.64890481 22.27170611 115.6072139 24.91015625 115.5703125 C34.81489995 115.32848763 44.10318711 114.7823014 51.59765625 107.67578125 C59.84075676 97.82539095 57.5461796 80.89168951 58 70 C38.86 70 19.72 70 0 70 C0 46.9 0 23.8 0 0 Z " fill="#D4E2EE" transform="translate(163,326)"/>
<path d="M0 0 C38.61 0 77.22 0 117 0 C117 61.38 117 122.76 117 186 C78.39 186 39.78 186 0 186 C0 124.62 0 63.24 0 0 Z " fill="#70B6E4" transform="translate(23,233)"/>
<path d="M0 0 C4.15223467 1.51402999 5.88778753 2.6517437 8.25 6.4375 C8.75015625 7.21996094 9.2503125 8.00242188 9.765625 8.80859375 C11.56111295 11.99615305 12.12481178 14.52350601 12.12025452 18.1191864 C12.12231651 19.37487427 12.12231651 19.37487427 12.12442017 20.65592957 C12.12082489 21.57086685 12.11722961 22.48580414 12.11352539 23.4284668 C12.11367142 24.39450836 12.11381744 25.36054993 12.1139679 26.35586548 C12.11327041 29.55367263 12.10548562 32.75142176 12.09765625 35.94921875 C12.09579149 38.1645352 12.09436786 40.37985206 12.09336853 42.59516907 C12.08954793 48.42966854 12.07972151 54.26414317 12.06866455 60.09863281 C12.05844063 66.05077783 12.0538688 72.00292686 12.04882812 77.95507812 C12.03809886 89.63673143 12.02050573 101.31835976 12 113 C19.59 113 27.18 113 35 113 C35 120.59 35 128.18 35 136 C27.41 136 19.82 136 12 136 C12.02094727 139.68414062 12.04189453 143.36828125 12.06347656 147.1640625 C12.12978031 159.34171217 12.17415289 171.51934924 12.20724869 183.6971283 C12.22784763 191.07991761 12.25591683 198.46253555 12.30175781 205.84521484 C12.34170773 212.28222395 12.3674522 218.71910891 12.37635398 225.15623856 C12.38155505 228.56266913 12.39372278 231.96874461 12.42292023 235.37506104 C12.45199164 239.18384789 12.45595423 242.99190115 12.45410156 246.80078125 C12.46848267 247.92215988 12.48286377 249.04353851 12.49768066 250.19889832 C12.45786991 257.77158251 11.29754929 263.00368431 6.359375 268.98828125 C5.82828125 269.42527344 5.2971875 269.86226563 4.75 270.3125 C3.96882813 270.98732422 3.96882813 270.98732422 3.171875 271.67578125 C-4.15973171 276.14595153 -10.83863577 276.43762577 -19.22412109 276.40405273 C-20.4284227 276.41091599 -21.6327243 276.41777924 -22.8735199 276.42485046 C-26.15678365 276.43995356 -29.43968889 276.4416294 -32.72297239 276.43590808 C-35.47370888 276.43280336 -38.22439475 276.43892299 -40.975124 276.44494683 C-47.47011303 276.4589633 -53.96497045 276.45745538 -60.45996094 276.44604492 C-67.13792624 276.43457152 -73.81548955 276.4486325 -80.49340189 276.4754414 C-86.24741594 276.49766772 -92.00130445 276.5042201 -97.75535834 276.49836498 C-101.18291394 276.49501007 -104.61021208 276.49731157 -108.03773117 276.51461601 C-111.86448497 276.5295525 -115.69036278 276.51882742 -119.51708984 276.50170898 C-120.63741104 276.51137695 -121.75773224 276.52104492 -122.91200256 276.53100586 C-131.00354544 276.45550608 -138.06609087 275.0703681 -144.5625 270 C-146 268 -146 268 -147 264 C-123.24 263.67 -99.48 263.34 -75 263 C-76.65 261.35 -78.3 259.7 -80 258 C-81.61429923 254.77140153 -81.59570657 251.49006347 -81 248 C-79.26397895 244.97491855 -77.16419863 242.58209931 -74 241 C-69.49271349 240.45983403 -66.05005877 240.39677475 -62.0625 242.6875 C-59.12384949 245.98235057 -58.24866724 248.57016336 -57.5 252.875 C-58.05182168 256.3238855 -58.76196418 257.16923907 -61.03125 259.6953125 C-61.58361328 260.31680176 -62.13597656 260.93829102 -62.70507812 261.57861328 C-63.13240234 262.0476709 -63.55972656 262.51672852 -64 263 C-56.58018934 263.05081865 -49.16042379 263.0857835 -41.74047852 263.10986328 C-39.21767499 263.11990461 -36.69488306 263.13354032 -34.17211914 263.15087891 C-30.54049819 263.17520898 -26.90903149 263.18650202 -23.27734375 263.1953125 C-22.15416245 263.20563507 -21.03098114 263.21595764 -19.87376404 263.22659302 C-14.23431771 263.22739627 -9.23552103 263.2192201 -4 261 C-1.3926364 258.17680558 -0.62453903 256.31081648 -0.61523914 252.49414444 C-0.6057826 251.59094758 -0.59632606 250.68775073 -0.58658296 249.75718427 C-0.59385432 248.27470075 -0.59385432 248.27470075 -0.60127258 246.76226807 C-0.59130234 245.18293208 -0.59130234 245.18293208 -0.58113068 243.57169032 C-0.5624309 240.0323967 -0.56511072 236.49343906 -0.56762695 232.95410156 C-0.55861408 230.42151916 -0.54828804 227.88894114 -0.53674316 225.35636902 C-0.51482459 219.8981352 -0.50206907 214.44000147 -0.49761391 208.9817276 C-0.49115672 201.09000145 -0.46822699 193.19839089 -0.44127061 185.30671129 C-0.39798389 172.50315581 -0.36802792 159.69960518 -0.34643555 146.89599609 C-0.3254315 134.45814626 -0.29816144 122.02033621 -0.26245117 109.58251953 C-0.26025235 108.81591256 -0.25805352 108.04930559 -0.25578807 107.25946811 C-0.24471856 103.41364403 -0.23352572 99.56782032 -0.22227156 95.72199678 C-0.12905977 63.81469769 -0.05747419 31.90738417 0 0 Z " fill="#494B53" transform="translate(151,190)"/>
<path d="M0 0 C2.3631711 13.65923458 4.38519699 29.33442493 -3.63392633 41.46180731 C-10.42806425 50.67153512 -18.71920284 58.67251767 -26.91553903 66.61693168 C-30.75478919 70.36623216 -34.50646508 74.20178513 -38.27348328 78.02339172 C-44.6090887 84.42230486 -51.0140306 90.74473017 -57.46459961 97.02758789 C-64.87426061 104.24677212 -72.14928108 111.58352324 -79.36716205 118.99407452 C-85.61758315 125.40443929 -91.93504611 131.74268483 -98.31132191 138.02788097 C-102.09732882 141.75989943 -105.85714007 145.51014462 -109.55721474 149.32755089 C-135.15351605 175.62700468 -135.15351605 175.62700468 -153.81338024 175.96762562 C-160.6194899 175.85472331 -167.29297845 175.16037538 -174 174 C-169.8449558 169.04601716 -165.52384253 164.38068865 -160.94523621 159.81825256 C-160.25886198 159.13031835 -159.57248775 158.44238413 -158.8653143 157.73360342 C-156.58078621 155.44510874 -154.292727 153.16017878 -152.00463867 150.87524414 C-150.35986974 149.22911932 -148.71531344 147.58278202 -147.07095337 145.93624878 C-142.61710827 141.47785386 -138.16011686 137.02261686 -133.70240951 132.568084 C-129.51232154 128.38027284 -125.32424204 124.19045464 -121.13602511 120.00077241 C-112.34301969 111.20492029 -103.54695993 102.41212775 -94.74984167 93.62038933 C-87.196151 86.07117488 -79.64509847 78.51932996 -72.09594727 70.96557617 C-63.32542856 62.18971273 -54.55324147 53.41552255 -45.77857 44.64381117 C-41.13469428 40.00149791 -36.49150511 35.35850341 -31.8500576 30.71376228 C-27.49308559 26.35391422 -23.13369881 21.99649553 -18.77238846 17.6409874 C-17.1674343 16.03736178 -15.56334213 14.43287297 -13.96014977 12.82748604 C-11.78234036 10.6469691 -9.60151496 8.46951582 -7.41984558 6.29286194 C-6.77706278 5.64784841 -6.13427997 5.00283488 -5.4720189 4.33827549 C-1.11415053 0 -1.11415053 0 0 0 Z " fill="#8FCDF0" transform="translate(477,117)"/>
<path d="M0 0 C0.09265747 12.56081228 0.16374363 25.12154332 0.20724869 37.68262768 C0.22812837 43.51518508 0.25645348 49.34750876 0.30175781 55.17993164 C0.34520121 60.80796419 0.36913423 66.43577184 0.37950897 72.06395912 C0.38690299 74.2117905 0.40134167 76.35960949 0.42292023 78.5073452 C0.45193366 81.51452666 0.45595679 84.5207774 0.45410156 87.52807617 C0.46848267 88.41712143 0.48286377 89.30616669 0.49768066 90.22215271 C0.47078671 94.24767535 0.32946781 96.45032631 -1.77838135 99.96699524 C-5.06182402 102.97167589 -7.66653984 104.25218183 -12.12554932 104.24050903 C-13.34543549 104.24463303 -13.34543549 104.24463303 -14.58996582 104.24884033 C-15.47325562 104.24164978 -16.35654541 104.23445923 -17.26660156 104.22705078 C-18.67199188 104.22748886 -18.67199188 104.22748886 -20.10577393 104.22793579 C-23.20081868 104.22654311 -26.29562233 104.21098466 -29.390625 104.1953125 C-31.53725045 104.19158215 -33.68387761 104.18873528 -35.83050537 104.18673706 C-41.47925521 104.17910232 -47.12790214 104.15945511 -52.77661133 104.1373291 C-58.54116422 104.11686731 -64.30573375 104.10773462 -70.0703125 104.09765625 C-81.38025354 104.07620914 -92.69011821 104.04207503 -104 104 C-99.11257147 98.11161905 -93.84569497 92.70389855 -88.43041992 87.30102539 C-87.47529816 86.34454607 -86.52038871 85.3878547 -85.56567383 84.43096924 C-82.99192197 81.85268893 -80.41505415 79.27754478 -77.83744597 76.70312047 C-75.13649118 74.00470868 -72.43798967 71.30384525 -69.73908997 68.6033783 C-65.21433019 64.07680436 -60.68747695 59.55233207 -56.15942383 55.02905273 C-50.91897707 49.79406691 -45.68216909 44.55546172 -40.44719809 39.31500059 C-35.94872325 34.81199665 -31.44831388 30.31093311 -26.94626313 25.8115043 C-24.25858471 23.12538724 -21.57159223 20.43859337 -18.886343 17.75004768 C-16.36790706 15.22873532 -13.84706098 12.70985835 -11.32428741 10.19288635 C-9.95236065 8.82292352 -8.58291019 7.45048226 -7.21351624 6.07798767 C-6.00020126 4.86890244 -6.00020126 4.86890244 -4.76237488 3.63539124 C-4.05577823 2.92917161 -3.34918158 2.22295198 -2.6211729 1.49533176 C-1 0 -1 0 0 0 Z " fill="#8FCDF0" transform="translate(477,187)"/>
<path d="M0 0 C141.24 0 282.48 0 428 0 C428 0.33 428 0.66 428 1 C426.62093648 0.99943446 426.62093648 0.99943446 425.2140131 0.9988575 C402.82891534 0.99173602 380.44406795 1.01767704 358.05905247 1.0802784 C347.23373443 1.10975746 336.40861253 1.12810443 325.58325195 1.12011719 C316.14628468 1.11318272 306.70962104 1.12726529 297.27272838 1.16643608 C292.277281 1.18644126 287.28231025 1.19602298 282.28683662 1.18042374 C277.58095871 1.1660612 272.87599006 1.1798857 268.17022896 1.21495247 C266.44697691 1.22289454 264.72364236 1.22070422 263.00042343 1.20739174 C251.2257382 1.06517837 251.2257382 1.06517837 240.9795599 6.42750931 C232.14519256 13.44521078 221.34002089 12.55802425 210.67382812 12.48583984 C208.82653027 12.48798859 206.97923374 12.49187057 205.13194275 12.49734497 C200.13808652 12.50699852 195.14459051 12.49178467 190.15077782 12.47143888 C184.91176168 12.45380259 179.67275559 12.45739425 174.43371582 12.4581604 C165.63755305 12.45629027 156.84152869 12.4389657 148.04541016 12.41162109 C137.89226757 12.38017345 127.73927644 12.36962512 117.58608866 12.3710922 C106.75309366 12.37244584 95.92015663 12.35854853 85.08717918 12.34019899 C81.97600965 12.33594742 78.86484954 12.33451814 75.75367737 12.33372116 C70.8550677 12.33170378 65.95658387 12.3194251 61.05801582 12.29938889 C59.26582676 12.29357539 57.47362321 12.2910807 55.68142509 12.29224396 C32.66434968 12.30152576 32.66434968 12.30152576 24.5 7 C23.6853125 6.484375 22.870625 5.96875 22.03125 5.4375 C20 4 20 4 18 2 C16.06742145 1.63168919 16.06742145 1.63168919 13.8671875 1.5859375 C13.06152344 1.54726563 12.25585938 1.50859375 11.42578125 1.46875 C10.58402344 1.4378125 9.74226563 1.406875 8.875 1.375 C8.02550781 1.33632813 7.17601563 1.29765625 6.30078125 1.2578125 C4.20088316 1.16343506 2.10047109 1.08062414 0 1 C0 0.67 0 0.34 0 0 Z " fill="#717280" transform="translate(65,46)"/>
<path d="M0 0 C0.33 0 0.66 0 1 0 C1 76.89 1 153.78 1 233 C-106.58 233 -214.16 233 -325 233 C-325 202.31 -325 171.62 -325 140 C-313.27094972 141.30322781 -313.27094972 141.30322781 -308 146 C-289.74606961 169.23639278 -302 208.35164656 -302 232 C-202.34 232 -102.68 232 0 232 C0 155.44 0 78.88 0 0 Z " fill="#519ACE" transform="translate(488,70)"/>
<path d="M0 0 C5.69131833 5.69131833 5.69131833 5.69131833 7.6875 9.75 C8.08324219 10.52859375 8.47898437 11.3071875 8.88671875 12.109375 C12.61465327 21.78892427 12.29733461 31.51036514 12.29052734 41.70605469 C12.29651873 43.49907713 12.30332567 45.292097 12.31088257 47.08511353 C12.32848805 51.9365523 12.33323565 56.78792044 12.33451414 61.63938808 C12.33593943 64.675994 12.34021619 67.71258216 12.34550858 70.74918365 C12.36399108 81.35884229 12.37218145 91.9684508 12.37060547 102.578125 C12.36940468 112.44211213 12.39049939 122.30588023 12.4220928 132.16981196 C12.44831021 140.66015798 12.45897047 149.15043269 12.45769465 157.64081883 C12.45718661 162.70213996 12.46278212 167.76326629 12.48405075 172.82454681 C12.50352536 177.58861113 12.50349498 182.35229668 12.48901749 187.11637497 C12.48693966 188.85571476 12.49156842 190.59507884 12.5037384 192.33437729 C12.59001747 205.52931045 11.48819122 218.19684754 3 229 C2.01 229.99 1.02 230.98 0 232 C0 155.44 0 78.88 0 0 Z " fill="#6E6F7D" transform="translate(0,210)"/>
<path d="M0 0 C68.97 0 137.94 0 209 0 C209 6 209 6 206.6875 8.8125 C202.39455813 12.30675501 198.67213971 12.14485627 193.38381958 12.13371277 C192.60074208 12.13597833 191.81766458 12.13824388 191.01085746 12.14057809 C188.37847996 12.14692441 185.74615386 12.14608832 183.11376953 12.14526367 C181.22983737 12.14825477 179.34590583 12.15165719 177.4619751 12.15544128 C172.33801023 12.16429057 167.21406205 12.16661979 162.09009027 12.16725707 C157.81564465 12.16820555 153.54120293 12.17188315 149.2667588 12.17542917 C139.18353381 12.18357728 129.10031775 12.18601308 119.01708984 12.18530273 C108.60895889 12.18470186 98.20087976 12.19525472 87.79276192 12.2110464 C78.86275841 12.22411358 69.93277186 12.22948698 61.00275886 12.22884732 C55.66667796 12.22859209 50.33064308 12.23145721 44.99457169 12.24202538 C39.97626392 12.25169249 34.95804632 12.25179506 29.93973541 12.24450874 C28.09706618 12.24346117 26.25439137 12.245836 24.41173172 12.2518692 C21.89776373 12.25956773 19.38410878 12.25495854 16.87014771 12.24723816 C16.1396962 12.25238172 15.40924469 12.25752529 14.65665829 12.26282471 C9.19153384 12.2256961 5.59687766 11.59687766 1.6875 7.6875 C0 5 0 5 0 0 Z " fill="#B1C4D9" transform="translate(163,454)"/>
<path d="M0 0 C1.37655255 9.83365913 2.76468426 20.59455518 -2.94067383 29.25073242 C-7.07920577 34.53505332 -11.84036317 39.18424482 -16.65625 43.84375 C-18.39588518 45.59959688 -20.13194818 47.35898937 -21.86462402 49.1217041 C-25.49256053 52.78482504 -29.15979975 56.40153892 -32.86132812 59.99023438 C-37.57202901 64.56413358 -42.1665826 69.23753695 -46.73673248 73.95137787 C-50.2970794 77.59902275 -53.91335445 81.18687835 -57.54838562 84.75996399 C-59.26571532 86.46143762 -60.96582591 88.18049678 -62.64680481 89.91789246 C-70.98251295 98.47125946 -77.53803124 104.74486708 -89.93166351 105.12314606 C-94.66011822 105.00576909 -99.31587447 104.65570149 -104 104 C-99.11257147 98.11161905 -93.84569497 92.70389855 -88.43041992 87.30102539 C-87.47529816 86.34454607 -86.52038871 85.3878547 -85.56567383 84.43096924 C-82.99192197 81.85268893 -80.41505415 79.27754478 -77.83744597 76.70312047 C-75.13649118 74.00470868 -72.43798967 71.30384525 -69.73908997 68.6033783 C-65.21433019 64.07680436 -60.68747695 59.55233207 -56.15942383 55.02905273 C-50.91897707 49.79406691 -45.68216909 44.55546172 -40.44719809 39.31500059 C-35.94872325 34.81199665 -31.44831388 30.31093311 -26.94626313 25.8115043 C-24.25858471 23.12538724 -21.57159223 20.43859337 -18.886343 17.75004768 C-16.36790706 15.22873532 -13.84706098 12.70985835 -11.32428741 10.19288635 C-9.95236065 8.82292352 -8.58291019 7.45048226 -7.21351624 6.07798767 C-6.00020126 4.86890244 -6.00020126 4.86890244 -4.76237488 3.63539124 C-4.05577823 2.92917161 -3.34918158 2.22295198 -2.6211729 1.49533176 C-1 0 -1 0 0 0 Z " fill="#8ECDF0" transform="translate(139,315)"/>
<path d="M0 0 C0 18.81 0 37.62 0 57 C-18.81 57 -37.62 57 -57 57 C-53.2922336 52.67427253 -49.74115503 48.61540701 -45.74487305 44.61547852 C-45.25792465 44.1267778 -44.77097626 43.63807709 -44.26927185 43.13456726 C-42.68589795 41.54685081 -41.09896542 39.96275032 -39.51171875 38.37890625 C-38.40153149 37.26804442 -37.29149262 36.15703425 -36.18159485 35.04588318 C-33.86934616 32.73216841 -31.55531871 30.42025184 -29.23999023 28.10961914 C-26.26613183 25.14149762 -23.2968394 22.16885491 -20.32882977 19.19488621 C-18.04448873 16.90694415 -15.75778698 14.62137357 -13.47034645 12.33653069 C-12.37352832 11.24038103 -11.27745638 10.14348421 -10.18213463 9.04583931 C-8.65987292 7.52105433 -7.13447144 5.99948371 -5.6081543 4.47875977 C-4.74022751 3.61162857 -3.87230072 2.74449738 -2.97807312 1.85108948 C-1 0 -1 0 0 0 Z " fill="#8FCDF0" transform="translate(139,362)"/>
<path d="M0 0 C7.59 0 15.18 0 23 0 C23 23.1 23 46.2 23 70 C15.41 70 7.82 70 0 70 C0 46.9 0 23.8 0 0 Z " fill="#B0C4D9" transform="translate(163,326)"/>
<path d="M0 0 C31.02 0 62.04 0 94 0 C94 29 94 29 91 34 C87.6015625 34.6640625 87.6015625 34.6640625 83.625 34.625 C82.31789063 34.63789063 81.01078125 34.65078125 79.6640625 34.6640625 C75.14095914 33.84431029 73.73540381 32.64720508 71 29 C69.890625 25.9921875 69.890625 25.9921875 69.25 22.875 C69.02828125 21.84117187 68.8065625 20.80734375 68.578125 19.7421875 C68.38734375 18.83726562 68.1965625 17.93234375 68 17 C67.505 15.515 67.505 15.515 67 14 C62.86592778 12.19216737 59.19813235 11.73690621 54.71923828 11.68115234 C53.4984256 11.66128265 52.27761292 11.64141296 51.01980591 11.62094116 C49.71647308 11.60938995 48.41314026 11.59783875 47.0703125 11.5859375 C45.71124112 11.5672085 44.35218115 11.54763381 42.99313354 11.5272522 C39.43240108 11.47610759 35.871631 11.43638796 32.31072998 11.39910889 C28.67060168 11.3589578 25.0306275 11.30791636 21.390625 11.2578125 C14.26052976 11.16126285 7.13033765 11.07679164 0 11 C0 7.37 0 3.74 0 0 Z " fill="#B0C4D9" transform="translate(221,396)"/>
<path d="M0 0 C38.61 0 77.22 0 117 0 C117 26.73 117 53.46 117 81 C116.67 81 116.34 81 116 81 C116 57.9 116 34.8 116 11 C78.05 11 40.1 11 1 11 C1 68.75 1 126.5 1 186 C0.67 186 0.34 186 0 186 C0 124.62 0 63.24 0 0 Z " fill="#509BD2" transform="translate(23,233)"/>
<path d="M0 0 C0.82971817 -0.00428513 1.65943634 -0.00857025 2.51429749 -0.01298523 C4.26855558 -0.01872628 6.02283748 -0.01923044 7.77709961 -0.01489258 C10.45923551 -0.01173455 13.14026626 -0.03518693 15.82226562 -0.06054688 C17.52734236 -0.06282011 19.23242206 -0.06352325 20.9375 -0.0625 C21.73864731 -0.07170975 22.53979462 -0.08091949 23.36521912 -0.09040833 C26.64383678 -0.06320837 29.11055382 0.08120196 32.04907227 1.60083008 C33.53515625 3.30078125 33.53515625 3.30078125 33.91015625 6.86328125 C33.53515625 10.30078125 33.53515625 10.30078125 31.53515625 12.30078125 C28.48510178 12.51323319 25.52820998 12.60473354 22.4765625 12.6015625 C21.57646957 12.60584763 20.67637665 12.61013275 19.74900818 12.61454773 C17.84334149 12.62029655 15.93765286 12.62078724 14.03198242 12.61645508 C11.11273815 12.61329756 8.19450931 12.63673859 5.27539062 12.66210938 C3.42578253 12.66438252 1.57617171 12.66508579 -0.2734375 12.6640625 C-1.14850449 12.67327225 -2.02357147 12.68248199 -2.92515564 12.69197083 C-3.73932449 12.68574203 -4.55349335 12.67951324 -5.39233398 12.6730957 C-6.10800034 12.67372513 -6.82366669 12.67435455 -7.5610199 12.67500305 C-10.06913561 12.18199968 -10.97072957 11.35230312 -12.46484375 9.30078125 C-12.33984375 5.73828125 -12.33984375 5.73828125 -11.46484375 2.30078125 C-7.62527153 -0.25893356 -4.45238809 -0.00505239 0 0 Z " fill="#36373F" transform="translate(70.46484375,208.69921875)"/>
<path d="M0 0 C7.59 0 15.18 0 23 0 C23 7.26 23 14.52 23 22 C15.41 22 7.82 22 0 22 C0 14.74 0 7.48 0 0 Z " fill="#35363E" transform="translate(163,303)"/>
<path d="M0 0 C3.70390021 2.02666238 5.65363011 3.48044516 8 7 C8.68343706 10.77688904 8.85107095 14.47186889 6.94921875 17.88671875 C4.62594716 20.71713517 2.71847227 22.79405342 -0.98828125 23.23828125 C-5.05070018 23.36800555 -7.37166461 23.37432746 -10.9375 21.25 C-13.95236344 17.96105806 -14.83016289 16.12517087 -15.5 11.6875 C-14.83398123 6.77561156 -12.58855833 4.29106127 -9 1 C-5.89046621 -0.5547669 -3.43733239 -0.28644437 0 0 Z " fill="#5D5E6A" transform="translate(271,349)"/>
<path d="M0 0 C3.15456488 1.81219684 4.56405306 3.21114363 6.3125 6.375 C7.3458327 10.32045214 7.91462528 13.14835045 6.04296875 16.9375 C3.83355765 20.09562076 2.14376293 21.73579745 -1.671875 22.6171875 C-6.5676523 22.84212862 -9.15628522 22.64122324 -13.125 19.625 C-15.73081592 15.97685771 -16.3925416 13.65758437 -16.359375 9.10546875 C-15.72418186 5.38406547 -13.66020984 3.59687151 -11 1 C-7.53472176 -0.73263912 -3.78892972 -0.4719774 0 0 Z " fill="#35363E" transform="translate(86,431)"/>
<path d="M0 0 C0.66 0.33 1.32 0.66 2 1 C-0.97 3.97 -3.94 6.94 -7 10 C-7 7 -7 7 -4.625 4.4375 C-3.75875 3.633125 -2.8925 2.82875 -2 2 C-1.34 1.34 -0.68 0.68 0 0 Z " fill="#7A7E8A" transform="translate(57,49)"/>
</svg>
