<?xml version="1.0" encoding="UTF-8"?>
<svg version="1.1" xmlns="http://www.w3.org/2000/svg" width="512" height="512">
<path d="M0 0 C3.98491943 0.71585192 7.97601223 1.39496176 11.96783447 2.07110596 C12.76207825 2.205672 13.55632202 2.34023804 14.37463379 2.47888184 C21.44457999 3.66239947 28.52279883 4.64895893 35.64361572 5.48126221 C36.62596191 5.60090332 37.60830811 5.72054443 38.62042236 5.84381104 C51.50796394 7.27331462 64.00010864 6.55893306 76.83111572 4.91876221 C77.53440002 4.83211304 78.23768433 4.74546387 78.96228027 4.65618896 C90.60400204 3.22137873 102.14330338 1.38866172 113.66534424 -0.81829834 C126.087518 -3.12904204 135.62894926 -2.50693768 147.76861572 1.04376221 C149.65797852 1.58347656 149.65797852 1.58347656 151.58551025 2.13409424 C237.68056912 26.93037758 237.68056912 26.93037758 254.21392822 55.78594971 C254.90617865 57.0554042 255.59095544 58.32895962 256.26861572 59.60626221 C256.61762939 60.26013916 256.96664307 60.91401611 257.32623291 61.58770752 C280.50074426 105.90762554 286.01446448 164.24009548 289.26861572 213.60626221 C289.41170166 215.47411377 289.41170166 215.47411377 289.55767822 217.37969971 C289.6066626 218.44446533 289.65564697 219.50923096 289.70611572 220.60626221 C289.74607666 221.45188721 289.7860376 222.29751221 289.82720947 223.16876221 C288.98709656 226.83470945 287.0472492 229.19708113 284.26861572 231.60626221 C281.54980125 233.23833864 278.72071352 234.39832154 275.76861572 235.54376221 C274.93620361 235.87803223 274.1037915 236.21230225 273.24615479 236.55670166 C270.59723819 237.60278165 267.93724292 238.61160977 265.26861572 239.60626221 C264.42105713 239.92272705 263.57349854 240.23919189 262.70025635 240.56524658 C252.79819917 244.19574717 242.81607479 247.13550995 232.51861572 249.41876221 C231.64559814 249.61365234 230.77258057 249.80854248 229.87310791 250.00933838 C224.07666691 251.22039958 218.27486678 252.00205633 212.39654541 252.67144775 C211.22060318 252.80747532 211.22060318 252.80747532 210.02090454 252.94625092 C208.10365354 253.1678058 206.18615883 253.38724996 204.26861572 253.60626221 C204.2713811 254.76547495 204.27414648 255.92468769 204.27699566 257.11902809 C204.34197062 284.6370221 204.39143797 312.15500843 204.42181171 339.67306332 C204.42556383 343.06013886 204.42944679 346.44721425 204.43341064 349.83428955 C204.43419758 350.50859463 204.43498451 351.1828997 204.43579528 351.87763827 C204.44884884 362.79557323 204.47250239 373.71346079 204.50007411 384.63136764 C204.52812973 395.83433515 204.54456776 407.03727898 204.55088121 418.24028337 C204.55479582 424.53277065 204.56401104 430.82515044 204.58580589 437.1176033 C204.60614872 443.03873893 204.61245393 448.95972264 204.60793877 454.88088989 C204.60876495 457.0553304 204.61474361 459.22977593 204.62623215 461.40418625 C204.64114154 464.37127843 204.63757478 467.33779584 204.62937927 470.30490112 C204.6381178 471.16677839 204.64685632 472.02865566 204.65585965 472.91665041 C204.61340609 478.5968425 203.80245029 483.07834781 199.59674072 487.27423096 C171.5755837 503.30647013 133.65683154 505.73023171 102.26861572 508.60626221 C101.43710495 508.68992035 100.60559418 508.77357849 99.74888611 508.85977173 C91.33460909 509.64974944 82.95071551 509.78718534 74.50689697 509.80938721 C73.7647463 509.81221458 73.02259563 509.81504196 72.25795555 509.81795502 C68.3100895 509.83286329 64.36225902 509.84213863 60.41436768 509.84649658 C57.22967747 509.85082917 54.04526617 509.86452699 50.86065674 509.88751221 C5.60286082 510.20734364 -51.64653876 510.15610895 -91.73138428 486.60626221 C-96.18759651 481.86255241 -95.87233969 476.85293061 -95.85163879 470.66566467 C-95.85249322 469.74021856 -95.85334764 468.81477246 -95.85422796 467.86128253 C-95.85588054 464.74736635 -95.85036498 461.63350354 -95.84490967 458.51959229 C-95.84462772 456.29257712 -95.84478567 454.06556186 -95.84535217 451.83854675 C-95.84563986 445.78105825 -95.83974774 439.72358943 -95.83277822 433.66610551 C-95.82653992 427.33998097 -95.8259405 421.01385602 -95.82475281 414.68772888 C-95.82199478 404.06592426 -95.81574252 393.44412743 -95.80682373 382.82232666 C-95.7976464 371.8812463 -95.79056713 360.9401679 -95.78631592 349.99908447 C-95.78605319 349.32481164 -95.78579047 348.65053881 -95.78551979 347.95583347 C-95.78421476 344.57324528 -95.78295105 341.19065708 -95.78170788 337.80806887 C-95.77133915 309.74079494 -95.75364994 281.67352903 -95.73138428 253.60626221 C-97.45837051 253.41104477 -97.45837051 253.41104477 -99.22024536 253.21188354 C-100.75440857 253.03568538 -102.28855697 252.85935813 -103.82269287 252.68292236 C-104.95673805 252.5552523 -104.95673805 252.5552523 -106.11369324 252.42500305 C-112.62667912 251.6716361 -118.97477703 250.49146028 -125.35638428 248.98126221 C-126.45176514 248.72473877 -127.547146 248.46821533 -128.67572021 248.20391846 C-139.9815895 245.45639364 -150.87010288 241.75143026 -161.73138428 237.60626221 C-162.48000732 237.32750244 -163.22863037 237.04874268 -163.99993896 236.76153564 C-177.86772861 231.55385475 -177.86772861 231.55385475 -180.73138428 225.60626221 C-181.64428521 215.75746564 -180.1359133 205.59286468 -179.10638428 195.79376221 C-179.01902008 194.95222595 -178.93165588 194.1106897 -178.84164429 193.24365234 C-166.12871836 71.99566622 -166.12871836 71.99566622 -135.20013428 42.16485596 C-132.17401168 39.73439255 -129.04127777 37.62025391 -125.73138428 35.60626221 C-124.99468506 35.15573486 -124.25798584 34.70520752 -123.4989624 34.24102783 C-96.76391768 18.20856306 -66.20073874 8.18501448 -36.23138428 0.04376221 C-35.33057129 -0.20800781 -34.4297583 -0.45977783 -33.50164795 -0.71917725 C-22.01696771 -3.70002402 -11.48537874 -2.07203001 0 0 Z " fill="#03A8F3" transform="translate(201.73138427734375,2.39373779296875)"/>
<path d="M0 0 C3.63530294 0.57482842 7.25816144 1.21493426 10.88006592 1.86834717 C14.86498535 2.58419908 18.85607815 3.26330893 22.84790039 3.93945312 C23.64214417 4.07401917 24.43638794 4.20858521 25.25469971 4.347229 C32.32464591 5.53074663 39.40286475 6.5173061 46.52368164 7.34960938 C47.50602783 7.46925049 48.48837402 7.5888916 49.50048828 7.7121582 C62.38802986 9.14166179 74.88017456 8.42728022 87.71118164 6.78710938 C88.41446594 6.70046021 89.11775024 6.61381104 89.84234619 6.52453613 C101.48406796 5.0897259 113.0233693 3.25700889 124.54541016 1.05004883 C131.32312691 -0.21072618 138.24965067 -1.45785353 145.14868164 -0.52539062 C148.84182941 2.15395187 149.80819445 3.5245464 150.57836914 7.93554688 C151.1616853 19.9106845 145.87254517 29.66268855 138.14868164 38.47460938 C124.35262147 52.10034782 103.20488788 60.2206495 84.14868164 62.47460938 C83.25793945 62.58417969 82.36719727 62.69375 81.44946289 62.80664062 C78.34830406 63.12394883 75.26233719 63.32036146 72.14868164 63.47460938 C70.84415039 63.54035156 69.53961914 63.60609375 68.19555664 63.67382812 C41.67338818 64.55860742 13.99345326 57.4057557 -6.40991211 39.85351562 C-14.31214307 32.15358178 -19.77119295 22.38599814 -20.41381836 11.22460938 C-20.1920878 7.1421584 -19.4336216 3.91305068 -16.66772461 0.81274414 C-12.2036471 -2.47591296 -5.14670209 -0.70210478 0 0 Z " fill="#1876D2" transform="translate(190.851318359375,0.525390625)"/>
<path d="M0 0 C2.80703896 1.34040619 3.86054551 2.54745461 6 5 C7.22246178 8.95502341 7.43792958 11.00040836 5.76953125 14.80859375 C4.22342147 17.59705222 2.57074854 20.25208376 0.78955078 22.89526367 C-11.4159251 41.02436149 -14.15781378 58.90940941 -14.07696915 80.31919098 C-14.06547785 84.65033511 -14.0861434 88.98138289 -14.1015625 93.3125 C-14.1198697 98.79902533 -14.12838091 104.28498283 -14.09960938 109.77148438 C-14.07706902 114.23139934 -14.08848572 118.69009789 -14.12261581 123.14992523 C-14.12937321 124.84194332 -14.12373742 126.53405962 -14.10525894 128.2259903 C-13.97089779 141.35955369 -13.97089779 141.35955369 -16.49090576 145.37658691 C-19.48820865 148.08218028 -21.56766268 148.91656648 -25.5625 149.6875 C-30.09432561 148.78113488 -31.75195336 147.24804664 -35 144 C-36.50496452 140.99007096 -36.16478022 137.8813336 -36.17700195 134.57885742 C-36.18357315 133.81250473 -36.19014435 133.04615204 -36.19691467 132.25657654 C-36.21670077 129.70620621 -36.22833601 127.15589559 -36.23828125 124.60546875 C-36.24235678 123.72884394 -36.2464323 122.85221912 -36.25063133 121.94902992 C-36.27153697 117.28885763 -36.28580645 112.62871496 -36.29516602 107.96850586 C-36.30394835 104.1483527 -36.32462855 100.32857254 -36.35668945 96.50854492 C-36.76082806 47.27450524 -36.76082806 47.27450524 -28.25 28.9375 C-27.90855957 28.16567383 -27.56711914 27.39384766 -27.21533203 26.59863281 C-14.03756488 -2.26580361 -14.03756488 -2.26580361 0 0 Z " fill="#0288D1" transform="translate(420,107)"/>
<path d="M0 0 C5.39032596 1.22632204 8.8651233 5.88562802 11.72387695 10.33056641 C12.07925537 10.90983887 12.43463379 11.48911133 12.80078125 12.0859375 C13.18387451 12.69872559 13.56696777 13.31151367 13.96166992 13.94287109 C26.51347021 34.32604645 30.78071912 54.56699281 30.76953125 78.15234375 C30.77665102 79.99983444 30.78435259 81.84732297 30.79260254 83.69480896 C30.80593919 87.5346394 30.8076615 91.37426443 30.80175781 95.21411133 C30.79581975 100.12683247 30.82667168 105.03857964 30.86687469 109.95111179 C30.89272569 113.75244939 30.89563246 117.55354993 30.89198303 121.3549633 C30.89367142 123.16702698 30.90328679 124.97910193 30.92112732 126.79107857 C30.94330603 129.31785194 30.93362822 131.84261734 30.91601562 134.36938477 C30.92927887 135.10970947 30.94254211 135.85003418 30.95620728 136.61279297 C30.86373105 142.33323284 29.22950484 144.66405274 25.30078125 148.5234375 C23.08984375 149.5390625 23.08984375 149.5390625 20.92578125 149.7734375 C20.21679688 149.88171875 19.5078125 149.99 18.77734375 150.1015625 C14.43422952 149.08771249 11.74268688 147.30748943 9.30078125 143.5234375 C8.25618514 137.86061376 8.4190845 132.24826283 8.50390625 126.5078125 C8.50213571 124.81072285 8.49684588 123.1136336 8.48822021 121.41656494 C8.47296908 116.94488961 8.49676307 112.47434358 8.53143311 108.00280762 C8.58184668 100.89115329 8.58003981 93.77956834 8.56502533 86.66779327 C8.56636316 84.21191857 8.58851137 81.75693931 8.61358643 79.3012085 C8.72235972 57.31099929 4.58908919 36.36632405 -9.63671875 18.8359375 C-11.95519553 15.11232327 -12.43095594 12.91611477 -12.203125 8.609375 C-11.38883539 5.23859477 -9.35770304 3.59835206 -6.69921875 1.5234375 C-4.89055387 -0.28522738 -2.41886404 0.17847929 0 0 Z " fill="#0288D1" transform="translate(97.69921875,106.4765625)"/>
</svg>
