<?xml version="1.0" encoding="UTF-8"?>
<svg version="1.1" xmlns="http://www.w3.org/2000/svg" width="512" height="512">
<path d="M0 0 C9.04250486 6.11087917 16.58442387 14.29397053 24.25878906 21.98413086 C25.66882694 23.38981395 27.07927968 24.795081 28.4901123 26.19996643 C32.2962126 29.99275208 36.09596197 33.7918387 39.89413929 37.59255672 C43.07332634 40.77281801 46.25549512 43.95008764 49.43760848 47.12742049 C56.94577648 54.62452066 64.44863769 62.12690258 71.94824219 69.63256836 C79.67171779 77.3620902 87.40434123 85.08237332 95.14147019 92.7982263 C101.80021561 99.4393371 108.4531193 106.08626075 115.10142684 112.73782068 C119.06529333 116.70349624 123.0313296 120.66693707 127.00305939 124.62473869 C130.73626112 128.34533549 134.4620915 132.07316197 138.18247986 135.80657005 C139.54480025 137.17124944 140.90965692 138.53340261 142.27729034 139.89275742 C162.8629431 160.36280481 162.8629431 160.36280481 163.4375 174.875 C163.16555062 183.87199211 160.0802105 190.71223336 153.93359375 197.2421875 C146.12067936 204.34483695 139.14048229 205.48542527 128.765625 205.2734375 C115.86210635 204.33646 107.49724023 193.65102992 98.90625 185.00390625 C98.07411987 184.17036118 97.24198975 183.3368161 96.38464355 182.47801208 C93.75405065 179.84186738 91.12697559 177.20224895 88.5 174.5625 C86.70596145 172.76344021 84.91169285 170.9646098 83.1171875 169.16601562 C78.74212875 164.77999188 74.36994488 160.39111858 70 156 C67.06660791 157.31795441 65.05701016 158.71709561 62.84301758 161.04101562 C61.95607964 161.96207092 61.95607964 161.96207092 61.05122375 162.9017334 C60.42201523 163.56322388 59.7928067 164.22471436 59.14453125 164.90625 C57.78657025 166.30412699 56.42782108 167.70123868 55.06835938 169.09765625 C52.93847251 171.29547387 50.81442957 173.49797369 48.70385742 175.71435547 C46.65847895 177.85704184 44.59119734 179.97650991 42.51953125 182.09375 C41.90044388 182.75524048 41.28135651 183.41673096 40.64350891 184.0982666 C36.24923072 188.54310066 32.36278152 190.88022293 26 191 C17.28351244 190.19196185 11.91569792 183.72738581 6.12890625 177.78515625 C5.1164037 176.76652641 4.1027048 175.74908448 3.08787537 174.73277283 C0.97512542 172.61086594 -1.12748372 170.47958941 -3.22241211 168.34008789 C-5.90419513 165.60152595 -8.60323076 162.88081862 -11.30908108 160.16605473 C-13.89861354 157.56620664 -16.4786967 154.95705935 -19.05859375 152.34765625 C-19.54898069 151.85350786 -20.03936764 151.35935947 -20.54461479 150.85023689 C-21.93269074 149.44837965 -23.31307903 148.03892294 -24.69311523 146.62915039 C-25.87151222 145.43026939 -25.87151222 145.43026939 -27.07371521 144.20716858 C-30.36715593 140.43349041 -31.30520482 137.60837581 -31.375 132.625 C-31.40335938 131.70976562 -31.43171875 130.79453125 -31.4609375 129.8515625 C-30.37589129 123.1389885 -24.69483306 118.42403083 -20.046875 113.8515625 C-19.38665344 113.19417084 -18.72643188 112.53677917 -18.04620361 111.85946655 C-15.95214738 109.77653738 -13.85121935 107.70070042 -11.75 105.625 C-10.32245579 104.20749524 -8.89536753 102.78953114 -7.46875 101.37109375 C-3.98442016 97.90872506 -0.49391332 94.45269656 3 91 C1.5332904 87.59327824 -0.34887117 85.43695927 -3.00317383 82.86499023 C-3.82775589 82.05992538 -4.65233795 81.25486053 -5.50190735 80.42539978 C-6.39459824 79.56185379 -7.28728912 78.6983078 -8.20703125 77.80859375 C-9.60946125 76.43223914 -11.0118728 75.05586517 -12.41322613 73.67841434 C-15.86032388 70.29212937 -19.31657389 66.91544588 -22.78833008 63.55444336 C-24.73583696 61.66813493 -26.67478283 59.77373129 -28.60539246 57.87013245 C-30.418353 56.08323726 -32.24308656 54.30818145 -34.08125305 52.54722595 C-40.69739202 45.98589027 -45.05016038 39.34351116 -46.69921875 30.06640625 C-46.66576955 20.06509672 -44.67227784 12.61894851 -38.20703125 4.84375 C-27.37781691 -5.69519674 -13.066279 -6.41057094 0 0 Z " fill="#000000" transform="translate(46,307)"/>
<path d="M0 0 C6.11576312 4.86381325 11.59469018 10.46110313 17.09375 15.99609375 C17.92588013 16.82963882 18.75801025 17.6631839 19.61535645 18.52198792 C22.24594935 21.15813262 24.87302441 23.79775105 27.5 26.4375 C29.29403855 28.23655979 31.08830715 30.0353902 32.8828125 31.83398438 C37.25787125 36.22000812 41.63005512 40.60888142 46 45 C48.8880374 43.69379546 50.92971767 42.31090179 53.14453125 40.05078125 C53.73194092 39.45676514 54.31935059 38.86274902 54.92456055 38.25073242 C55.85909058 37.29130737 55.85909058 37.29130737 56.8125 36.3125 C57.46323486 35.65419189 58.11396973 34.99588379 58.78442383 34.31762695 C60.86115538 32.21648964 62.93132474 30.10906781 65 28 C67.72340808 25.2234152 70.45333344 22.45348674 73.1875 19.6875 C73.81052002 19.0478833 74.43354004 18.4082666 75.07543945 17.74926758 C75.66284912 17.15525146 76.25025879 16.56123535 76.85546875 15.94921875 C77.36746826 15.42674561 77.87946777 14.90427246 78.40698242 14.3659668 C81.86223063 11.40319074 84.8787582 10.68797257 89.375 10.625 C90.74785156 10.58246094 90.74785156 10.58246094 92.1484375 10.5390625 C100.04758156 11.81591044 105.78164492 19.49257037 111.140625 24.875 C112.11345766 25.84648343 113.08658687 26.81766997 114.05999756 27.78857422 C116.09046373 29.81610405 118.11729927 31.84717601 120.14160156 33.88085938 C122.73284952 36.48353151 125.3330152 39.07707988 127.93594742 41.6680603 C129.94358801 43.66846795 131.94643358 45.67362187 133.94786835 47.68023682 C135.36881824 49.10316291 136.79378533 50.52207372 138.21881104 51.94091797 C139.08020691 52.80861816 139.94160278 53.67631836 140.82910156 54.5703125 C141.58821838 55.33102051 142.34733521 56.09172852 143.12945557 56.87548828 C146.40466954 60.59538413 147.30600902 63.44904429 147.375 68.375 C147.40335938 69.29023437 147.43171875 70.20546875 147.4609375 71.1484375 C146.37589129 77.8610115 140.69483306 82.57596917 136.046875 87.1484375 C135.38665344 87.80582916 134.72643188 88.46322083 134.04620361 89.14053345 C131.95214738 91.22346262 129.85121935 93.29929958 127.75 95.375 C126.32245579 96.79250476 124.89536753 98.21046886 123.46875 99.62890625 C119.98442016 103.09127494 116.49391332 106.54730344 113 110 C114.4667096 113.40672176 116.34887117 115.56304073 119.00317383 118.13500977 C119.82775589 118.94007462 120.65233795 119.74513947 121.50190735 120.57460022 C122.39459824 121.43814621 123.28728912 122.3016922 124.20703125 123.19140625 C125.60946125 124.56776086 127.0118728 125.94413483 128.41322613 127.32158566 C131.86032388 130.70787063 135.31657389 134.08455412 138.78833008 137.44555664 C140.73583696 139.33186507 142.67478283 141.22626871 144.60539246 143.12986755 C146.418353 144.91676274 148.24308656 146.69181855 150.08125305 148.45277405 C156.69739202 155.01410973 161.05016038 161.65648884 162.69921875 170.93359375 C162.66576955 180.93490328 160.67227784 188.38105149 154.20703125 196.15625 C148.1727096 202.02882695 140.38043676 205.0876293 132 205.5 C114.59957409 204.61896578 103.21109967 190.50936485 91.74121094 179.01586914 C90.33117306 177.61018605 88.92072032 176.204919 87.5098877 174.80003357 C83.7037874 171.00724792 79.90403803 167.2081613 76.10586071 163.40744328 C72.92667366 160.22718199 69.74450488 157.04991236 66.56239152 153.87257951 C59.05422352 146.37547934 51.55136231 138.87309742 44.05175781 131.36743164 C36.32828221 123.6379098 28.59565877 115.91762668 20.85852981 108.2017737 C14.19978439 101.5606629 7.5468807 94.91373925 0.89857316 88.26217932 C-3.06529333 84.29650376 -7.0313296 80.33306293 -11.00305939 76.37526131 C-14.73626112 72.65466451 -18.4620915 68.92683803 -22.18247986 65.19342995 C-23.54480025 63.82875056 -24.90965692 62.46659739 -26.27729034 61.10724258 C-46.8629431 40.63719519 -46.8629431 40.63719519 -47.4375 26.125 C-47.16555062 17.12800789 -44.0802105 10.28776664 -37.93359375 3.7578125 C-27.63906986 -5.60084559 -11.96173651 -7.63693534 0 0 Z " fill="#000000" transform="translate(350,4)"/>
<path d="M0 0 C4.84553406 3.30328497 8.90833099 7.13288219 13.02617168 11.28938007 C13.80958661 12.06811503 14.59300154 12.84684999 15.40015632 13.64918298 C18.0048803 16.24200862 20.59882911 18.84534327 23.19287395 21.44884968 C25.06559866 23.31750641 26.93889808 25.18557054 28.81289959 27.05294514 C33.36202624 31.58877378 37.90305617 36.13262453 42.44117769 40.67946116 C46.13152532 44.37660046 49.82481078 48.07078111 53.52018452 51.76289654 C54.04732677 52.28957909 54.57446902 52.81626164 55.11758528 53.35890427 C56.18867741 54.42903716 57.25977624 55.49916335 58.33088169 56.56928291 C68.36018911 66.59004795 78.38030247 76.61996581 88.39726583 86.65306815 C96.98132753 95.25053197 105.57322409 103.84010012 114.1709013 112.42394733 C124.16957178 122.40654161 134.16332967 132.39401238 144.14936477 142.3892476 C145.21542928 143.45626769 146.28150003 144.52328156 147.3475771 145.59028912 C147.87202299 146.11519784 148.39646889 146.64010657 148.93680709 147.18092162 C152.62225805 150.86895634 156.3111652 154.55351187 160.00144291 158.23671627 C164.50223509 162.72907056 168.99759357 167.22678006 173.48619779 171.73131339 C175.77385519 174.02682278 178.06458838 176.31909966 180.36034489 178.60651302 C182.85427956 181.09222012 185.33874331 183.58703349 187.82109356 186.08430195 C188.54064856 186.79716478 189.26020356 187.51002761 190.00156325 188.24449235 C197.94129505 196.27669426 203.58324418 204.04642392 204.10815716 215.62731647 C203.92385766 224.01294344 201.26012338 231.74854143 195.43628216 237.88122272 C187.83769001 244.5561328 180.08623723 246.90935462 170.03393841 246.67028522 C152.32587404 245.09856354 138.18592102 224.98416678 126.37597942 213.18127155 C124.55002171 211.35995093 122.72386987 209.53882492 120.89754009 207.71787739 C115.96972338 202.80352313 111.0455779 197.88550178 106.12227654 192.9666245 C103.04320196 189.8903283 99.96339752 186.81476351 96.88346958 183.73932171 C88.338034 175.2060541 79.79352807 166.67185805 71.25247574 158.13420296 C70.43603109 157.31808766 70.43603109 157.31808766 69.60309261 156.48548518 C68.78486387 155.66758385 68.78486387 155.66758385 67.95010525 154.83315927 C66.84499455 153.72849202 65.73988229 152.62382632 64.63476849 151.51916218 C64.08661171 150.97122683 63.53845493 150.42329148 62.97368734 149.85875203 C54.07241511 140.96143615 45.16439616 132.0709077 36.25348914 123.18324236 C27.08191368 114.03539426 17.91598773 104.88191712 8.75568527 95.72278041 C3.6212799 90.58929006 -1.51549652 85.45822413 -6.65853405 80.3333807 C-11.48929593 75.51965051 -16.31229644 70.69826186 -21.13015652 65.87161922 C-22.89763988 64.10336502 -24.66768606 62.33766818 -26.44048786 60.57474613 C-28.8623497 58.16559144 -31.27474881 55.74733398 -33.68504047 53.32661152 C-34.38600721 52.63370118 -35.08697395 51.94079085 -35.80918211 51.22688323 C-43.44106303 43.51768409 -48.03735806 36.02354051 -48.64184284 25.06481647 C-48.45652263 17.41373934 -45.23459769 9.15065319 -40.26684284 3.37731647 C-28.12111735 -6.74827808 -13.43588919 -8.80589179 0 0 Z " fill="#000000" transform="translate(90.26684284210205,223.62268352508545)"/>
<path d="M0 0 C12.42073048 7.41831743 22.84030909 20.62190105 32.99738407 30.77291584 C34.82334178 32.59423646 36.64949363 34.41536247 38.4758234 36.23631001 C43.40364012 41.15066426 48.3277856 46.06868561 53.25108695 50.98756289 C56.33016153 54.06385909 59.40996598 57.13942388 62.48989391 60.21486568 C71.0353295 68.74813329 79.57983542 77.28232934 88.12088776 85.81998444 C88.66518419 86.3640613 89.20948062 86.90813817 89.77027089 87.46870222 C90.31575672 88.01396977 90.86124254 88.55923732 91.42325824 89.12102813 C92.52836894 90.22569538 93.6334812 91.33036107 94.73859501 92.43502522 C95.56083017 93.25692824 95.56083017 93.25692824 96.39967615 94.09543536 C105.30094838 102.99275125 114.20896733 111.88327969 123.11987435 120.77094503 C132.29144981 129.91879313 141.45737577 139.07227027 150.61767823 148.23140699 C155.75208359 153.36489733 160.88886001 158.49596326 166.03189754 163.62080669 C170.86265942 168.43453688 175.68565994 173.25592554 180.50352001 178.08256817 C182.27100338 179.85082238 184.04104955 181.61651921 185.81385136 183.37944126 C188.2357132 185.78859595 190.6481123 188.20685342 193.05840397 190.62757587 C193.75937071 191.32048621 194.46033745 192.01339654 195.1825456 192.72730416 C202.81442653 200.43650331 207.41072156 207.93064688 208.01520634 218.88937092 C207.82988613 226.54044806 204.60796119 234.8035342 199.64020634 240.57687092 C192.95880658 246.14699063 185.73014968 249.13038466 177.07770634 249.88937092 C175.37614384 249.73468342 175.37614384 249.73468342 173.64020634 249.57687092 C172.62893681 249.4898592 172.62893681 249.4898592 171.59723759 249.40108967 C156.76214012 247.22177446 144.99968651 231.36119421 135.04523563 221.37008381 C133.18206705 219.51098512 131.31832401 217.6524788 129.45388126 215.79465961 C124.93578861 211.28984056 120.42576291 206.77702983 115.91866889 202.26120932 C112.25364007 198.58938079 108.58566374 194.92052074 104.9156065 191.25371838 C104.39151059 190.73008217 103.86741468 190.20644596 103.32743708 189.66694198 C102.262465 188.60292916 101.19748624 187.53892304 100.13250086 186.47492354 C90.16947648 176.52043393 80.21563315 166.55680482 70.2649546 156.58997618 C61.73890766 148.05051993 53.20501517 139.51897044 44.66535282 130.99313068 C34.72892761 121.07278158 24.79741463 111.14755655 14.8736251 101.21456617 C13.81433211 100.1543176 12.75503288 99.09407526 11.69572735 98.03383923 C11.17463553 97.51228459 10.65354372 96.99072995 10.11666125 96.45337062 C6.45573288 92.78985905 2.79134966 89.1298255 -0.87440586 85.47114468 C-5.81209981 80.54277175 -10.74172855 75.60645086 -15.6661005 70.66476727 C-17.47187966 68.85502916 -19.28020214 67.04782463 -21.09127331 65.24338245 C-23.56758549 62.77529851 -26.03442451 60.29810856 -28.49915218 57.81846333 C-29.21345199 57.11085568 -29.9277518 56.40324803 -30.66369706 55.67419773 C-38.58939484 47.65554054 -44.21089313 39.88542636 -44.73479366 28.32687092 C-44.55049417 19.94124395 -41.88675989 12.20564596 -36.06291866 6.07296467 C-26.17214911 -2.61548657 -12.24987011 -5.92221282 0 0 Z " fill="#000000" transform="translate(262.3597936630249,44.423129081726074)"/>
<path d="M0 0 C4.10444852 1.88948405 6.9114135 4.64372551 10.05371094 7.82666016 C10.9470388 8.71954994 10.9470388 8.71954994 11.8584137 9.63047791 C13.82184643 11.59530177 15.77810373 13.56711039 17.734375 15.5390625 C19.0958564 16.90427479 20.45778061 18.26904561 21.82012939 19.63339233 C25.40183824 23.22273159 28.9774999 26.8180368 32.55194092 30.41461182 C36.20157121 34.08471319 39.85688092 37.74914829 43.51171875 41.4140625 C50.68005329 48.60383652 57.842013 55.79992516 65 63 C63.58034233 66.22675015 61.87053341 68.37698922 59.38070679 70.85980225 C58.62909775 71.61416061 57.87748871 72.36851898 57.10310364 73.14573669 C56.27807846 73.96357132 55.45305328 74.78140594 54.60302734 75.62402344 C53.73466751 76.49267532 52.86630768 77.36132721 51.97163391 78.25630188 C49.59317713 80.63360473 47.21037174 83.00638497 44.8255229 85.37726498 C42.33287405 87.85740465 39.8458942 90.34321567 37.35830688 92.82843018 C32.64850647 97.53201638 27.93363139 102.23048141 23.21691096 106.92712712 C17.84663682 112.27504045 12.48204593 117.62863925 7.11792445 122.98272276 C-3.91507296 133.9948195 -14.95518427 144.99975596 -26 156 C-30.10444852 154.11051595 -32.9114135 151.35627449 -36.05371094 148.17333984 C-36.64926285 147.57807999 -37.24481476 146.98282013 -37.8584137 146.36952209 C-39.82184643 144.40469823 -41.77810373 142.43288961 -43.734375 140.4609375 C-45.0958564 139.09572521 -46.45778061 137.73095439 -47.82012939 136.36660767 C-51.40183824 132.77726841 -54.9774999 129.1819632 -58.55194092 125.58538818 C-62.20157121 121.91528681 -65.85688092 118.25085171 -69.51171875 114.5859375 C-76.68005329 107.39616348 -83.842013 100.20007484 -91 93 C-89.58034233 89.77324985 -87.87053341 87.62301078 -85.38070679 85.14019775 C-84.25329323 84.0086602 -84.25329323 84.0086602 -83.10310364 82.85426331 C-82.27807846 82.03642868 -81.45305328 81.21859406 -80.60302734 80.37597656 C-79.73466751 79.50732468 -78.86630768 78.63867279 -77.97163391 77.74369812 C-75.59317713 75.36639527 -73.21037174 72.99361503 -70.8255229 70.62273502 C-68.33287405 68.14259535 -65.8458942 65.65678433 -63.35830688 63.17156982 C-58.64850647 58.46798362 -53.93363139 53.76951859 -49.21691096 49.07287288 C-43.84663682 43.72495955 -38.48204593 38.37136075 -33.11792445 33.01727724 C-22.08492704 22.0051805 -11.04481573 11.00024404 0 0 Z " fill="#000000" transform="translate(269,178)"/>
</svg>
