<?xml version="1.0" encoding="UTF-8"?>
<svg version="1.1" xmlns="http://www.w3.org/2000/svg" width="512" height="512">
<path d="M0 0 C1.5498056 -0.0099852 1.5498056 -0.0099852 3.13092041 -0.02017212 C5.31284817 -0.03027459 7.49480669 -0.03498989 9.67675781 -0.03466797 C12.99076144 -0.03902978 16.30342018 -0.07534487 19.6171875 -0.11328125 C21.74478715 -0.1191524 23.87239308 -0.12311979 26 -0.125 C27.46925934 -0.14655655 27.46925934 -0.14655655 28.96820068 -0.16854858 C38.05181265 -0.10914235 46.00313971 2.34609274 52.734375 8.6328125 C59.40084059 16.04755484 61.59620115 23.58288643 61.36230469 33.37963867 C61.33652759 35.22405214 61.31096372 37.0684686 61.2855835 38.91288757 C61.26868217 39.88455053 61.25178085 40.85621349 61.23436737 41.85732079 C61.15409059 47.03284362 61.13904149 52.20873549 61.11328125 57.38476562 C61.07767057 63.95819269 61.02271949 70.52950995 60.89208984 77.10180664 C60.78797759 82.4263381 60.75293677 87.74750091 60.76303864 93.07299232 C60.75441867 95.0932868 60.72093773 97.11364403 60.66133881 99.13307762 C60.03274894 109.68251893 60.03274894 109.68251893 63.64027977 119.25167084 C67.3766587 123.06258946 71.67320749 125.67352361 76.265625 128.3359375 C77.7816946 129.4632033 79.28451058 130.60941065 80.75390625 131.796875 C82.02800741 132.76906642 83.3027392 133.74043198 84.578125 134.7109375 C85.27687744 135.24493164 85.97562988 135.77892578 86.69555664 136.32910156 C90.37909809 139.14304929 94.07109862 141.94520495 97.7734375 144.734375 C121.32494999 162.51391248 121.32494999 162.51391248 125.265625 174.3359375 C126.15695813 186.39085279 125.02600062 195.15807392 117.140625 204.6484375 C111.97428111 210.08849497 106.30822993 212.98840252 99.265625 215.3359375 C94.975625 215.3359375 90.685625 215.3359375 86.265625 215.3359375 C85.935625 265.8259375 85.605625 316.3159375 85.265625 368.3359375 C90.875625 368.3359375 96.485625 368.3359375 102.265625 368.3359375 C112.46818063 372.08970797 118.53321163 377.15352828 123.140625 387.0234375 C126.38126037 396.56530832 126.31071713 406.71486546 122.078125 415.91796875 C117.46185113 424.28496513 111.32598477 429.24270872 102.265625 432.3359375 C98.93500024 432.715437 98.93500024 432.715437 95.40950489 432.72184086 C94.7533109 432.72709997 94.0971169 432.73235908 93.42103824 432.73777756 C91.23067919 432.75169075 89.04092346 432.7443793 86.85054016 432.73707581 C85.26087321 432.74268317 83.67121039 432.7495865 82.08155411 432.75767177 C77.71948184 432.77600804 73.3575822 432.77562714 68.99548018 432.77208865 C64.28841791 432.77147617 59.58141088 432.78803736 54.87437439 432.80226135 C45.65432147 432.82717354 36.43432608 432.83542556 27.21424232 432.83709849 C19.7183172 432.83852444 12.22241105 432.84469103 4.72649193 432.85420036 C-16.53165867 432.88061908 -37.78976385 432.89445879 -59.04793098 432.89220894 C-60.19380077 432.89208907 -61.33967056 432.8919692 -62.52026367 432.8918457 C-64.24117027 432.89166174 -64.24117027 432.89166174 -65.99684266 432.89147406 C-84.58609932 432.89025495 -103.17517359 432.91895675 -121.7643775 432.9612608 C-140.85735958 433.00436797 -159.95025274 433.02507045 -179.04328471 433.02247947 C-189.76024979 433.02148405 -200.47702372 433.02970371 -211.19394493 433.06201363 C-220.31954489 433.08934981 -229.44486706 433.09583744 -238.57049026 433.07548536 C-243.2242574 433.06569964 -247.8774918 433.06548195 -252.53120804 433.0915451 C-256.79710698 433.11518995 -261.06205227 433.11079827 -265.3279284 433.08469271 C-266.86561185 433.08009832 -268.40336705 433.0854967 -269.94096585 433.10227294 C-279.65442934 433.20117782 -287.5796151 432.04275723 -295.734375 426.3359375 C-303.11236929 418.90537215 -306.40921615 410.94750082 -306.921875 400.5234375 C-306.72259262 390.97599972 -303.82039326 382.24657582 -296.80859375 375.4765625 C-288.29145346 368.79515536 -281.42432993 367.91280888 -270.796875 368.1484375 C-269.63607422 368.16197266 -268.47527344 368.17550781 -267.27929688 368.18945312 C-264.43078816 368.2246199 -261.58252009 368.27842073 -258.734375 368.3359375 C-258.734375 363.0559375 -258.734375 357.7759375 -258.734375 352.3359375 C-260.714375 352.0059375 -262.694375 351.6759375 -264.734375 351.3359375 C-267.20649353 347.62775971 -267.10168492 344.6933474 -267.109375 340.3984375 C-267.13386719 339.68236328 -267.15835938 338.96628906 -267.18359375 338.22851562 C-267.20295678 334.74639804 -266.99477037 332.70358823 -264.9609375 329.83203125 C-262.734375 328.3359375 -262.734375 328.3359375 -258.734375 328.3359375 C-258.734375 323.0559375 -258.734375 317.7759375 -258.734375 312.3359375 C-260.714375 312.0059375 -262.694375 311.6759375 -264.734375 311.3359375 C-267.35631152 307.40303272 -267.04173666 304.02478072 -267.05322266 299.45825195 C-267.06326828 298.55073181 -267.0733139 297.64321167 -267.08366394 296.70819092 C-267.11458202 293.70520671 -267.13155506 290.70231199 -267.1484375 287.69921875 C-267.16714221 285.61841558 -267.18671509 283.53762005 -267.2071228 281.45683289 C-267.25852365 275.97749326 -267.29810682 270.49812901 -267.33526611 265.01867676 C-267.37525593 259.42840446 -267.42637115 253.83823525 -267.4765625 248.24804688 C-267.57341595 237.27741608 -267.65779058 226.30672719 -267.734375 215.3359375 C-268.61262939 215.35261475 -269.49088379 215.36929199 -270.39575195 215.38647461 C-271.55550537 215.3994458 -272.71525879 215.41241699 -273.91015625 215.42578125 C-275.05653564 215.4424585 -276.20291504 215.45913574 -277.3840332 215.47631836 C-286.16293342 215.10847841 -292.30591226 210.7636757 -298.53125 204.8515625 C-305.4693361 196.92935071 -307.21616057 188.40248437 -307.0078125 178.13671875 C-306.3183164 168.55272301 -300.81706729 161.84482919 -293.80102539 155.62084961 C-291.74566008 153.96244869 -289.65851853 152.35952479 -287.546875 150.7734375 C-286.77150391 150.18046875 -285.99613281 149.5875 -285.19726562 148.9765625 C-282.71758277 147.08558133 -280.22790243 145.20861764 -277.734375 143.3359375 C-276.49953369 142.4080542 -276.49953369 142.4080542 -275.23974609 141.46142578 C-271.89764243 138.95304839 -268.55346834 136.4474903 -265.20507812 133.94750977 C-258.8486069 129.19554284 -252.56858201 124.35290984 -246.31469727 119.46704102 C-239.19722374 113.90732452 -232.02484299 108.42134191 -224.84326172 102.94482422 C-221.30450619 100.24507903 -217.76964777 97.54024061 -214.234375 94.8359375 C-212.81772681 93.75258 -211.40106015 92.66924666 -209.984375 91.5859375 C-209.283125 91.0496875 -208.581875 90.5134375 -207.859375 89.9609375 C-194.40104167 79.66927083 -180.94270833 69.37760417 -167.484375 59.0859375 C-166.43237915 58.28144165 -166.43237915 58.28144165 -165.35913086 57.46069336 C-163.94335192 56.37807715 -162.52749912 55.29555752 -161.11157227 54.21313477 C-157.55570961 51.49461909 -154.00117181 48.77440365 -150.44921875 46.05078125 C-146.91856057 43.34374214 -143.38155346 40.64513949 -139.84277344 37.94873047 C-137.70900315 36.31652962 -135.58476191 34.67245716 -133.4609375 33.02734375 C-116.42865342 19.9161468 -101.46017488 14.32340024 -79.734375 16.3359375 C-69.65818984 17.93550469 -61.51581626 22.84769848 -53.52636719 28.96484375 C-51.48753338 30.52480161 -49.42851796 32.05584083 -47.3671875 33.5859375 C-43.47389843 36.48221138 -39.60017568 39.40309 -35.734375 42.3359375 C-35.70859375 41.15257812 -35.6828125 39.96921875 -35.65625 38.75 C-35.29655822 27.38061211 -34.56566959 17.57007615 -26.4375 8.8671875 C-18.47890575 1.71175413 -10.44380987 0.02353601 0 0 Z " fill="#15152B" transform="translate(346.734375,39.6640625)"/>
<path d="M0 0 C2.97556083 1.38976292 5.51113476 3.01044833 8.1328125 4.984375 C9.32813599 5.8818042 9.32813599 5.8818042 10.54760742 6.79736328 C11.39814697 7.4417334 12.24868652 8.08610352 13.125 8.75 C14.01227783 9.4188623 14.89955566 10.08772461 15.8137207 10.77685547 C23.13555011 16.31104619 30.38517977 21.93520734 37.6171875 27.5859375 C42.70132822 31.5548766 47.8249127 35.47140679 52.95336914 39.3828125 C56.66072395 42.21043397 60.36042065 45.04702795 64.04516602 47.90405273 C66.12831088 49.51397508 68.22400736 51.10733961 70.31835938 52.70263672 C72.19182062 54.14798705 74.03989229 55.62333606 75.890625 57.09765625 C77.21814708 58.12838117 78.54626155 59.15834362 79.875 60.1875 C80.78499756 60.9292749 80.78499756 60.9292749 81.71337891 61.68603516 C85.06228014 64.24068696 86.33063421 65.03608632 90.6953125 64.80078125 C91.78585937 64.53652344 92.87640625 64.27226562 94 64 C98.81502319 64 99.99268419 65.13728319 103.75 68 C104.73484375 68.7425 105.7196875 69.485 106.734375 70.25 C107.48203125 70.8275 108.2296875 71.405 109 72 C108.731875 73.216875 108.46375 74.43375 108.1875 75.6875 C107.73694699 79.28557826 107.77159336 79.70441494 110.125 82.75 C111.07375 83.4925 112.0225 84.235 113 85 C114.2065625 86.1446875 114.2065625 86.1446875 115.4375 87.3125 C118.61573829 89.40548619 120.25612397 89.4679845 124 89 C125.67753406 88.36117162 127.34635092 87.69833154 129 87 C139.59911027 94.43314227 139.59911027 94.43314227 140.5546875 98.16796875 C140.38162257 100.1130681 140.19115459 102.05659503 140 104 C142.57471295 107.91434177 144.6545193 110.02442869 148.93334961 111.9085083 C154.09922592 114.33487008 158.03721293 117.01567448 161 122 C163.88424144 133.05049376 162.91392544 145.01670255 162.62230301 156.33309841 C162.52172731 160.89708246 162.51284124 165.46126287 162.49389648 170.02618408 C162.44432298 178.65468471 162.31325758 187.27991055 162.15230465 195.90697408 C161.93937548 207.57530908 161.85353239 219.24455086 161.76026917 230.91434097 C161.61017834 249.27867651 161.29136194 267.63610421 161 286 C131.96 286 102.92 286 73 286 C72.96261719 277.18796875 72.92523438 268.3759375 72.88671875 259.296875 C72.85257289 252.98823457 72.81657794 246.67962582 72.77792263 240.37101364 C72.72815367 232.20862233 72.68267915 224.04628299 72.65356445 215.88378906 C72.63049061 209.41881934 72.59698918 202.95399922 72.55129844 196.48914838 C72.52749176 193.07042856 72.50868127 189.65185574 72.50238609 186.23305511 C72.49270473 182.4035213 72.4645957 178.57451886 72.43237305 174.74511719 C72.43380814 173.62876892 72.43524323 172.51242065 72.4367218 171.36224365 C72.28822315 158.80963492 69.65431557 147.62194535 61.25390625 138 C52.87397471 129.91624068 41.92576758 126.87803468 30.55444336 126.80712891 C29.82196381 126.79895142 29.08948425 126.79077393 28.33480835 126.78234863 C25.91982816 126.75761751 23.50490647 126.74100621 21.08984375 126.7265625 C20.25989962 126.72123882 19.42995548 126.71591515 18.57486153 126.71043015 C14.17792818 126.68374602 9.78102269 126.66435998 5.3840332 126.64990234 C1.76528464 126.63659573 -1.85289568 126.6087974 -5.47143555 126.56787109 C-9.86042218 126.51824626 -14.24889605 126.49374496 -18.63815117 126.48667526 C-20.300151 126.48001096 -21.96214158 126.46491659 -23.62397957 126.44078445 C-37.13131705 126.25589875 -48.77007581 128.32180205 -59 138 C-67.85712794 147.36204735 -70.75352193 158.52590016 -70.65942383 171.11230469 C-70.66990753 172.36251404 -70.68039124 173.61272339 -70.69119263 174.90081787 C-70.71485384 178.28888438 -70.71691965 181.6756047 -70.70889878 185.06365108 C-70.70574923 188.61912571 -70.73087902 192.17440526 -70.75285339 195.72979736 C-70.79013582 202.4443015 -70.80243195 209.15860318 -70.8054778 215.87320065 C-70.81106835 224.95939627 -70.85581133 234.04539678 -70.89821911 243.13148117 C-70.96389303 257.42103657 -70.97773537 271.71015824 -71 286 C-102.68 286 -134.36 286 -167 286 C-167 280.72 -167 275.44 -167 270 C-168.98 269.67 -170.96 269.34 -173 269 C-175.47211853 265.29182221 -175.36730992 262.3574099 -175.375 258.0625 C-175.41173828 256.98838867 -175.41173828 256.98838867 -175.44921875 255.89257812 C-175.46858178 252.41046054 -175.26039537 250.36765073 -173.2265625 247.49609375 C-171 246 -171 246 -167 246 C-167 240.72 -167 235.44 -167 230 C-165.02 229.01 -163.04 228.02 -161 227 C-160.07228678 224.21686035 -159.89683417 222.71551805 -159.96290588 219.86112976 C-159.97912994 219.01899429 -159.995354 218.17685883 -160.0120697 217.3092041 C-160.03459305 216.38820923 -160.05711639 215.46721436 -160.08032227 214.51831055 C-160.11974172 212.50145644 -160.15823642 210.4845841 -160.19593811 208.46769714 C-160.21683062 207.39620108 -160.23772312 206.32470501 -160.25924873 205.22073936 C-160.37718289 198.34159308 -160.41362587 191.46147264 -160.45933628 184.58153057 C-160.50398244 178.54266971 -160.58095957 172.50770766 -160.73022461 166.47045898 C-160.8731458 160.62384676 -160.92662232 154.78231663 -160.92103386 148.93403053 C-160.93448848 146.71509603 -160.97947255 144.49610257 -161.05777168 142.27850914 C-161.62595855 125.40927974 -161.62595855 125.40927974 -157.228405 119.69993973 C-152.96930709 115.532153 -148.20900402 112.30599923 -143.10117626 109.26898956 C-140.4158553 107.64721021 -137.96334417 105.78217692 -135.5 103.84375 C-134.00096566 102.72786826 -132.50099019 101.61324951 -131 100.5 C-123.79456278 95.12533131 -116.66389034 89.66516529 -109.58032227 84.13110352 C-102.46284874 78.57138702 -95.29046799 73.08540441 -88.10888672 67.60888672 C-84.57013119 64.90914153 -81.03527277 62.20430311 -77.5 59.5 C-76.08335181 58.4166425 -74.66668515 57.33330916 -73.25 56.25 C-72.54875 55.71375 -71.8475 55.1775 -71.125 54.625 C-30.75 23.75 -30.75 23.75 -28.62109375 22.12207031 C-27.21737386 21.04859944 -25.81372692 19.97503316 -24.41015625 18.90136719 C-20.6710249 16.04131467 -16.93030552 13.18336812 -13.1875 10.328125 C-12.40310547 9.72935547 -11.61871094 9.13058594 -10.81054688 8.51367188 C-9.29668462 7.35812021 -7.78237786 6.20315058 -6.26757812 5.04882812 C-5.59146484 4.53255859 -4.91535156 4.01628906 -4.21875 3.484375 C-3.61998047 3.02772461 -3.02121094 2.57107422 -2.40429688 2.10058594 C-1.02475304 1.06487506 -1.02475304 1.06487506 0 0 Z " fill="#CB7929" transform="translate(255,122)"/>
<path d="M0 0 C0 36.96 0 73.92 0 112 C-13.2 112.33 -26.4 112.66 -40 113 C-54.17054033 118.9043918 -62.3986239 123.60861159 -68.63456726 137.45391846 C-71.33602068 144.10723085 -71.71263308 149.99512401 -71.65942383 157.11230469 C-71.66990753 158.36251404 -71.68039124 159.61272339 -71.69119263 160.90081787 C-71.71485384 164.28888438 -71.71691965 167.6756047 -71.70889878 171.06365108 C-71.70574923 174.61912571 -71.73087902 178.17440526 -71.75285339 181.72979736 C-71.79013582 188.4443015 -71.80243195 195.15860318 -71.8054778 201.87320065 C-71.81106835 210.95939627 -71.85581133 220.04539678 -71.89821911 229.13148117 C-71.96389303 243.42103657 -71.97773537 257.71015824 -72 272 C-103.68 272 -135.36 272 -168 272 C-168 266.72 -168 261.44 -168 256 C-169.98 255.67 -171.96 255.34 -174 255 C-176.47211853 251.29182221 -176.36730992 248.3574099 -176.375 244.0625 C-176.39949219 243.34642578 -176.42398438 242.63035156 -176.44921875 241.89257812 C-176.46858178 238.41046054 -176.26039537 236.36765073 -174.2265625 233.49609375 C-172 232 -172 232 -168 232 C-168 226.72 -168 221.44 -168 216 C-166.02 215.01 -164.04 214.02 -162 213 C-160.73479371 209.20438114 -160.93618447 205.70368253 -161.0168457 201.75585938 C-161.04294101 200.01233795 -161.06840878 198.26880704 -161.09333801 196.52526855 C-161.1077424 195.60011948 -161.1221468 194.6749704 -161.13698769 193.7217865 C-161.21704738 187.78227724 -161.22930177 181.84217044 -161.25208759 175.90221405 C-161.27592143 170.68786732 -161.32475898 165.47610999 -161.4284668 160.26269531 C-161.52755865 155.21381606 -161.55744754 150.16862811 -161.54152489 145.11885071 C-161.54764345 143.20184982 -161.5783309 141.2847533 -161.63485146 139.36857605 C-162.04430535 124.78487924 -162.04430535 124.78487924 -158.62380028 120.12525558 C-155.34526784 116.82049951 -151.65766446 114.32397131 -147.65037537 111.98532486 C-145.46020182 110.67772388 -143.49543973 109.13808195 -141.51171875 107.5390625 C-140.23772228 106.56673389 -138.96299045 105.59536799 -137.6875 104.625 C-136.24346946 103.52346388 -134.79945965 102.42190058 -133.35546875 101.3203125 C-132.63536621 100.77149414 -131.91526367 100.22267578 -131.17333984 99.65722656 C-127.6125753 96.9420536 -124.05649684 94.22075902 -120.5 91.5 C-119.08335644 90.41663645 -117.66668976 89.33330314 -116.25 88.25 C-115.54875 87.71375 -114.8475 87.1775 -114.125 86.625 C-106.33333333 80.66666667 -98.54166667 74.70833333 -90.75 68.75 C-89.6986084 67.94598755 -89.6986084 67.94598755 -88.62597656 67.12573242 C-87.20607316 66.03993353 -85.78615122 64.95415888 -84.36621094 63.8684082 C-80.87391567 61.19799415 -77.38191954 58.52719105 -73.890625 55.85546875 C-65.20420453 49.20904096 -56.50794198 42.5756643 -47.80664062 35.94873047 C-40.91685273 30.70063013 -34.0341428 25.44336419 -27.15625 20.1796875 C-24.2203216 17.93283216 -21.28255434 15.68840486 -18.34375 13.4453125 C-17.57514648 12.85838623 -16.80654297 12.27145996 -16.01464844 11.66674805 C-14.54949158 10.54797853 -13.08401786 9.42962379 -11.61816406 8.31176758 C-8.74254877 6.11521409 -5.88831413 3.90936722 -3.078125 1.62890625 C-1 0 -1 0 0 0 Z " fill="#FE9732" transform="translate(256,136)"/>
<path d="M0 0 C16.89061457 -0.74165588 29.33722376 10.04385859 41.73828125 20.13671875 C45.18248738 22.93958995 48.67137289 25.67718376 52.1953125 28.37890625 C52.72914551 28.78818359 53.26297852 29.19746094 53.81298828 29.61914062 C58.26210814 33.01956852 62.74575234 36.37333827 67.23046875 39.7265625 C73.28981122 44.27153791 79.28988106 48.89516188 85.30224609 53.50195312 C88.86900682 56.23407447 92.43851609 58.96259897 96.0078125 61.69140625 C97.42449303 62.77472145 98.84115968 63.8580548 100.2578125 64.94140625 C100.9590625 65.47765625 101.6603125 66.01390625 102.3828125 66.56640625 C121.5078125 81.19140625 140.6328125 95.81640625 159.7578125 110.44140625 C160.45970703 110.97813965 161.16160156 111.51487305 161.88476562 112.06787109 C163.29495887 113.14627324 164.70511539 114.22472341 166.11523438 115.30322266 C170.50634129 118.6615461 174.89882183 122.01806246 179.29248047 125.37304688 C181.44163487 127.01582128 183.58810353 128.66205569 185.734375 130.30859375 C187.96690032 132.01986378 190.20890968 133.71121709 192.46875 135.38671875 C199.91991199 140.9570049 199.91991199 140.9570049 201.5078125 145.19140625 C202.1140898 150.64790193 201.09373655 154.37623733 198.5078125 159.19140625 C192.68428309 165.74287684 192.68428309 165.74287684 188.1953125 166.66796875 C179.41774038 167.15277651 174.99115234 163.62226814 168.5078125 158.19140625 C166.3743964 156.436942 164.23123152 154.69792747 162.06884766 152.97924805 C160.59617961 151.80830905 159.13800896 150.61884548 157.69677734 149.40942383 C154.23609717 146.64926478 151.69453829 144.81523608 147.17578125 144.69140625 C143.42575369 144.93033097 143.42575369 144.93033097 140.5078125 147.19140625 C135.0628125 142.73640625 135.0628125 142.73640625 129.5078125 138.19140625 C127.8578125 138.85140625 126.2078125 139.51140625 124.5078125 140.19140625 C120.83143559 140.62023658 119.03398188 140.48038658 115.76953125 138.6875 C108.79357411 133.10885142 108.79357411 133.10885142 107.3203125 128.37890625 C107.5078125 125.19140625 107.5078125 125.19140625 108.5078125 122.19140625 C104.5478125 119.22140625 100.5878125 116.25140625 96.5078125 113.19140625 C96.93098958 111.27083333 97.35416667 109.35026042 97.77734375 107.4296875 C97.21306635 102.74373172 92.12964852 99.84680335 88.64453125 97.0625 C87.16449983 95.9140384 85.68126252 94.76969965 84.1953125 93.62890625 C83.40060547 93.01466797 82.60589844 92.40042969 81.78710938 91.76757812 C76.08102377 87.36885342 70.32661038 83.03705578 64.54956055 78.73217773 C58.70881026 74.36980657 52.96238392 69.89139552 47.21875 65.40234375 C41.72317286 61.11541588 36.16843917 56.91627191 30.57763672 52.75463867 C24.40256895 48.14456995 18.32814064 43.40825093 12.26953125 38.64648438 C11.54636719 38.07994141 10.82320312 37.51339844 10.078125 36.9296875 C9.43633301 36.42477783 8.79454102 35.91986816 8.13330078 35.3996582 C4.861236 32.96747908 2.55983264 32.80830616 -1.4921875 33.19140625 C-4.34915201 34.77923252 -4.34915201 34.77923252 -7.0546875 37.06640625 C-7.5700708 37.4727832 -8.0854541 37.87916016 -8.61645508 38.29785156 C-9.70539241 39.1569076 -10.78989128 40.02161663 -11.87011719 40.89160156 C-14.44031098 42.95116083 -17.06312601 44.94127779 -19.6796875 46.94140625 C-20.77249426 47.78338863 -21.86493088 48.62585159 -22.95703125 49.46875 C-26.87738031 52.49098677 -30.80932706 55.4979781 -34.7421875 58.50390625 C-35.81666138 59.3252002 -35.81666138 59.3252002 -36.9128418 60.16308594 C-38.37610086 61.28146308 -39.83939861 62.39978963 -41.30273438 63.51806641 C-44.86647742 66.24173889 -48.42929381 68.96662288 -51.9921875 71.69140625 C-53.40884954 72.77474563 -54.82551622 73.85807896 -56.2421875 74.94140625 C-56.9434375 75.47765625 -57.6446875 76.01390625 -58.3671875 76.56640625 C-83.15885417 95.52473958 -107.95052083 114.48307292 -132.7421875 133.44140625 C-133.79442505 134.2461438 -133.79442505 134.2461438 -134.86791992 135.06713867 C-136.28192339 136.14832073 -137.69614803 137.22921359 -139.1105957 138.30981445 C-142.69489596 141.04871025 -146.27498429 143.79282378 -149.84765625 146.546875 C-153.37814958 149.26791687 -156.92762791 151.96283736 -160.48291016 154.65136719 C-162.43968195 156.15116263 -164.36328813 157.68633498 -166.28515625 159.23046875 C-172.24007056 163.90904402 -177.18585025 167.62742869 -185.15234375 166.78515625 C-190.17137403 165.51154589 -192.69793325 163.22179014 -195.8046875 159.19140625 C-198.49119201 154.41539823 -198.96766944 150.70699673 -198.4921875 145.19140625 C-195.54016712 139.69610677 -191.53655825 136.58064517 -186.5546875 132.94140625 C-185.01415755 131.79058591 -183.47379436 130.63954231 -181.93359375 129.48828125 C-181.17578613 128.92689453 -180.41797852 128.36550781 -179.63720703 127.78710938 C-176.72803913 125.62294805 -173.85993772 123.41019656 -170.9921875 121.19140625 C-163.90155281 115.73232307 -156.79182592 110.29832825 -149.68164062 104.86474609 C-146.11789758 102.14107361 -142.55508119 99.41618962 -138.9921875 96.69140625 C-137.57552546 95.60806687 -136.15885878 94.52473354 -134.7421875 93.44140625 C-134.0409375 92.90515625 -133.3396875 92.36890625 -132.6171875 91.81640625 C-107.82552083 72.85807292 -83.03385417 53.89973958 -58.2421875 34.94140625 C-57.54037354 34.40467285 -56.83855957 33.86793945 -56.11547852 33.31494141 C-54.70471187 32.23622481 -53.29374314 31.15777245 -51.88256836 30.07958984 C-48.24889372 27.30279908 -44.61929208 24.52091901 -40.99609375 21.73046875 C-14.17233104 1.08847057 -14.17233104 1.08847057 0 0 Z " fill="#323265" transform="translate(254.4921875,71.80859375)"/>
<path d="M0 0 C0.70964401 -0.00511093 1.41928802 -0.01022186 2.1504364 -0.01548767 C4.48734059 -0.02934277 6.82394838 -0.02842963 9.16088867 -0.02612305 C10.79367684 -0.03001301 12.42646401 -0.0343483 14.05924988 -0.03910828 C17.47963746 -0.04656229 20.89992181 -0.04628574 24.3203125 -0.04101562 C28.68809404 -0.03523048 33.05545022 -0.05213264 37.42316151 -0.0753603 C40.7956537 -0.0901466 44.16804471 -0.09096256 47.54056358 -0.08785057 C49.14999927 -0.0883616 50.75944094 -0.09355814 52.36884499 -0.10366249 C71.47381813 -0.2088692 71.47381813 -0.2088692 79.01635742 6.4621582 C79.64026367 6.99196289 80.26416992 7.52176758 80.90698242 8.06762695 C86.95916573 15.25141596 87.3337565 21.69379691 87.22045898 30.74926758 C87.22104309 31.97938568 87.2216272 33.20950378 87.222229 34.47689819 C87.2199302 37.82795051 87.1999601 41.1780003 87.17193317 44.52887535 C87.1468189 48.03887311 87.14456967 51.54888621 87.13983154 55.05895996 C87.12743103 61.6957732 87.09464951 68.33232087 87.05443358 74.96901751 C87.00522339 83.27136747 86.98341702 91.57376115 86.96166992 99.8762207 C86.92278394 114.67590641 86.84264425 129.47501315 86.76635742 144.2746582 C49.80635742 144.2746582 12.84635742 144.2746582 -25.23364258 144.2746582 C-25.39429725 113.10765153 -25.39429725 113.10765153 -25.43465805 97.69897842 C-25.45681297 89.36961992 -25.48492828 81.04042187 -25.53540039 72.71118164 C-25.57534585 66.11595942 -25.60109374 59.52085835 -25.60999656 52.92551851 C-25.61519837 49.43525471 -25.62737095 45.94533738 -25.65656281 42.45518494 C-25.68893311 38.55314784 -25.68959704 34.65144563 -25.68774414 30.74926758 C-25.70212524 29.59983673 -25.71650635 28.45040588 -25.73132324 27.2661438 C-25.69038201 19.29047744 -24.4848051 13.93875908 -19.05004883 7.8137207 C-17.93436523 6.86625977 -17.93436523 6.86625977 -16.79614258 5.8996582 C-16.05493164 5.25254883 -15.3137207 4.60543945 -14.55004883 3.9387207 C-9.79742943 0.52452869 -5.79913166 0.02088441 0 0 Z " fill="#ECF3F4" transform="translate(225.233642578125,263.725341796875)"/>
<path d="M0 0 C0.64333074 -0.00581376 1.28666148 -0.01162753 1.94948709 -0.01761746 C4.10224239 -0.03219961 6.25385424 -0.01834208 8.40660095 -0.00457001 C9.96668359 -0.00917967 11.52676188 -0.01553302 13.08683109 -0.02347898 C17.37160444 -0.04018663 21.6560217 -0.0319195 25.94079638 -0.01953411 C30.56255037 -0.0104918 35.18424271 -0.02444928 39.8059845 -0.0354538 C48.85909248 -0.05325235 57.91206791 -0.04939308 66.96518111 -0.03780323 C74.32197773 -0.02877445 81.67873716 -0.02754251 89.03553772 -0.0318985 C90.60534963 -0.0328179 90.60534963 -0.0328179 92.20687491 -0.03375587 C94.33281733 -0.03503475 96.45875974 -0.03633161 98.58470213 -0.03764623 C118.52574304 -0.04905595 138.46671043 -0.03593218 158.40773928 -0.01444477 C175.52287518 0.00342656 192.63790256 0.00032256 209.7530365 -0.01811981 C229.62208945 -0.0395196 249.49107794 -0.04795728 269.3601408 -0.03567076 C271.47831916 -0.03439654 273.59649753 -0.03313906 275.7146759 -0.0318985 C277.27800513 -0.03097285 277.27800513 -0.03097285 278.87291676 -0.03002849 C286.22197996 -0.02657292 293.57100232 -0.03240841 300.9200592 -0.04181671 C309.87454453 -0.05302816 318.82888958 -0.05001462 327.78335881 -0.02869374 C332.35322368 -0.01817183 336.92285454 -0.01408089 341.49271774 -0.02729034 C345.67491215 -0.0391965 349.85665532 -0.03268126 354.0388087 -0.01138014 C355.55285345 -0.00690651 357.0669362 -0.00919743 358.58095658 -0.01888329 C360.6379188 -0.03103465 362.69333238 -0.01858798 364.75021362 0 C365.89295714 0.00064941 367.03570066 0.00129882 368.21307278 0.00196791 C373.22669712 0.79696709 376.31810005 3.39072587 379.75010681 7.00336456 C382.14814257 12.16836465 382.12892217 16.90359336 381.37510681 22.50336456 C379.0635773 27.4820435 376.08328778 29.79979406 371.37510681 32.50336456 C368.21307278 33.00476122 368.21307278 33.00476122 364.75021362 33.00672913 C363.78521751 33.01544977 363.78521751 33.01544977 362.80072653 33.02434659 C360.64797123 33.03892874 358.49635938 33.02507121 356.34361267 33.01129913 C354.78353003 33.01590879 353.22345174 33.02226215 351.66338253 33.03020811 C347.37860919 33.04691576 343.09419192 33.03864862 338.80941725 33.02626324 C334.18766325 33.01722092 329.56597091 33.0311784 324.94422913 33.04218292 C315.89112114 33.05998148 306.83814572 33.0561222 297.78503251 33.04453236 C290.4282359 33.03550357 283.07147647 33.03427164 275.7146759 33.03862762 C274.144864 33.03954702 274.144864 33.03954702 272.54333872 33.04048499 C270.4173963 33.04176388 268.29145389 33.04306073 266.16551149 33.04437536 C246.22447058 33.05578507 226.28350319 33.04266131 206.34247434 33.02117389 C189.22733844 33.00330257 172.11231106 33.00640656 154.99717712 33.02484894 C135.12812418 33.04624873 115.25913569 33.0546864 95.39007282 33.04239988 C93.27189446 33.04112567 91.1537161 33.03986819 89.03553772 33.03862762 C87.4722085 33.03770197 87.4722085 33.03770197 85.87729686 33.03675762 C78.52823366 33.03330205 71.1792113 33.03913753 63.83015442 33.04854584 C54.87566909 33.05975729 45.92132404 33.05674375 36.96685481 33.03542286 C32.39698995 33.02490095 27.82735908 33.02081002 23.25749588 33.03401947 C19.07530148 33.04592563 14.8935583 33.03941038 10.71140492 33.01810926 C9.19736017 33.01363563 7.68327742 33.01592655 6.16925704 33.02561241 C4.11229482 33.03776377 2.05688125 33.02531711 0 33.00672913 C-1.14274352 33.00607972 -2.28548704 33.00543031 -3.46285915 33.00476122 C-8.47648349 32.20976203 -11.56788643 29.61600326 -14.99989319 26.00336456 C-17.39792894 20.83836448 -17.37870854 16.10313576 -16.62489319 10.50336456 C-13.28750933 3.31515317 -7.83390837 0.00445193 0 0 Z " fill="#323265" transform="translate(73.62489318847656,423.4966354370117)"/>
<path d="M0 0 C0 10.56 0 21.12 0 32 C-1.98 32.99 -3.96 33.98 -6 35 C-7.30512789 35.89832247 -8.58211918 36.83958094 -9.8203125 37.828125 C-10.50996094 38.37275391 -11.19960937 38.91738281 -11.91015625 39.47851562 C-12.64105469 40.06310547 -13.37195313 40.64769531 -14.125 41.25 C-15.73054177 42.5171838 -17.33735916 43.7827527 -18.9453125 45.046875 C-20.19103027 46.02624023 -20.19103027 46.02624023 -21.46191406 47.02539062 C-25.59721727 50.24262151 -29.79819697 53.37043197 -34 56.5 C-41.20443741 61.87603062 -48.33608061 67.33481202 -55.41967773 72.86889648 C-62.53715126 78.42861298 -69.70953201 83.91459559 -76.89111328 89.39111328 C-80.42986881 92.09085847 -83.96472723 94.79569689 -87.5 97.5 C-88.91664819 98.5833575 -90.33331485 99.66669084 -91.75 100.75 C-92.45125 101.28625 -93.1525 101.8225 -93.875 102.375 C-114.0625 117.8125 -114.0625 117.8125 -134.25 133.25 C-135.30223755 134.05473755 -135.30223755 134.05473755 -136.37573242 134.87573242 C-137.78973589 135.95691448 -139.20396053 137.03780734 -140.6184082 138.1184082 C-144.20270846 140.857304 -147.78279679 143.60141753 -151.35546875 146.35546875 C-154.88596208 149.07651062 -158.43544041 151.77143111 -161.99072266 154.45996094 C-163.94749445 155.95975638 -165.87110063 157.49492873 -167.79296875 159.0390625 C-173.74788306 163.71763777 -178.69366275 167.43602244 -186.66015625 166.59375 C-191.67918653 165.32013964 -194.20574575 163.03038389 -197.3125 159 C-199.99900451 154.22399198 -200.47548194 150.51559048 -200 145 C-197.04797962 139.50470052 -193.04437075 136.38923892 -188.0625 132.75 C-186.52197005 131.59917966 -184.98160686 130.44813606 -183.44140625 129.296875 C-182.68359863 128.73548828 -181.92579102 128.17410156 -181.14501953 127.59570312 C-178.23585163 125.4315418 -175.36775022 123.21879031 -172.5 121 C-165.40936531 115.54091682 -158.29963842 110.106922 -151.18945312 104.67333984 C-147.62571008 101.94966736 -144.06289369 99.22478337 -140.5 96.5 C-139.08333796 95.41666062 -137.66667128 94.33332729 -136.25 93.25 C-135.54875 92.71375 -134.8475 92.1775 -134.125 91.625 C-109.33333333 72.66666667 -84.54166667 53.70833333 -59.75 34.75 C-59.04818604 34.2132666 -58.34637207 33.6765332 -57.62329102 33.12353516 C-56.21252437 32.04481856 -54.80155564 30.9663662 -53.39038086 29.88818359 C-49.75670622 27.11139283 -46.12710458 24.32951276 -42.50390625 21.5390625 C-14.51443079 0 -14.51443079 0 0 0 Z " fill="#3F3F7F" transform="translate(256,72)"/>
<path d="M0 0 C1.16537692 -0.00512655 1.16537692 -0.00512655 2.3542968 -0.01035666 C4.94793226 -0.01692581 7.54052421 0.00502372 10.13406372 0.0269165 C11.99699377 0.02804519 13.8599256 0.0274107 15.72285461 0.02514648 C20.77414731 0.02399925 25.82505974 0.04751022 30.8762641 0.07544231 C36.15733758 0.10045432 41.43841988 0.10279782 46.71954346 0.10754395 C56.71735524 0.11997429 66.71499199 0.15279679 76.71272671 0.1929419 C88.09593774 0.2376577 99.47915715 0.25964619 110.86243415 0.27972364 C134.27615709 0.32152929 157.68971235 0.39268871 181.103302 0.48101807 C181.103302 11.04101807 181.103302 21.60101807 181.103302 32.48101807 C156.56441884 32.57359267 132.0255777 32.64498562 107.4865551 32.68826675 C96.0927931 32.70889661 84.69914155 32.73702541 73.30545044 32.78277588 C63.37532005 32.82263055 53.44526965 32.8484478 43.5150615 32.85737205 C38.25651086 32.86258909 32.99818909 32.87486002 27.73971176 32.90393829 C22.79032955 32.93108563 17.8412705 32.93946438 12.89182091 32.93344879 C11.07535865 32.93454933 9.2588856 32.94250725 7.44248772 32.95783997 C4.96126189 32.97775751 2.48125432 32.97295129 0 32.96203613 C-0.71791218 32.9736875 -1.43582436 32.98533886 -2.17549145 32.9973433 C-7.20516448 32.93758378 -10.00369522 31.59875077 -13.896698 28.48101807 C-17.52503463 24.66171635 -18.20670258 21.59822801 -18.396698 16.48101807 C-18.20670258 11.36380813 -17.52503463 8.30031979 -13.896698 4.48101807 C-9.28854352 0.79055219 -5.76526743 -0.09356749 0 0 Z " fill="#3F3F7F" transform="translate(74.89669799804688,423.51898193359375)"/>
<path d="M0 0 C0.89297791 -0.00570007 1.78595581 -0.01140015 2.70599365 -0.01727295 C4.59906833 -0.02672986 6.49215952 -0.03325967 8.38525391 -0.03710938 C11.27145476 -0.04678974 14.15693589 -0.07779591 17.04296875 -0.109375 C18.88280827 -0.11590764 20.72265289 -0.12115709 22.5625 -0.125 C23.42208313 -0.1373468 24.28166626 -0.1496936 25.16729736 -0.16241455 C30.91739475 -0.14121328 35.2346359 0.69816143 39.69140625 4.66796875 C43.95908364 10.04895328 44.19499459 13.93414198 44.16040039 20.63378906 C44.16054642 21.37564453 44.16069244 22.1175 44.1608429 22.88183594 C44.16014769 25.32750397 44.15237366 27.77309531 44.14453125 30.21875 C44.14266568 31.91697142 44.14124243 33.61519338 44.14024353 35.31341553 C44.13642932 39.77845755 44.12660839 44.24346694 44.11553955 48.70849609 C44.10530187 53.26659707 44.10074086 57.82470333 44.09570312 62.3828125 C44.08498514 71.32293099 44.06792187 80.26302528 44.046875 89.203125 C39.72180673 86.77155765 35.8946039 84.44234844 32.109375 81.203125 C27.66670076 77.49282622 23.13079634 73.96674862 18.484375 70.515625 C11.81358099 65.55520879 5.23026421 60.49280307 -1.31079102 55.36254883 C-2.00229248 54.82138428 -2.69379395 54.28021973 -3.40625 53.72265625 C-4.10943359 53.15603271 -4.81261719 52.58940918 -5.53710938 52.00561523 C-8.01610388 50.09109573 -8.01610388 50.09109573 -11.13476562 48.30883789 C-19.38733185 43.10584134 -19.38733185 43.10584134 -20.97363281 37.77124023 C-21.22617167 34.48591234 -21.28317107 31.3247232 -21.078125 28.03637695 C-20.95254866 26.00630787 -20.91417714 23.98865806 -20.890625 21.95507812 C-20.66970502 15.02716548 -20.30965096 10.80530736 -15.953125 5.203125 C-10.5280473 0.42388989 -7.08195108 0.03468724 0 0 Z " fill="#555584" transform="translate(347.953125,55.796875)"/>
<path d="M0 0 C1.216875 0.04125 2.43375 0.0825 3.6875 0.125 C2.96433594 1.21167969 2.96433594 1.21167969 2.2265625 2.3203125 C1.59492188 3.28710938 0.96328125 4.25390625 0.3125 5.25 C-0.62722656 6.67699219 -0.62722656 6.67699219 -1.5859375 8.1328125 C-5.64588202 15.16882495 -5.61663796 21.5247195 -5.63134766 29.46435547 C-5.64139328 30.70393509 -5.6514389 31.94351471 -5.66178894 33.22065735 C-5.68732525 36.60659411 -5.7042141 39.9923644 -5.71721697 43.37835836 C-5.73288307 46.92181218 -5.75966214 50.46518186 -5.7852478 54.00857544 C-5.83197415 60.7125865 -5.86874791 67.41661349 -5.90192068 74.12070382 C-5.94018557 81.75557443 -5.98958425 89.39036041 -6.03990483 97.0251596 C-6.14313326 112.72504615 -6.23202819 128.4249794 -6.3125 144.125 C-11.5925 144.125 -16.8725 144.125 -22.3125 144.125 C-22.40520825 127.83483596 -22.47653574 111.5447812 -22.51974869 95.25441742 C-22.54034907 87.6900279 -22.56842106 80.12580561 -22.61425781 72.56152344 C-22.65420327 65.96630122 -22.67995116 59.37120014 -22.68885398 52.77586031 C-22.69405579 49.28559651 -22.70622838 45.79567918 -22.73542023 42.30552673 C-22.76779053 38.40348963 -22.76845446 34.50178742 -22.76660156 30.59960938 C-22.78098267 29.45017853 -22.79536377 28.30074768 -22.81018066 27.1164856 C-22.76923943 19.14081923 -21.56366252 13.78910087 -16.12890625 7.6640625 C-15.01322266 6.71660156 -15.01322266 6.71660156 -13.875 5.75 C-13.13378906 5.10289062 -12.39257812 4.45578125 -11.62890625 3.7890625 C-7.87995618 1.09588758 -4.61987174 -0.15660582 0 0 Z " fill="#BDC2C3" transform="translate(222.3125,263.875)"/>
<path d="M0 0 C0 21.12 0 42.24 0 64 C-5.62083064 61.75166774 -5.62083064 61.75166774 -8.34765625 59.49609375 C-8.95416016 59.00173828 -9.56066406 58.50738281 -10.18554688 57.99804688 C-10.80494141 57.48306641 -11.42433594 56.96808594 -12.0625 56.4375 C-13.28074764 55.4340033 -14.50086645 54.43277473 -15.72265625 53.43359375 C-16.37121582 52.88662842 -17.01977539 52.33966309 -17.68798828 51.77612305 C-20.06597302 49.87837092 -20.06597302 49.87837092 -23.13623047 48.12426758 C-31.43465455 42.89612524 -31.43465455 42.89612524 -33.02368164 37.56665039 C-33.2734904 34.2823937 -33.32996965 31.1203726 -33.125 27.83325195 C-32.99942366 25.80318287 -32.96105214 23.78553306 -32.9375 21.75195312 C-32.71658002 14.82404048 -32.35652596 10.60218236 -28 5 C-18.54384219 -3.33042474 -17.32000472 0 0 0 Z " fill="#6A6AA5" transform="translate(360,56)"/>
<path d="M0 0 C0.76441406 0.0825 1.52882813 0.165 2.31640625 0.25 C5.19442081 1.26764051 6.00640013 2.31276231 7.4375 5 C7.8359375 8.05859375 7.8359375 8.05859375 7.8125 11.4375 C7.82023437 12.54996094 7.82796875 13.66242188 7.8359375 14.80859375 C7.39334077 18.35370681 6.68743676 20.23393075 4.4375 23 C2.31640625 23.84765625 2.31640625 23.84765625 0 24.0625 C-0.76183594 24.15660156 -1.52367188 24.25070312 -2.30859375 24.34765625 C-4.5625 24 -4.5625 24 -6.81640625 22.49609375 C-9.20855483 19.07644511 -9.14994918 16.02266212 -9.0625 12 C-9.07796875 11.2884375 -9.0934375 10.576875 -9.109375 9.84375 C-9.08376356 6.4118177 -8.79798356 4.33715767 -6.81640625 1.5 C-4.18517342 -0.25111509 -3.09612013 -0.41910256 0 0 Z " fill="#17162B" transform="translate(88.5625,368)"/>
<path d="M0 0 C2.640625 1.71484375 2.640625 1.71484375 5.25 3.9375 C6.55710937 5.03384766 6.55710937 5.03384766 7.890625 6.15234375 C10.98664541 8.86422829 10.98664541 8.86422829 11.375 12.8125 C11.32645603 16.19237405 11.17709953 16.79164761 8.875 19.5 C5.49030116 21.26592983 3.77757052 21.37916135 0 21 C-5.15969615 18.16621538 -9.3001945 14.87675112 -11.375 9.3125 C-10.92373055 5.32628651 -9.85099865 3.76954155 -7 1 C-4.38867418 -0.30566291 -2.90757336 -0.33193395 0 0 Z " fill="#17162B" transform="translate(373,191)"/>
</svg>
