<?xml version="1.0" encoding="UTF-8"?>
<svg version="1.1" xmlns="http://www.w3.org/2000/svg" width="512" height="512">
<path d="M0 0 C3.07789911 2.70503022 6.07365859 5.49016567 9.03564453 8.32128906 C10.43461847 9.65536942 11.84983795 10.97235026 13.265625 12.28857422 C25.5069532 24.00301599 34.77483162 37.68789655 42.48828125 52.70654297 C42.83874512 53.37766113 43.18920898 54.0487793 43.55029297 54.74023438 C63.04551253 92.44537318 65.75981669 137.2104712 53.19921875 177.53857422 C40.18009459 217.54728661 16.02320453 254.14065882 -7.51171875 288.70654297 C-8.6628418 290.40570659 -9.81387692 292.10492978 -10.96484375 293.80419922 C-23.01110324 311.55773948 -35.29782144 329.12765734 -47.90283203 346.48876953 C-50.61215092 350.22343611 -53.31131196 353.96543035 -56.01171875 357.70654297 C-57.09633627 359.20785798 -58.18097168 360.70916007 -59.265625 362.21044922 C-61.42177174 365.19563405 -63.57519379 368.18275685 -65.7265625 371.17138672 C-71.87318781 379.70468893 -78.07461972 388.19361655 -84.33374023 396.64477539 C-88.80206664 402.69655911 -93.15972342 408.82019236 -97.42993164 415.01342773 C-106.0463886 427.39562981 -106.0463886 427.39562981 -111.51171875 429.70654297 C-113.625 430.04248047 -113.625 430.04248047 -115.82421875 430.08154297 C-116.54222656 430.10990234 -117.26023438 430.13826172 -118 430.16748047 C-123.41106792 429.17446956 -127.14012916 426.5477125 -130.36328125 422.22998047 C-131.30161691 420.85653286 -132.22544109 419.47309073 -133.13671875 418.08154297 C-134.18107978 416.54556202 -135.22669474 415.01043305 -136.2734375 413.47607422 C-136.80630371 412.68668457 -137.33916992 411.89729492 -137.88818359 411.08398438 C-140.50071342 407.25829785 -143.22468535 403.51537907 -145.94921875 399.76904297 C-147.04187279 398.26007762 -148.13431979 396.75096233 -149.2265625 395.24169922 C-150.04036377 394.11852295 -150.04036377 394.11852295 -150.87060547 392.97265625 C-154.13017193 388.47171964 -157.38144495 383.96478862 -160.63427734 379.45898438 C-163.35241398 375.69446732 -166.0725328 371.93141589 -168.796875 368.17138672 C-175.59700735 358.78135428 -182.33376281 349.35017612 -188.99462891 339.86083984 C-190.47604399 337.75720181 -191.96737258 335.66094153 -193.4609375 333.56591797 C-201.73876356 321.90567044 -209.69733796 310.03605265 -217.63671875 298.14404297 C-218.45707611 296.91738922 -218.45707611 296.91738922 -219.29400635 295.66595459 C-225.2840645 286.70320743 -231.20108448 277.699619 -236.96484375 268.58935547 C-237.67811325 267.46290871 -237.67811325 267.46290871 -238.40579224 266.31370544 C-243.68621628 257.91984634 -248.62181386 249.33191873 -253.51171875 240.70654297 C-253.92631348 239.98176758 -254.3409082 239.25699219 -254.76806641 238.51025391 C-269.58751583 212.58355959 -281.54197667 187.08655461 -287.51171875 157.70654297 C-287.75921875 156.49482422 -288.00671875 155.28310547 -288.26171875 154.03466797 C-291.47352139 134.67463539 -290.59305838 113.85991634 -286.51171875 94.70654297 C-286.34542969 93.92021484 -286.17914063 93.13388672 -286.0078125 92.32373047 C-279.98005004 64.90857381 -266.77940919 38.46417719 -247.57421875 17.92529297 C-245.73726126 15.94917204 -244.0336071 13.91699676 -242.32421875 11.83154297 C-183.46577467 -55.08970167 -72.23728879 -55.68022655 0 0 Z M-208.51171875 38.70654297 C-209.30320313 39.41294922 -210.0946875 40.11935547 -210.91015625 40.84716797 C-232.00782465 60.80236335 -244.57542756 88.40277262 -249.51171875 116.70654297 C-249.69605469 117.72748047 -249.88039062 118.74841797 -250.0703125 119.80029297 C-254.12775694 155.70688094 -244.9579612 192.54135785 -222.37304688 221.05175781 C-221.10052901 222.61617767 -219.81066272 224.16401631 -218.51171875 225.70654297 C-217.66996094 226.71330078 -216.82820313 227.72005859 -215.9609375 228.75732422 C-193.75624605 254.49099041 -160.27691942 270.82460128 -126.51171875 273.70654297 C-89.36972034 275.87987904 -53.69519867 265.46990781 -25.51171875 240.70654297 C-24.68285156 240.01044922 -23.85398437 239.31435547 -23 238.59716797 C2.15723309 216.95483872 18.73435371 183.74339758 21.48828125 150.70654297 C22.13696435 135.81574592 22.07891495 121.21503848 18.48828125 106.70654297 C18.33262695 106.04106445 18.17697266 105.37558594 18.01660156 104.68994141 C13.78911062 86.94460515 5.6660618 70.10336633 -5.51171875 55.70654297 C-6.60613281 54.28148438 -6.60613281 54.28148438 -7.72265625 52.82763672 C-26.19395694 29.52787322 -49.88588843 14.57279101 -78.13671875 5.95654297 C-79.10254883 5.65816528 -79.10254883 5.65816528 -80.08789062 5.35375977 C-126.02124081 -7.96348393 -173.96457706 7.70448021 -208.51171875 38.70654297 Z " fill="#F94A49" transform="translate(370.51171875,61.29345703125)"/>
<path d="M0 0 C17.61265432 0 17.61265432 0 25.75 1.1875 C26.67828613 1.31987061 27.60657227 1.45224121 28.56298828 1.58862305 C64.47067593 7.03501989 97.31570842 23.54202356 123.54736328 48.61474609 C124.94633722 49.94882645 126.3615567 51.26580729 127.77734375 52.58203125 C140.01867195 64.29647302 149.28655037 77.98135358 157 93 C157.35046387 93.67111816 157.70092773 94.34223633 158.06201172 95.03369141 C177.55723128 132.73883021 180.27153544 177.50392823 167.7109375 217.83203125 C154.69181334 257.84074365 130.53492328 294.43411585 107 329 C105.84887695 330.69916362 104.69784183 332.39838681 103.546875 334.09765625 C91.50061551 351.85119651 79.21389731 369.42111438 66.60888672 386.78222656 C63.89956783 390.51689314 61.20040679 394.25888738 58.5 398 C57.41538248 399.50131501 56.33074707 401.0026171 55.24609375 402.50390625 C53.08994701 405.48909108 50.93652496 408.47621388 48.78515625 411.46484375 C42.63853094 419.99814596 36.43709903 428.48707358 30.17797852 436.93823242 C25.70965211 442.99001614 21.35199533 449.1136494 17.08178711 455.30688477 C15.74703538 457.22497775 14.38332983 459.11669525 13 461 C12.52820313 461.66064453 12.05640625 462.32128906 11.5703125 463.00195312 C11.08304687 463.63552734 10.59578125 464.26910156 10.09375 464.921875 C9.66771484 465.4900293 9.24167969 466.05818359 8.80273438 466.64355469 C7 468 7 468 0 469 C0 417.85 0 366.7 0 314 C8.58 313.01 17.16 312.02 26 311 C49.09805079 306.38038984 69.9476979 296.08287803 88 281 C88.51304687 280.57348145 89.02609375 280.14696289 89.5546875 279.70751953 C114.90025055 258.34230347 130.93788179 226.10863894 134.80371094 193.35473633 C136.09513706 177.8624416 135.73963116 162.11054215 132 147 C131.8443457 146.33452148 131.68869141 145.66904297 131.52832031 144.98339844 C127.3012603 127.23987108 119.17972859 110.3936541 108 96 C107.25878906 95.03835937 106.51757812 94.07671875 105.75390625 93.0859375 C83.35272716 64.90005185 50.73186857 47.20374924 15 43 C10.05 42.67 5.1 42.34 0 42 C0 28.14 0 14.28 0 0 Z " fill="#DC3C45" transform="translate(256,21)"/>
<path d="M0 0 C0.99 0.99 1.98 1.98 3 3 C3 27.75 3 52.5 3 78 C63.06 78 123.12 78 185 78 C185 68.1 185 58.2 185 48 C190 45 190 45 193.25 45.75 C196 47 196 47 197 48 C197.11615584 50.32622398 197.16797102 52.62319005 197.17700195 54.95068359 C197.18357315 55.67752853 197.19014435 56.40437347 197.19691467 57.15324402 C197.21669114 59.56830944 197.22831937 61.98331258 197.23828125 64.3984375 C197.24439454 65.63260847 197.24439454 65.63260847 197.25063133 66.89171219 C197.2715099 71.24583945 197.28580426 75.59993502 197.29516602 79.95410156 C197.30623882 84.45931042 197.34064322 88.96402647 197.38033772 93.4690609 C197.40644038 96.92626892 197.41485212 100.38335837 197.41844749 103.84065628 C197.42332938 105.50169837 197.4349887 107.16273461 197.45348549 108.82368088 C197.47774502 111.14636403 197.47693695 113.46775721 197.4699707 115.79052734 C197.48918579 116.82395012 197.48918579 116.82395012 197.50878906 117.87825012 C197.47417202 121.03763934 197.36365578 122.61091491 195.16593933 124.96231079 C192.10897664 126.42688422 190.20538195 125.90586881 187 125 C186.34 124.34 185.68 123.68 185 123 C185 112.44 185 101.88 185 91 C124.94 91 64.88 91 3 91 C3 101.56 3 112.12 3 123 C-1 126 -1 126 -4.125 125.8125 C-7 125 -7 125 -9 123 C-9.25447559 120.88819981 -9.25447559 120.88819981 -9.26069641 118.22401428 C-9.26778122 117.21590195 -9.27486603 116.20778961 -9.28216553 115.16912842 C-9.27968811 114.05894348 -9.27721069 112.94875854 -9.2746582 111.80493164 C-9.27976913 110.63903 -9.28488007 109.47312836 -9.29014587 108.27189636 C-9.30409518 104.40126473 -9.30308108 100.53081009 -9.30078125 96.66015625 C-9.30368428 94.65673028 -9.30659144 92.65330424 -9.310188 90.6498794 C-9.3212921 84.34802967 -9.32171562 78.04623955 -9.31567383 71.74438477 C-9.30963302 65.23915597 -9.32194552 58.73414341 -9.3432439 52.22895151 C-9.36084697 46.6475801 -9.36686329 41.06627759 -9.36360615 35.48487943 C-9.36179096 32.14970737 -9.36575927 28.8147243 -9.37832069 25.47957039 C-9.3906063 21.76102999 -9.38394043 18.04299472 -9.37231445 14.32446289 C-9.37995819 13.21630219 -9.38760193 12.10814148 -9.39547729 10.96640015 C-9.38846298 9.95546799 -9.38144867 8.94453583 -9.3742218 7.90296936 C-9.37438954 7.02341111 -9.37455729 6.14385286 -9.37473011 5.23764133 C-8.47367455 -0.14286884 -4.87559669 -0.60944959 0 0 Z " fill="#F94A49" transform="translate(162,136)"/>
<path d="M0 0 C0.85536346 -0.0049649 1.71072693 -0.00992981 2.5920105 -0.01504517 C5.43756909 -0.02971439 8.28307183 -0.03647888 11.12866211 -0.04199219 C13.10346987 -0.0477425 15.07827761 -0.05350024 17.05308533 -0.05926514 C21.20352438 -0.06979054 25.353944 -0.0756222 29.50439453 -0.07910156 C34.81163945 -0.08457044 40.11862575 -0.10855749 45.42578983 -0.13707352 C49.51027664 -0.1557457 53.59470195 -0.16090807 57.67922783 -0.16243744 C59.63476402 -0.16545733 61.59029929 -0.17346339 63.54579353 -0.18662262 C66.29114178 -0.20376855 69.03586923 -0.20178137 71.78125 -0.1953125 C72.58313248 -0.20452728 73.38501495 -0.21374207 74.2111969 -0.22323608 C82.45811319 -0.16267752 88.96602064 2.28364759 94.84350586 8.16113281 C100.60673182 17.89899737 98.84350586 24.62521964 98.84350586 37.16113281 C63.20350586 37.16113281 27.56350586 37.16113281 -9.15649414 37.16113281 C-9.15649414 0.01254291 -9.15649414 0.01254291 0 0 Z " fill="#DC3C45" transform="translate(235.156494140625,163.8388671875)"/>
<path d="M0 0 C2.75 1.25 2.75 1.25 3.75 2.25 C3.86615584 4.57622398 3.91797102 6.87319005 3.92700195 9.20068359 C3.93357315 9.92752853 3.94014435 10.65437347 3.94691467 11.40324402 C3.96669114 13.81830944 3.97831937 16.23331258 3.98828125 18.6484375 C3.99235678 19.47121815 3.9964323 20.29399879 4.00063133 21.14171219 C4.0215099 25.49583945 4.03580426 29.84993502 4.04516602 34.20410156 C4.05623882 38.70931042 4.09064322 43.21402647 4.13033772 47.7190609 C4.15644038 51.17626892 4.16485212 54.63335837 4.16844749 58.09065628 C4.17332938 59.75169837 4.1849887 61.41273461 4.20348549 63.07368088 C4.22774502 65.39636403 4.22693695 67.71775721 4.2199707 70.04052734 C4.23278076 70.72947586 4.24559082 71.41842438 4.25878906 72.12825012 C4.22417202 75.28763934 4.11365578 76.86091491 1.91593933 79.21231079 C-1.14102336 80.67688422 -3.04461805 80.15586881 -6.25 79.25 C-6.91 78.59 -7.57 77.93 -8.25 77.25 C-8.25 66.69 -8.25 56.13 -8.25 45.25 C-38.28 45.25 -68.31 45.25 -99.25 45.25 C-99.25 40.96 -99.25 36.67 -99.25 32.25 C-69.22 32.25 -39.19 32.25 -8.25 32.25 C-8.25 22.35 -8.25 12.45 -8.25 2.25 C-3.25 -0.75 -3.25 -0.75 0 0 Z " fill="#DD3C45" transform="translate(355.25,181.75)"/>
<path d="M0 0 C5.38603181 4.4067533 7.67120938 9.04088439 8.4375 15.9375 C8.20216715 21.21714144 6.13326948 25.63302965 2.609375 29.54296875 C-1.33138601 33.07928324 -5.07818975 34.9618064 -10.390625 35.03125 C-17.3166888 34.61651564 -21.41418174 32.72947483 -26.25 27.625 C-29.87486698 22.18769952 -30.36029155 17.75818808 -29.5390625 11.3984375 C-28.26343341 5.7228124 -24.6696002 2.18899526 -20 -1 C-13.203859 -4.67358973 -6.53257353 -3.57442703 0 0 Z " fill="#F94B4A" transform="translate(204,166)"/>
<path d="M0 0 C1.20970459 0.00523682 2.41940918 0.01047363 3.66577148 0.01586914 C4.84083252 0.0183667 6.01589355 0.02086426 7.2265625 0.0234375 C8.7314624 0.0325415 10.2363623 0.04164551 11.78686523 0.05102539 C16.55124023 0.07165039 21.31561523 0.09227539 26.22436523 0.11352539 C26.22436523 12.32352539 26.22436523 24.53352539 26.22436523 37.11352539 C16.32436523 37.11352539 6.42436523 37.11352539 -3.77563477 37.11352539 C-3.79854373 32.00482728 -3.81847078 26.89630614 -3.83056641 21.78759766 C-3.83560681 20.04833371 -3.84243907 18.30907403 -3.85107422 16.56982422 C-3.86315268 14.07526602 -3.86886585 11.58076366 -3.87329102 9.08618164 C-3.8784523 8.30388687 -3.88361359 7.5215921 -3.88893127 6.71559143 C-3.88912703 4.84785425 -3.83763171 2.98023335 -3.77563477 1.11352539 C-2.77563477 0.11352539 -2.77563477 0.11352539 0 0 Z " fill="#F94B4A" transform="translate(229.775634765625,163.886474609375)"/>
</svg>
