<?xml version="1.0" encoding="UTF-8"?>
<svg version="1.1" xmlns="http://www.w3.org/2000/svg" width="512" height="512">
<path d="M0 0 C1.11125244 -0.00960754 2.22250488 -0.01921509 3.36743164 -0.02911377 C4.56746826 -0.03336365 5.76750488 -0.03761353 7.00390625 -0.04199219 C8.85133423 -0.0505423 8.85133423 -0.0505423 10.73608398 -0.05926514 C13.34195089 -0.06871625 15.94782974 -0.07524956 18.55371094 -0.07910156 C21.22897867 -0.08350301 23.9039269 -0.09745865 26.57910156 -0.12011719 C30.4291367 -0.15046977 34.27876505 -0.16113651 38.12890625 -0.16699219 C39.32894287 -0.17933899 40.52897949 -0.19168579 41.76538086 -0.20440674 C42.8766333 -0.20140564 43.98788574 -0.19840454 45.1328125 -0.1953125 C46.11193604 -0.19895813 47.09105957 -0.20260376 48.09985352 -0.20635986 C50.56640625 0.16113281 50.56640625 0.16113281 52.40600586 1.43341064 C53.56640625 3.16113281 53.56640625 3.16113281 53.56640625 7.16113281 C58.18640625 7.16113281 62.80640625 7.16113281 67.56640625 7.16113281 C67.89640625 5.51113281 68.22640625 3.86113281 68.56640625 2.16113281 C73.33840477 -1.02019953 78.45688457 -0.16703624 84.06640625 -0.15136719 C85.22011719 -0.16748047 86.37382812 -0.18359375 87.5625 -0.20019531 C88.66722656 -0.20083984 89.77195313 -0.20148437 90.91015625 -0.20214844 C92.42899414 -0.20661987 92.42899414 -0.20661987 93.97851562 -0.21118164 C96.56640625 0.16113281 96.56640625 0.16113281 98.41992188 1.43383789 C99.56640625 3.16113281 99.56640625 3.16113281 99.56640625 7.16113281 C103.52640625 7.16113281 107.48640625 7.16113281 111.56640625 7.16113281 C111.85515625 6.19175781 112.14390625 5.22238281 112.44140625 4.22363281 C113.56640625 1.16113281 113.56640625 1.16113281 115.56640625 0.16113281 C117.16095015 0.05587287 118.75979167 0.01294891 120.35775757 0.00050354 C121.87565887 -0.0145649 121.87565887 -0.0145649 123.42422485 -0.02993774 C124.53897186 -0.03576874 125.65371887 -0.04159973 126.80224609 -0.04760742 C127.97319824 -0.0573912 129.14415039 -0.06717499 130.35058594 -0.07725525 C134.24281675 -0.10727303 138.13504576 -0.12892428 142.02734375 -0.14746094 C142.69066853 -0.15075826 143.35399331 -0.15405558 144.03741884 -0.15745282 C150.30139202 -0.18825833 156.5653701 -0.21495205 162.8293972 -0.2318716 C170.82307933 -0.25371894 178.81608461 -0.29554591 186.80949628 -0.36530918 C192.43854821 -0.41275216 198.067419 -0.43683279 203.69666445 -0.44406849 C207.05322466 -0.44899875 210.40842149 -0.46690106 213.7648735 -0.50381279 C217.52264985 -0.54289564 221.27868833 -0.54373813 225.03662109 -0.53588867 C226.13112579 -0.55588928 227.22563049 -0.57588989 228.353302 -0.59649658 C237.29861145 -0.51313394 244.97873812 2.18051989 251.80716133 8.10538387 C258.95158622 15.43866506 261.02224051 23.98839901 261.01959229 33.98464966 C260.99894714 35.17984222 260.978302 36.37503479 260.95703125 37.60644531 C260.95137146 38.8574704 260.94571167 40.10849548 260.93988037 41.39743042 C260.92140808 44.6889199 260.88560954 47.97959335 260.84106445 51.27081299 C260.79980438 54.64300665 260.7818045 58.01532083 260.76171875 61.38769531 C260.71781254 67.97915457 260.65102135 74.5700771 260.56640625 81.16113281 C261.66927979 81.09829102 262.77215332 81.03544922 263.90844727 80.97070312 C268.07274484 80.75047626 272.23655421 80.61470604 276.4050293 80.50195312 C278.19497676 80.44227217 279.98435662 80.36088192 281.7722168 80.25585938 C292.15960339 79.66179521 299.7127704 79.92986628 307.90234375 86.86035156 C309.6128348 88.40587699 311.27704287 89.98295616 312.92018127 91.59979248 C315.65182854 94.19058724 318.6409566 96.43944283 321.62890625 98.72363281 C322.78227743 99.62596692 323.9347471 100.52945564 325.0859375 101.43457031 C326.24609089 102.34342813 327.40624718 103.25228225 328.56640625 104.16113281 C332.69722121 107.39937081 336.82549177 110.64079132 340.94873047 113.88867188 C342.50789201 115.11510561 344.07029121 116.3374199 345.6328125 117.55957031 C346.53902344 118.27371094 347.44523437 118.98785156 348.37890625 119.72363281 C349.16910156 120.34367187 349.95929688 120.96371094 350.7734375 121.60253906 C352.56640625 123.16113281 352.56640625 123.16113281 353.56640625 125.16113281 C353.66801735 126.88779445 353.70586971 128.61836025 353.71357727 130.34799194 C353.72431023 131.99682625 353.72431023 131.99682625 353.73526001 133.67897034 C353.73794891 134.89044235 353.74063782 136.10191437 353.7434082 137.35009766 C353.7499794 138.62168228 353.7565506 139.89326691 353.76332092 141.2033844 C353.78073349 144.69721846 353.79128305 148.19103883 353.79952645 151.68490553 C353.80467537 153.86693148 353.81075111 156.04895316 353.81703758 158.2309761 C353.83608917 165.0557436 353.85032117 171.88050027 353.85864955 178.70528924 C353.86842721 186.58784638 353.89476034 194.47012309 353.93515044 202.35258138 C353.96528747 208.4426575 353.98011605 214.53265312 353.98343056 220.62280238 C353.98578356 224.26155381 353.99477587 227.90000565 354.01989174 231.53867722 C354.0474525 235.59709147 354.04334881 239.65487712 354.03637695 243.71337891 C354.05559204 245.52451424 354.05559204 245.52451424 354.07519531 247.37223816 C354.06477959 249.02953194 354.06477959 249.02953194 354.05415344 250.7203064 C354.0565418 251.68006063 354.05893015 252.63981487 354.06139088 253.62865257 C353.41731945 256.9239027 352.19781586 258.136111 349.56640625 260.16113281 C348.57640625 260.16113281 347.58640625 260.16113281 346.56640625 260.16113281 C346.56640625 266.76113281 346.56640625 273.36113281 346.56640625 280.16113281 C348.21640625 280.82113281 349.86640625 281.48113281 351.56640625 282.16113281 C354.17777668 284.77250325 353.82016498 286.62115663 353.85968018 290.17857361 C353.8587738 291.0221492 353.85786743 291.86572479 353.85693359 292.73486328 C353.86365082 293.62296188 353.87036804 294.51106049 353.87728882 295.42607117 C353.8963596 298.37687718 353.90019895 301.32745641 353.90234375 304.27832031 C353.90877034 306.33179823 353.91549859 308.38527523 353.92251587 310.43875122 C353.9345148 314.75476194 353.93819451 319.07069252 353.93701172 323.38671875 C353.93680951 328.89206011 353.96399759 334.39687951 353.99855614 339.9020977 C354.02091447 344.15060739 354.02484637 348.39899384 354.02379227 352.6475563 C354.02613918 354.6751496 354.03491097 356.70274677 354.050457 358.73028183 C354.16172076 374.75544098 352.98527172 387.14305522 341.6015625 399.25097656 C333.55040796 407.06918631 324.0454359 410.64533766 312.94140625 411.41113281 C303.6925239 411.25197423 295.2360029 408.17892276 287.56640625 403.16113281 C286.70015625 402.60425781 285.83390625 402.04738281 284.94140625 401.47363281 C275.36174527 392.14606817 271.21985392 381.23926409 270.9810915 368.03062057 C270.96022451 365.72635344 270.95826009 363.42251819 270.95703125 361.11816406 C270.94202125 359.49719108 270.92528828 357.87623322 270.90692139 356.2552948 C270.86355141 352.025454 270.84331688 347.79581937 270.82818604 343.5657959 C270.80850443 339.23482218 270.76654752 334.90406762 270.7265625 330.57324219 C270.65158995 322.10259692 270.6011001 313.63203845 270.56640625 305.16113281 C267.26640625 305.16113281 263.96640625 305.16113281 260.56640625 305.16113281 C260.56640625 348.39113281 260.56640625 391.62113281 260.56640625 436.16113281 C266.83640625 436.16113281 273.10640625 436.16113281 279.56640625 436.16113281 C283.32236388 439.91709045 282.95140643 441.16310528 282.96484375 446.34863281 C282.96771393 447.04754639 282.97058411 447.74645996 282.97354126 448.46655273 C282.9755805 449.94255383 282.97006028 451.41858203 282.95751953 452.89453125 C282.94146205 455.15328419 282.95737095 457.41024799 282.9765625 459.66894531 C282.97458004 461.10384509 282.97073631 462.53874376 282.96484375 463.97363281 C282.96145996 465.27945312 282.95807617 466.58527344 282.95458984 467.93066406 C282.56640625 471.16113281 282.56640625 471.16113281 281.38387251 472.83926731 C278.87877209 474.66125757 277.18360604 474.53824466 274.09876251 474.54144955 C272.95556911 474.54988949 271.81237571 474.55832943 270.63454008 474.56702513 C269.37298487 474.56101508 268.11142966 474.55500503 266.81164551 474.54881287 C265.46238018 474.55298344 264.11311836 474.55845943 262.76386309 474.56513268 C259.04804889 474.57964235 255.33245545 474.5753255 251.61662889 474.56796587 C247.6124754 474.56325011 243.60837079 474.57572983 239.60423279 474.58598328 C231.75691946 474.60320756 223.90968607 474.60400385 216.06235874 474.59877037 C209.68658883 474.59473444 203.31084262 474.59616534 196.93507385 474.60151863 C195.57566812 474.60264126 195.57566812 474.60264126 194.18879965 474.60378658 C192.34792244 474.605318 190.50704523 474.60685634 188.66616803 474.60840154 C171.39059938 474.62213953 154.11507598 474.61667962 136.83950835 474.60521633 C121.02132382 474.5952809 105.2032562 474.60822767 89.3850897 474.63215052 C73.15685995 474.65650934 56.92868474 474.66615744 40.70043707 474.6594978 C31.5839126 474.65599862 22.4674781 474.65828362 13.35096741 474.67574883 C5.5908758 474.69043059 -2.16906247 474.69115917 -9.92915094 474.67367791 C-13.89106084 474.66513243 -17.85269637 474.66310415 -21.81459236 474.67832947 C-25.43793841 474.69208181 -29.06077258 474.68753705 -32.68408829 474.66809023 C-34.62330895 474.66249836 -36.56255506 474.67668021 -38.50172758 474.69144434 C-39.64492098 474.68163005 -40.78811439 474.67181576 -41.96595001 474.66170406 C-42.95653302 474.66159673 -43.94711602 474.66148939 -44.96771669 474.6613788 C-47.43359375 474.16113281 -47.43359375 474.16113281 -49.25106001 472.32638031 C-50.91908508 469.2721866 -50.82234083 466.81503608 -50.83203125 463.34863281 C-50.83490143 462.69789795 -50.83777161 462.04716309 -50.84072876 461.37670898 C-50.84276431 460.00503669 -50.83726998 458.63333503 -50.82470703 457.26171875 C-50.8086436 455.16763116 -50.82457032 453.07547321 -50.84375 450.98144531 C-50.84176747 449.64550357 -50.8379236 448.30956303 -50.83203125 446.97363281 C-50.82864746 445.76320313 -50.82526367 444.55277344 -50.82177734 443.30566406 C-50.37510234 439.6873156 -50.17221302 438.55483953 -47.43359375 436.16113281 C-44.19546443 435.6535293 -41.01342333 435.78684522 -37.74609375 435.91113281 C-36.85341797 435.92917969 -35.96074219 435.94722656 -35.04101562 435.96582031 C-32.83745871 436.01295522 -30.63606774 436.07872625 -28.43359375 436.16113281 C-28.43473291 435.29488677 -28.43587207 434.42864072 -28.43704575 433.53614479 C-28.50416719 382.20537591 -28.55564697 330.87461167 -28.58678974 279.54380769 C-28.5905419 273.38166273 -28.59442486 267.21951787 -28.59838867 261.05737305 C-28.5991756 259.83059117 -28.59996253 258.60380929 -28.60077331 257.33985221 C-28.61383035 237.47104942 -28.63748585 217.60227264 -28.66505214 197.73348529 C-28.69309802 177.34914976 -28.70976828 156.96482787 -28.71585923 136.58047384 C-28.71997736 124.00033544 -28.73298834 111.42027058 -28.75734315 98.84015482 C-28.77319023 90.21571536 -28.77799643 81.59131398 -28.77409788 72.96686102 C-28.77217475 67.98961568 -28.77514115 63.01249894 -28.79121017 58.03527641 C-28.8058187 53.4771455 -28.80653987 48.91922954 -28.79629043 44.36108869 C-28.79502383 42.71355963 -28.79882128 41.0660171 -28.8082433 39.4185145 C-28.8705002 27.85877405 -28.19126347 18.55959638 -20.5390625 9.24316406 C-14.80237628 3.57033706 -8.06675892 0.05625424 0 0 Z M260.56640625 119.16113281 C260.56640625 167.67113281 260.56640625 216.18113281 260.56640625 266.16113281 C265.51640625 266.49113281 270.46640625 266.82113281 275.56640625 267.16113281 C284.58622909 269.29309094 290.8596981 271.76731368 297.56640625 278.16113281 C298.12972656 278.68449219 298.69304687 279.20785156 299.2734375 279.74707031 C307.15327713 287.92614436 309.6285117 299.07723762 309.77172852 310.08447266 C309.78162811 310.74859161 309.79152771 311.41271057 309.80172729 312.09695435 C309.83308212 314.27195789 309.85799567 316.4469832 309.8828125 318.62207031 C309.90340456 320.13807717 309.9244016 321.65407857 309.94578552 323.17007446 C310.00077376 327.14511682 310.05028477 331.12020899 310.09863281 335.09533691 C310.14901844 339.15767814 310.20461513 343.21994773 310.25976562 347.28222656 C310.3670625 355.24180127 310.46856973 363.20143622 310.56640625 371.16113281 C311.88640625 371.16113281 313.20640625 371.16113281 314.56640625 371.16113281 C314.56640625 306.81113281 314.56640625 242.46113281 314.56640625 176.16113281 C309.28640625 175.83113281 304.00640625 175.50113281 298.56640625 175.16113281 C292.5326245 171.13861165 288.73033853 168.48044278 286.9375 161.34082031 C286.13931952 156.65256022 285.86230436 151.90328935 285.56640625 147.16113281 C284.85613281 147.03996094 284.14585937 146.91878906 283.4140625 146.79394531 C282.49496094 146.62636719 281.57585937 146.45878906 280.62890625 146.28613281 C279.71238281 146.12371094 278.79585938 145.96128906 277.8515625 145.79394531 C276.72041016 145.48070312 276.72041016 145.48070312 275.56640625 145.16113281 C274.28034964 142.58901959 274.35596684 140.59206315 274.25 137.71582031 C274.1871582 136.10126953 274.1871582 136.10126953 274.12304688 134.45410156 C274.08373047 133.32617188 274.04441406 132.19824219 274.00390625 131.03613281 C273.96072266 129.90046875 273.91753906 128.76480469 273.87304688 127.59472656 C273.7667468 124.7836802 273.66605228 121.97242291 273.56640625 119.16113281 C269.27640625 119.16113281 264.98640625 119.16113281 260.56640625 119.16113281 Z M300.56640625 147.16113281 C300.52515625 148.91425781 300.48390625 150.66738281 300.44140625 152.47363281 C300.41820312 153.45976562 300.395 154.44589844 300.37109375 155.46191406 C300.35957986 158.38519808 300.35957986 158.38519808 302.56640625 161.16113281 C305.44851927 162.12183715 307.26490669 162.26695165 310.25390625 162.22363281 C311.67703125 162.20300781 313.10015625 162.18238281 314.56640625 162.16113281 C314.56640625 157.21113281 314.56640625 152.26113281 314.56640625 147.16113281 C309.94640625 147.16113281 305.32640625 147.16113281 300.56640625 147.16113281 Z " fill="#071820" transform="translate(104.43359375,18.8388671875)"/>
<path d="M0 0 C0.33 0 0.66 0 1 0 C1 82.17 1 164.34 1 249 C-83.3125 249.3125 -83.3125 249.3125 -109.96606445 249.38793945 C-117.828341 249.42448985 -117.828341 249.42448985 -125.69059753 249.4650116 C-129.20131271 249.48299885 -132.71194418 249.49256521 -136.22270203 249.49711609 C-140.69583188 249.50318704 -145.16868248 249.52345147 -149.64170873 249.55416143 C-151.28647395 249.56300617 -152.93127568 249.56679057 -154.57606375 249.56503928 C-156.79215455 249.56339393 -159.00737155 249.57997371 -161.2233429 249.60127258 C-162.46684163 249.60588155 -163.71034037 249.61049051 -164.99152088 249.61523914 C-167.97076972 249.75817258 -167.97076972 249.75817258 -169.90010357 251.33742046 C-171.62534464 253.94525736 -171.37971447 255.96228422 -171 259 C-170.01223278 260.81116085 -170.01223278 260.81116085 -168 262 C-165.3845309 262.30021233 -163.00505033 262.41600018 -160.38813782 262.39872742 C-159.60561604 262.40537424 -158.82309427 262.41202107 -158.01685971 262.41886932 C-155.38651568 262.4375686 -152.75662376 262.43488942 -150.1262207 262.43237305 C-148.24402215 262.44138599 -146.3618295 262.45171205 -144.47964478 262.46325684 C-139.36220167 262.49090793 -134.24486969 262.50012234 -129.12736154 262.50611091 C-123.7821435 262.51547352 -118.43700917 262.54167513 -113.09184265 262.56611633 C-102.96653405 262.6098433 -92.84124162 262.63835218 -82.71586722 262.66143972 C-71.18997136 262.68845821 -59.66415944 262.73237174 -48.13832343 262.77772844 C-24.42559441 262.87066347 -0.71283907 262.9423036 23 263 C23 266.3 23 269.6 23 273 C-77.65 273 -178.3 273 -282 273 C-282 269.7 -282 266.4 -282 263 C-281.01694382 262.99191315 -280.03388763 262.98382629 -279.02104187 262.97549438 C-269.76540555 262.89807473 -260.50991699 262.81034611 -251.25447369 262.71247292 C-246.49593215 262.66248568 -241.73741307 262.61615589 -236.97875977 262.578125 C-232.38806117 262.54130281 -227.79754943 262.4949513 -223.20701027 262.44193649 C-221.45392948 262.42337621 -219.70080862 262.40827431 -217.94766808 262.39665604 C-215.4957597 262.37982144 -213.04428077 262.3507936 -210.5925293 262.31884766 C-209.86460678 262.31668747 -209.13668427 262.31452728 -208.38670349 262.31230164 C-204.71247552 262.25097599 -203.14205588 262.09470392 -200 260 C-199.52441794 258.098006 -199.52441794 258.098006 -199.625 256 C-199.61726563 255.29875 -199.60953125 254.5975 -199.6015625 253.875 C-199.859086 251.58941406 -199.859086 251.58941406 -203 250 C-221.48 249.67 -239.96 249.34 -259 249 C-259 167.16 -259 85.32 -259 1 C-255.7 1.99 -252.4 2.98 -249 4 C-245.52953611 4.26533224 -242.247168 4.4068507 -238.78465271 4.38095093 C-237.31740795 4.38797089 -237.31740795 4.38797089 -235.82052189 4.39513266 C-232.56957838 4.40702065 -229.31906126 4.39764967 -226.06811523 4.38818359 C-223.72659053 4.39225201 -221.38506775 4.39759541 -219.04354858 4.40411377 C-212.70278147 4.41776013 -206.36216122 4.4124999 -200.02139163 4.40297651 C-194.05189389 4.39613901 -188.08240944 4.40136522 -182.11291207 4.4057581 C-169.57076048 4.41429855 -157.02867484 4.40449869 -144.48653407 4.388357 C-133.73814142 4.3749519 -122.98984598 4.37728607 -112.24145508 4.39111328 C-99.74061025 4.40718754 -87.2398231 4.41347798 -74.73896939 4.40427649 C-68.12854171 4.39954236 -61.51816814 4.39896254 -54.90774345 4.40888596 C-48.6934214 4.41756367 -42.47928261 4.41151873 -36.26498032 4.39420319 C-33.98698671 4.39024286 -31.70897763 4.39136459 -29.43099022 4.39799118 C-26.31657445 4.40621439 -23.20274244 4.39587532 -20.08836365 4.38095093 C-19.19146378 4.38764309 -18.2945639 4.39433526 -17.37048525 4.40123022 C-11.94025477 4.35091302 -4.10132922 4.10132922 0 0 Z " fill="#F54F2E" transform="translate(350,206)"/>
<path d="M0 0 C1.15371094 -0.01611328 2.30742187 -0.03222656 3.49609375 -0.04882812 C4.60082031 -0.04947266 5.70554687 -0.05011719 6.84375 -0.05078125 C8.36258789 -0.05525269 8.36258789 -0.05525269 9.91210938 -0.05981445 C12.5 0.3125 12.5 0.3125 14.35351562 1.58520508 C15.5 3.3125 15.5 3.3125 15.5 7.3125 C19.79 7.3125 24.08 7.3125 28.5 7.3125 C29.49 9.7875 29.49 9.7875 30.5 12.3125 C32.91624715 13.52062357 34.44215147 13.44244247 37.14190674 13.45053101 C38.12044113 13.45598434 39.09897552 13.46143768 40.10716248 13.46705627 C41.18458206 13.4680986 42.26200165 13.46914093 43.37207031 13.47021484 C44.50389236 13.47529556 45.63571442 13.48037628 46.80183411 13.48561096 C49.2665453 13.49633285 51.73126634 13.50494585 54.19599152 13.51173019 C58.09602494 13.52349148 61.99594624 13.54293768 65.89593506 13.56484985 C76.98706068 13.62677385 88.07818182 13.6807501 99.16943359 13.71386719 C105.94750442 13.73419459 112.72536489 13.77009642 119.50331879 13.81462479 C122.088464 13.82879822 124.67364509 13.83751023 127.25882721 13.84067917 C130.87621798 13.84558215 134.49307005 13.86872634 138.11035156 13.89599609 C139.71433556 13.89148689 139.71433556 13.89148689 141.35072327 13.8868866 C147.75253133 13.9586326 152.46072776 14.50897843 157.36328125 19.03125 C157.84152344 19.6190625 158.31976563 20.206875 158.8125 20.8125 C159.30363281 21.4003125 159.79476563 21.988125 160.30078125 22.59375 C162.61844297 25.91548016 162.63035675 28.89559602 162.64717102 32.81375122 C162.65790398 34.52953621 162.65790398 34.52953621 162.66885376 36.27998352 C162.67154266 37.53610947 162.67423157 38.79223541 162.67700195 40.08642578 C162.68326823 41.42200395 162.68991518 42.75758038 162.69691467 44.09315491 C162.71794399 48.48136179 162.72831836 52.86956895 162.73828125 57.2578125 C162.74232971 58.77041517 162.74644666 60.28301766 162.75063133 61.79561996 C162.76968325 68.90498237 162.78391233 76.01433441 162.7922433 83.12371743 C162.80200571 91.31863288 162.82829894 99.5132775 162.86874419 107.70809758 C162.89895947 114.04880055 162.91371743 120.38942615 162.91702431 126.73019969 C162.91936933 130.51385002 162.92825712 134.29721103 162.95348549 138.08078384 C162.97686536 141.64480056 162.98096018 145.20833955 162.97072411 148.77241325 C162.96999719 150.69226566 162.98902017 152.61209433 163.00878906 154.53184509 C162.96692519 161.53009437 162.59407915 167.45571983 158.5 173.3125 C152.9825301 178.2131677 147.74181314 179.03541244 140.5809021 178.94068909 C139.12529623 178.95133067 139.12529623 178.95133067 137.64028418 178.96218723 C134.40349845 178.97972505 131.1679202 178.96168332 127.93115234 178.94360352 C125.60475621 178.94874384 123.27836397 178.95602597 120.95198059 178.96528625 C114.64425451 178.98379157 108.33695143 178.97086752 102.02924299 178.95119596 C96.09644097 178.9364671 90.16368363 178.94241956 84.23087068 178.94725286 C72.47676124 178.95581162 60.7228188 178.93917035 48.96875 178.90942383 C37.56926463 178.88057516 26.17001969 178.87351014 14.77050781 178.88891602 C2.34696108 178.90568291 -10.07647163 178.90970848 -22.50002134 178.89220566 C-29.07295153 178.8831045 -35.64577562 178.87900451 -42.21870804 178.88824654 C-48.3961269 178.89590288 -54.57319912 178.88380395 -60.75055885 178.85639763 C-63.01851561 178.84950657 -65.2865047 178.84942349 -67.55446053 178.85661316 C-70.64831802 178.86529153 -73.74110174 178.84937832 -76.83486938 178.8271637 C-77.73409012 178.83540446 -78.63331086 178.84364523 -79.55978072 178.85213572 C-85.03163399 178.77952826 -88.15918271 177.9552139 -92.5 174.3125 C-96.40200995 169.88319141 -97.62306031 167.57511929 -97.64717102 161.72149658 C-97.65432632 160.53260834 -97.66148163 159.34372009 -97.66885376 158.11880493 C-97.67288712 156.15202286 -97.67288712 156.15202286 -97.67700195 154.14550781 C-97.68326587 152.75594919 -97.6899126 151.36639225 -97.69691467 149.97683716 C-97.71433237 146.19568742 -97.72487878 142.41455033 -97.7331202 138.6333704 C-97.73826934 136.27108859 -97.74434515 133.90881071 -97.75063133 131.54653168 C-97.76968663 124.15578765 -97.78391634 116.76505363 -97.7922433 109.37428975 C-97.80201427 100.84257625 -97.82832853 92.31112229 -97.86874419 83.77950025 C-97.89890768 77.1857879 -97.91371243 70.59214993 -97.91702431 63.99836993 C-97.91937479 60.05998652 -97.92833428 56.12188027 -97.95348549 52.18357086 C-97.97677521 48.47676693 -97.98099613 44.77042245 -97.97072411 41.0635643 C-97.96999308 39.0584393 -97.9890786 37.05333758 -98.00878906 35.04830933 C-97.94537867 24.08847353 -97.94537867 24.08847353 -93.5 19.3125 C-89.26901562 15.49429459 -86.28574935 14.1932741 -80.63305664 14.1706543 C-79.6451564 14.16361984 -78.65725616 14.15658539 -77.63941956 14.14933777 C-76.57376266 14.14517349 -75.50810577 14.14100922 -74.41015625 14.13671875 C-72.15949579 14.11352694 -69.90884471 14.08940987 -67.65820312 14.06445312 C-64.10516016 14.02928422 -60.55246375 13.99996218 -56.99926758 13.98657227 C-53.57330349 13.97113036 -50.14835355 13.93095061 -46.72265625 13.88671875 C-45.12720726 13.88958138 -45.12720726 13.88958138 -43.49952698 13.89250183 C-37.7992654 13.90468356 -37.7992654 13.90468356 -32.86108398 11.40161133 C-31.4824082 9.37193753 -31.4824082 9.37193753 -30.5 7.3125 C-25.88 7.3125 -21.26 7.3125 -16.5 7.3125 C-16.17 5.6625 -15.84 4.0125 -15.5 2.3125 C-10.72800148 -0.86883234 -5.60952168 -0.01566905 0 0 Z " fill="#FBD62D" transform="translate(188.5,18.6875)"/>
<path d="M0 0 C54.45 0 108.9 0 165 0 C165 22.44 165 44.88 165 68 C110.55 68 56.1 68 0 68 C0 45.56 0 23.12 0 0 Z " fill="#E8E9EF" transform="translate(138,81)"/>
<path d="M0 0 C0.86625 0.4125 1.7325 0.825 2.625 1.25 C14.76012196 7.76152885 21.07339673 18.36691447 26.12890625 30.76953125 C29.63987421 43.79002677 27.48391756 57.37893149 21 69 C14.31624993 79.67361395 3.43735667 88.46637375 -8.91210938 91.61621094 C-21.00978836 93.83996577 -34.36275704 93.55830017 -45 87 C-46.42505859 86.14535156 -46.42505859 86.14535156 -47.87890625 85.2734375 C-59.01460853 77.91023844 -66.79089213 66.43387071 -69.68359375 53.3515625 C-71.66948073 38.59225436 -68.54163831 25.53347267 -59.9375 13.5 C-45.5903901 -4.20494413 -20.62048102 -10.05877123 0 0 Z " fill="#E5E5EB" transform="translate(242,299)"/>
<path d="M0 0 C0.74717995 -0.0060911 1.4943599 -0.01218221 2.26418167 -0.01845789 C4.76921666 -0.03511421 7.2737448 -0.03030845 9.77882385 -0.0255127 C11.57423939 -0.03285149 13.36965021 -0.04143716 15.16505432 -0.05117798 C20.04313845 -0.07342211 24.92105381 -0.07632323 29.7991817 -0.07443047 C33.8698941 -0.0743109 37.94057055 -0.08286913 42.01127297 -0.09120798 C51.6136645 -0.1104523 61.2159691 -0.11332204 70.81837463 -0.10656738 C80.72848532 -0.09992465 90.63822398 -0.12279797 100.5482592 -0.15988111 C109.05367731 -0.19055481 117.5589756 -0.20194071 126.06444794 -0.1980443 C131.1457448 -0.19597448 136.22675219 -0.20149199 141.30799675 -0.22593689 C146.08600256 -0.24816314 150.86340251 -0.24636066 155.64141083 -0.22600937 C157.39539368 -0.22259206 159.149417 -0.22771939 160.90334511 -0.24199295 C163.29743886 -0.26013252 165.68946556 -0.24747848 168.08349609 -0.22705078 C168.77824695 -0.23956863 169.4729978 -0.25208648 170.18880171 -0.26498365 C173.95015782 -0.19613476 175.54055943 0.34366607 178.53608704 2.69371796 C181.3086946 6.31256949 181.30215503 9.3962409 181.23634338 13.77722168 C181.24707634 15.02448029 181.24707634 15.02448029 181.25802612 16.29693604 C181.27489873 19.03832379 181.25551974 21.77807284 181.23414612 24.51940918 C181.23497495 26.42842748 181.23743488 28.33744571 181.24145508 30.24645996 C181.24431209 34.24456297 181.22962131 38.24210547 181.2021637 42.2401123 C181.16808111 47.36165637 181.17410006 52.48219825 181.19282627 57.60379028 C181.20340131 61.54496596 181.19445385 65.48590894 181.17944145 69.42706299 C181.17426288 71.31528024 181.1747375 73.20352183 181.1809864 75.09173584 C181.18644472 77.73221985 181.16604458 80.37127549 181.13868713 83.01159668 C181.14847595 84.17909454 181.14847595 84.17909454 181.15846252 85.37017822 C181.09824398 88.79303174 180.76754242 91.11422059 179.04083252 94.0951004 C175.8401201 97.11671658 173.30710548 97.09007648 169.12109375 97.01586914 C168.36433556 97.02225796 167.60757737 97.02864678 166.82788712 97.03522921 C164.29016255 97.0504994 161.75399423 97.03000611 159.21632385 97.00964355 C157.39795921 97.01314413 155.57959762 97.018802 153.76124573 97.02645874 C148.82115323 97.04072448 143.88161614 97.02362832 138.94157672 97.00017357 C133.77665568 96.98009315 128.61175833 96.98594261 123.44680786 96.98828125 C114.77369504 96.98822765 106.1007999 96.96845425 97.42774963 96.93640137 C87.39270476 96.89949586 77.35794499 96.89072713 67.32284111 96.89769888 C57.6777844 96.90399807 48.03282571 96.89326116 38.38778877 96.87373352 C34.27898324 96.86554717 30.17022773 96.86285223 26.06141472 96.86442566 C21.22604733 96.86530285 16.39095206 96.85113323 11.55565643 96.82519913 C9.77827587 96.81802059 8.00086639 96.81596178 6.2234745 96.81931686 C3.80281926 96.82301547 1.38296529 96.80834158 -1.03759766 96.78881836 C-2.1001353 96.79681025 -2.1001353 96.79681025 -3.18413836 96.80496359 C-6.00208308 96.76557518 -7.95078374 96.69026103 -10.33035278 95.10459137 C-12.25590978 92.01080093 -11.81808564 88.37634109 -11.79881287 84.83972168 C-11.80567612 83.96628113 -11.81253937 83.09284058 -11.8196106 82.19293213 C-11.83793389 79.30159314 -11.8340336 76.41079384 -11.82835388 73.51940918 C-11.83291272 71.51305972 -11.8382174 69.50671182 -11.84423828 67.50036621 C-11.85318002 63.29375874 -11.85073379 59.08734101 -11.84080505 54.8807373 C-11.82930847 49.48324352 -11.84953216 44.08640326 -11.87872219 38.68899536 C-11.89704453 34.54548974 -11.89679976 30.40214191 -11.89108467 26.25860596 C-11.890931 24.26824018 -11.89701298 22.27786401 -11.90937614 20.28753662 C-11.92421122 17.5076361 -11.91366496 14.72895824 -11.89646912 11.94909668 C-11.90613708 11.12302917 -11.91580505 10.29696167 -11.92576599 9.44586182 C-11.85365518 3.89454793 -11.85365518 3.89454793 -9.8256073 1.68422699 C-6.55776818 -0.0497023 -3.60992163 -0.02759527 0 0 Z M1.60523987 14.39440918 C1.60523987 36.83440918 1.60523987 59.27440918 1.60523987 82.39440918 C56.05523987 82.39440918 110.50523987 82.39440918 166.60523987 82.39440918 C166.60523987 59.95440918 166.60523987 37.51440918 166.60523987 14.39440918 C112.15523987 14.39440918 57.70523987 14.39440918 1.60523987 14.39440918 Z " fill="#081921" transform="translate(136.39476013183594,66.6055908203125)"/>
<path d="M0 0 C11.44285932 9.30017252 20.05839909 23.82074937 22.5859375 38.34375 C22.84601483 41.45450545 22.87381555 44.53604562 22.8359375 47.65625 C22.82626953 48.49583252 22.81660156 49.33541504 22.80664062 50.20043945 C22.46915932 67.66003495 16.11675539 82.87395882 3.5859375 95.34375 C-13.3770725 109.98201013 -30.67809123 112.89854051 -52.4140625 111.34375 C-56.79919601 110.55941718 -60.43769902 109.32268438 -64.4140625 107.34375 C-65.33832031 106.91964844 -66.26257813 106.49554688 -67.21484375 106.05859375 C-74.28870043 102.54612549 -79.846825 97.90145456 -85.4140625 92.34375 C-86.06375 91.70566406 -86.7134375 91.06757813 -87.3828125 90.41015625 C-98.47988929 78.70468709 -103.07619833 62.74047023 -102.95703125 46.94189453 C-102.31906429 29.39448035 -94.53309307 15.71351913 -82.4140625 3.34375 C-81.81078125 2.704375 -81.2075 2.065 -80.5859375 1.40625 C-58.7012295 -19.90755257 -23.35905665 -16.02627835 0 0 Z M-76.48046875 16.5078125 C-86.24830648 28.44862493 -89.73239726 41.05106679 -88.4140625 56.34375 C-85.84308622 69.19863138 -79.4671185 81.01653852 -68.8515625 88.90625 C-67.05937451 90.08359977 -65.24613416 91.22947728 -63.4140625 92.34375 C-62.15529297 93.11332031 -62.15529297 93.11332031 -60.87109375 93.8984375 C-50.57654983 99.15712227 -36.62562279 99.33186562 -25.4921875 96.4921875 C-12.39185909 91.88513421 -2.30981988 83.11837296 4.41015625 71.07421875 C10.06564048 58.90635875 11.03744432 45.05844192 6.5859375 32.28125 C0.75252251 19.48060133 -7.71337984 9.99947068 -20.60546875 4.38671875 C-40.68355297 -3.06925968 -61.5074838 0.82721957 -76.48046875 16.5078125 Z " fill="#091921" transform="translate(260.4140625,293.65625)"/>
<path d="M0 0 C4.40502577 0.62704993 5.46118594 2.07061062 8.29296875 5.46875 C8.8034375 6.00371094 9.31390625 6.53867187 9.83984375 7.08984375 C21.99677059 20.05537352 30.9194352 35.48618062 30.5625 53.4140625 C30.15729887 62.04105404 26.73156917 67.96831596 20.453125 73.77734375 C11.78331441 80.56582112 1.97967879 81.67711309 -8.70703125 80.46875 C-16.403088 78.25712544 -22.80321341 73.19630709 -26.98828125 66.3828125 C-31.49684299 57.71993316 -32.29418844 47.87406295 -29.94140625 38.37890625 C-25.33620302 26.5578036 -17.88289686 15.45005009 -9.51953125 5.96875 C-9.04507568 5.4106665 -8.57062012 4.85258301 -8.08178711 4.27758789 C-5.40318442 1.39141309 -3.95060195 0.49954924 0 0 Z " fill="#091A21" transform="translate(220.70703125,302.53125)"/>
<path d="M0 0 C2.97 0 5.94 0 9 0 C9.01458252 1.09989258 9.02916504 2.19978516 9.04418945 3.33300781 C9.1022147 7.41846023 9.17944706 11.50336391 9.26245117 15.58837891 C9.29568069 17.35554083 9.32371882 19.12280839 9.34643555 20.89013672 C9.38001831 23.43242351 9.43233451 25.97374408 9.48828125 28.515625 C9.49467117 29.30430969 9.5010611 30.09299438 9.50764465 30.90557861 C9.59361625 34.12162943 9.78656269 36.5891403 11.28198242 39.46777344 C13.14063649 41.36433648 13.14063649 41.36433648 17 42 C17 49.26 17 56.52 17 64 C15.35 64.66 13.7 65.32 12 66 C10.20025345 67.79974655 10.86963392 70.25357139 10.85655212 72.65028381 C10.85708084 73.46162277 10.85760956 74.27296173 10.8581543 75.10888672 C10.85294266 76.3847036 10.85294266 76.3847036 10.84762573 77.68629456 C10.84025224 79.5415061 10.83491539 81.39672657 10.83133507 83.25194931 C10.82418018 86.19555574 10.80851711 89.13899443 10.78999329 92.08255005 C10.73750546 100.4550738 10.68962554 108.82751091 10.67407227 117.20019531 C10.66394227 122.31735312 10.63448093 127.43409669 10.59275246 132.55109024 C10.58049807 134.49572732 10.57531096 136.4404231 10.57755089 138.3850975 C10.59926479 163.41143957 10.59926479 163.41143957 2.71875 171.65234375 C-4.45591057 177.27792988 -11.76193112 179.99645213 -20.88671875 179.515625 C-28.03524937 178.33167764 -34.32012306 175.04705634 -38.65197754 169.13102722 C-44.04782175 160.60098322 -44.5623416 151.70594679 -44.4858551 141.87145042 C-44.46836131 139.55397796 -44.47622061 137.23772729 -44.4901123 134.92024231 C-44.51524865 130.00924117 -44.50997544 125.09853908 -44.5 120.1875 C-44.48843862 114.47339426 -44.48967366 108.75989211 -44.52406311 103.0458622 C-44.5311238 100.77112517 -44.51453368 98.49736197 -44.49694824 96.22270203 C-44.50265699 94.82318607 -44.5094747 93.42367406 -44.51757812 92.02416992 C-44.51280457 90.20196175 -44.51280457 90.20196175 -44.50793457 88.34294128 C-45.30200143 82.94829511 -47.78251477 79.91932558 -52.0625 76.6875 C-56.02689899 74.4100793 -59.190871 73.80781062 -63.6875 73.4375 C-65.17830078 73.31181641 -65.17830078 73.31181641 -66.69921875 73.18359375 C-67.45847656 73.12300781 -68.21773438 73.06242187 -69 73 C-69 70.03 -69 67.06 -69 64 C-51.5493051 63.38649901 -51.5493051 63.38649901 -43.3125 68.75 C-38.24358119 73.68192101 -34.28201463 79.1333676 -33.75517273 86.35676575 C-33.75693008 87.6361351 -33.75868744 88.91550446 -33.76049805 90.23364258 C-33.75848389 90.94328659 -33.75646973 91.6529306 -33.75439453 92.38407898 C-33.75086031 93.91892419 -33.75160216 95.453784 -33.75617027 96.98862648 C-33.76178568 99.42355121 -33.75256813 101.85800348 -33.7389679 104.29289246 C-33.70193645 111.21359374 -33.68327871 118.13413394 -33.69458008 125.05493164 C-33.70045307 129.29495689 -33.68206548 133.53431663 -33.64869118 137.77420616 C-33.64077095 139.38361437 -33.64196811 140.99309576 -33.65271568 142.60248756 C-33.91547116 153.74188481 -33.91547116 153.74188481 -29.33992004 163.64506531 C-25.81826783 167.20617985 -22.35844118 168.16305458 -17.5 168.375 C-13.38620092 168.2501292 -10.57155878 167.09066855 -7 165 C-6.34 165 -5.68 165 -5 165 C-2.05707775 159.53457297 -0.75173371 154.60656588 -0.7215271 148.39407349 C-0.71036362 147.08163162 -0.69920013 145.76918976 -0.68769836 144.41697693 C-0.68533376 142.97476225 -0.68315805 141.53254725 -0.68115234 140.09033203 C-0.6718481 138.56236748 -0.66167869 137.03440799 -0.65071106 135.50645447 C-0.62345289 131.3685227 -0.60827407 127.2306249 -0.59528303 123.09262705 C-0.57963417 118.76441975 -0.55284954 114.43628162 -0.5272522 110.10812378 C-0.48049548 101.91663641 -0.44373634 93.72513599 -0.41057932 85.53358352 C-0.37233598 76.20588862 -0.32293161 66.87826325 -0.27259517 57.55062699 C-0.16932153 38.36713557 -0.08004627 19.1836017 0 0 Z " fill="#E4E5EB" transform="translate(434,236)"/>
<path d="M0 0 C0.495 0.99 0.495 0.99 1 2 C1.77190674 1.97381592 2.54381348 1.94763184 3.33911133 1.9206543 C6.83003458 1.81684381 10.3206337 1.75172245 13.8125 1.6875 C15.63491211 1.6246582 15.63491211 1.6246582 17.49414062 1.56054688 C18.65751953 1.54443359 19.82089844 1.52832031 21.01953125 1.51171875 C22.62985229 1.47244263 22.62985229 1.47244263 24.27270508 1.43237305 C27 2 27 2 28.8112793 4.46801758 C29.20355713 5.30357178 29.59583496 6.13912598 30 7 C31.9512178 8.9512178 35.70719406 8.15469822 38.37135315 8.15821838 C39.15216608 8.16315636 39.932979 8.16809434 40.73745292 8.17318195 C43.37387586 8.18863369 46.01027431 8.19693821 48.64672852 8.20532227 C50.52862771 8.21489477 52.41052472 8.22490447 54.29241943 8.23532104 C59.41821592 8.26244424 64.54402169 8.28341352 69.66985059 8.30332303 C75.02039118 8.32513702 80.37090293 8.35254807 85.72142029 8.37937927 C95.86096268 8.4293684 106.00052102 8.47428407 116.1400947 8.51740164 C127.68042521 8.56672098 139.2207268 8.62165871 150.76102936 8.67708123 C174.50732594 8.79099671 198.25365025 8.89781481 222 9 C222 12.3 222 15.6 222 19 C121.35 19 20.7 19 -83 19 C-83 15.7 -83 12.4 -83 9 C-81.52541573 8.98786972 -81.52541573 8.98786972 -80.02104187 8.97549438 C-70.76540555 8.89807473 -61.50991699 8.81034611 -52.25447369 8.71247292 C-47.49593215 8.66248568 -42.73741307 8.61615589 -37.97875977 8.578125 C-33.38806117 8.54130281 -28.79754943 8.4949513 -24.20701027 8.44193649 C-22.45392948 8.42337621 -20.70080862 8.40827431 -18.94766808 8.39665604 C-16.4957597 8.37982144 -14.04428077 8.3507936 -11.5925293 8.31884766 C-10.86460678 8.31668747 -10.13668427 8.31452728 -9.38670349 8.31230164 C-5.71247552 8.25097599 -4.14205588 8.09470392 -1 6 C-0.26656572 2.93443402 -0.26656572 2.93443402 0 0 Z " fill="#D83821" transform="translate(151,460)"/>
<path d="M0 0 C6.3464485 0 8.02967095 0.9865427 12.5 4.8125 C13.74055475 5.83113201 14.98144961 6.84934992 16.22265625 7.8671875 C16.85059082 8.39022461 17.47852539 8.91326172 18.12548828 9.45214844 C21.01691218 11.83970086 23.97841057 14.13481793 26.9375 16.4375 C32.69930673 20.95251373 38.41697649 25.52172442 44.11499023 30.11694336 C46.6905152 32.1874771 49.24839933 34.16559955 52 36 C52.36076355 38.06277466 52.36076355 38.06277466 52.34057617 40.63330078 C52.34023628 42.07456833 52.34023628 42.07456833 52.33988953 43.54495239 C52.32440567 44.58457123 52.30892181 45.62419006 52.29296875 46.6953125 C52.28872391 47.75789276 52.28447906 48.82047302 52.28010559 49.91525269 C52.26327389 53.31875646 52.22561303 56.72167433 52.1875 60.125 C52.17245899 62.42837688 52.15876958 64.73176302 52.14648438 67.03515625 C52.11335559 72.69033091 52.06154214 78.34506603 52 84 C48.7 84 45.4 84 42 84 C41.99589111 82.78417236 41.99178223 81.56834473 41.98754883 80.31567383 C41.9657433 75.7958767 41.91143887 71.27694837 41.84741211 66.75756836 C41.82424449 64.80322611 41.80983929 62.84875923 41.80444336 60.89428711 C41.79514468 58.08107957 41.75413525 55.26982888 41.70703125 52.45703125 C41.7109639 51.58601273 41.71489655 50.7149942 41.71894836 49.81758118 C41.61889178 45.63831453 41.33669789 43.50748668 38.97851562 39.953125 C35.18627751 37.46641148 32.03480964 37.26963608 27.63671875 37.29296875 C26.93405884 37.27834595 26.23139893 37.26372314 25.50744629 37.24865723 C22.90114347 37.20155113 20.29421115 37.19700477 17.6875 37.1875 C8.9321875 37.0946875 8.9321875 37.0946875 0 37 C0 24.79 0 12.58 0 0 Z " fill="#F14E2E" transform="translate(392,114)"/>
<path d="M0 0 C8.8472512 8.57456195 17.0866128 19.52794889 17.5625 32.25 C17.29583126 37.66758589 16.42990499 40.77857847 13 45 C7.95597261 49.09827226 3.41093365 49.79673372 -3.05078125 49.5859375 C-7.93711085 48.61514354 -11.04186817 45.92142092 -14 42 C-16.58182825 36.66479344 -16.92229459 31.82198459 -16 26 C-12.40510184 16.20390253 -6.50691869 8.05618504 0 0 Z " fill="#F9D52D" transform="translate(220,320)"/>
<path d="M0 0 C2.15820312 1.03540039 2.15820312 1.03540039 4 3 C4.4060449 5.73793013 4.56131409 8.07005046 4.53125 10.80859375 C4.5350769 11.57172379 4.53890381 12.33485382 4.54284668 13.12110901 C4.54556698 14.73415446 4.53819733 16.34724392 4.52148438 17.96020508 C4.5001028 20.42564694 4.52126353 22.88816534 4.546875 25.35351562 C4.54423116 26.92188142 4.53910502 28.4902454 4.53125 30.05859375 C4.53934692 30.79411972 4.54744385 31.52964569 4.55578613 32.28746033 C4.49307452 35.72299978 4.22799412 37.68447462 2.19335938 40.50024414 C0 42 0 42 -3.625 41.9375 C-7 41 -7 41 -9 38 C-9.20762825 35.34974072 -9.30404306 32.807078 -9.30078125 30.15625 C-9.30506638 29.39074829 -9.3093515 28.62524658 -9.31376648 27.83654785 C-9.31950517 26.21932972 -9.32001342 24.60208577 -9.31567383 22.98486328 C-9.31251149 20.50899347 -9.33598531 18.03431603 -9.36132812 15.55859375 C-9.36360092 13.98698068 -9.36430471 12.41536438 -9.36328125 10.84375 C-9.372491 10.10306274 -9.38170074 9.36237549 -9.39118958 8.59924316 C-9.34527612 3.5071184 -9.34527612 3.5071184 -7.66088867 1.03320312 C-5.028266 -0.60449483 -3.02353244 -0.37022846 0 0 Z " fill="#071720" transform="translate(110,309)"/>
<path d="M0 0 C1.65225586 -0.0009668 1.65225586 -0.0009668 3.33789062 -0.00195312 C4.48322266 0.01802734 5.62855469 0.03800781 6.80859375 0.05859375 C7.95779297 0.05150391 9.10699219 0.04441406 10.29101562 0.03710938 C18.71273901 0.10124669 18.71273901 0.10124669 21.06616211 1.84350586 C22.96925154 4.50893362 22.75482341 6.3165334 22.24609375 9.49609375 C20.15708127 12.51651307 18.52204742 14.24985254 14.83740234 14.9609375 C11.9370346 15.13387868 9.08806621 15.12860384 6.18359375 15.05859375 C5.19037109 15.06955078 4.19714844 15.08050781 3.17382812 15.09179688 C-4.0118044 15.01921473 -4.0118044 15.01921473 -7.375 12.6484375 C-9.19203407 9.81221719 -9.75390625 7.87165899 -9.75390625 4.49609375 C-6.82133468 0.64084674 -4.76011227 -0.00875651 0 0 Z " fill="#06181F" transform="translate(181.75390625,18.50390625)"/>
<path d="M0 0 C4.29 0 8.58 0 13 0 C13 3.3 13 6.6 13 10 C8.71 10 4.42 10 0 10 C0 6.7 0 3.4 0 0 Z " fill="#D93922" transform="translate(365,114)"/>
<path d="M0 0 C2.97 0 5.94 0 9 0 C9 2.97 9 5.94 9 9 C6.03 9 3.06 9 0 9 C0 6.03 0 3.06 0 0 Z " fill="#D8D8D8" transform="translate(434,212)"/>
</svg>
