<?xml version="1.0" encoding="UTF-8"?>
<svg version="1.1" xmlns="http://www.w3.org/2000/svg" width="512" height="512">
<path d="M0 0 C0.66725098 0.17740723 1.33450195 0.35481445 2.02197266 0.53759766 C25.32418972 6.85766067 46.36323716 19.70407012 63.9296875 36.08203125 C65.63581654 37.66261495 67.3628299 39.12473638 69.1875 40.5625 C72.86595643 43.75049558 75.91407256 47.24321876 79 51 C79.77601563 51.9384375 80.55203125 52.876875 81.3515625 53.84375 C91.71325136 66.67077128 103.20111613 82.95993718 101.8203125 100.25 C100.02132396 110.82364695 92.69338861 118.26926031 84.375 124.4375 C80.651551 127.26707466 78.79454718 129.61332913 77 134 C75.04059046 136.70585127 74.17392071 136.96248769 70.8125 137.6875 C69.4203125 137.8421875 69.4203125 137.8421875 68 138 C67.98582031 138.60585937 67.97164063 139.21171875 67.95703125 139.8359375 C67.57484437 146.55003128 65.96146448 154.03853552 61 159 C60.76712992 160.68183948 60.58735834 162.3712416 60.4375 164.0625 C60.35371094 164.98160156 60.26992188 165.90070313 60.18359375 166.84765625 C60.12300781 167.55792969 60.06242187 168.26820313 60 169 C60.82242187 168.95359375 61.64484375 168.9071875 62.4921875 168.859375 C71.90087265 168.55516809 78.37723841 169.97742512 86.25 175.125 C94.27019285 183.50974707 96.48786685 191.70950568 96.2734375 202.9765625 C95.9071967 210.81266518 92.31025007 216.53280716 87.06640625 222.20703125 C80.75388257 227.68424934 73.48428601 230.16052721 65.25 230.0625 C64.26515625 230.05347656 63.2803125 230.04445312 62.265625 230.03515625 C61.51796875 230.02355469 60.7703125 230.01195312 60 230 C60.0928125 231.7015625 60.0928125 231.7015625 60.1875 233.4375 C60.07143374 258.12092493 48.97582585 280.5143888 32.1875 298.125 C19.99744898 310 19.99744898 310 15 310 C16.54336012 311.79877535 18.10081934 313.56172466 19.72241211 315.29150391 C22 318 22 318 23.81176758 321.27416992 C26.47414067 325.63518009 29.34134339 328.76491032 34 331 C44.58730857 333.19274596 55.76346438 332.45636201 66.51556396 332.18133545 C72.86957837 332.03353788 79.22571094 332.01058262 85.58111763 331.96938705 C87.77572054 331.94599596 89.96833763 331.89648309 92.16233826 331.84109497 C109.04411507 331.51003846 123.58716495 335.66072952 136.6171875 346.6796875 C147.90608762 357.67248532 154.84256309 371.82340515 155.27415466 387.63554382 C155.29497468 389.76826652 155.3050955 391.90111162 155.30639648 394.03393555 C155.31472 395.20579407 155.32304352 396.37765259 155.33161926 397.58502197 C155.35559974 401.43562187 155.36447409 405.28605225 155.37109375 409.13671875 C155.37779569 411.14306688 155.38450009 413.14941501 155.39152867 415.15576202 C155.41292415 421.45256249 155.42232379 427.74930926 155.42553711 434.04614258 C155.4291804 440.530561 155.45915106 447.01450851 155.50094169 453.49878281 C155.53565681 459.08204308 155.55108564 464.66514703 155.55178314 470.24851447 C155.55257469 473.5765693 155.56363921 476.90403341 155.58978081 480.23200035 C155.61660435 483.93983712 155.61189663 487.64636414 155.59936523 491.35424805 C155.62161667 492.9978405 155.62161667 492.9978405 155.64431763 494.67463684 C155.63455399 495.68799103 155.62479034 496.70134521 155.61473083 497.7454071 C155.61674216 498.62048259 155.61875349 499.49555807 155.62082577 500.39715099 C154.92483999 503.31511283 154.0113662 505.56522615 151.96616608 507.79825574 C147.22874757 510.69382268 141.07056867 509.81571586 135.68945312 509.76190186 C134.19550966 509.7688149 132.70157639 509.77834398 131.20766449 509.79026532 C127.1009674 509.81534823 122.99510521 509.80291759 118.88840485 509.78434801 C114.46021321 509.77079277 110.03216684 509.79171654 105.60400391 509.80822754 C96.92870002 509.83493449 88.25370725 509.82913263 79.57839108 509.81175169 C72.52904134 509.79821199 65.47977892 509.79635907 58.43041992 509.80289459 C57.42786022 509.80381399 56.42530051 509.80473339 55.39236021 509.80568065 C53.35580251 509.80759896 51.31924484 509.80954424 49.28268719 509.8115162 C30.17715909 509.82863342 11.07180361 509.80894105 -8.03369617 509.776714 C-24.43400891 509.74990668 -40.83406686 509.75456261 -57.234375 509.78222656 C-76.27061917 509.81432167 -95.30671198 509.82698539 -114.34297943 509.80855298 C-116.37212624 509.80664165 -118.40127307 509.80475542 -120.43041992 509.80289459 C-121.42884934 509.80196894 -122.42727876 509.80104329 -123.45596361 509.80008958 C-130.49842996 509.79490482 -137.54080045 509.80366241 -144.58325195 509.81777191 C-153.16346489 509.83458411 -161.74334842 509.83007977 -170.32352352 509.79808745 C-174.7029884 509.78229727 -179.08190369 509.77617942 -183.46136475 509.79598236 C-187.46859487 509.81382838 -191.47476474 509.80409378 -195.48189831 509.77211705 C-196.9333653 509.76540056 -198.38492141 509.76885691 -199.83633137 509.78337178 C-210.55550249 509.88236741 -210.55550249 509.88236741 -213.96592951 507.79911727 C-216.73369821 504.77809347 -217.62470245 501.72493614 -217.62145996 497.72090149 C-217.63266876 496.70202347 -217.64387756 495.68314545 -217.65542603 494.63339233 C-217.64216278 493.53145538 -217.62889954 492.42951843 -217.61523438 491.29418945 C-217.62078339 490.12104691 -217.6263324 488.94790436 -217.63204956 487.73921204 C-217.64385307 483.86348532 -217.61955372 479.98892618 -217.59375 476.11328125 C-217.58957018 473.41293442 -217.59200214 470.71260129 -217.59387207 468.01225281 C-217.59381854 462.35055442 -217.5740971 456.68919019 -217.54199219 451.02758789 C-217.50519019 444.50649794 -217.4963049 437.98584691 -217.5032897 431.46466666 C-217.50962599 425.16845933 -217.49877726 418.87240065 -217.47932434 412.57622337 C-217.47120518 409.90860553 -217.46916701 407.24119634 -217.47001648 404.57354164 C-217.46820729 400.83305068 -217.44672553 397.09316818 -217.41992188 393.3527832 C-217.42285248 392.26096741 -217.42578308 391.16915161 -217.42880249 390.04425049 C-217.24730004 373.52519252 -210.68516053 358.70270582 -199 347 C-187.44546461 337.24991305 -174.23291061 331.79095095 -159.03588867 331.9375 C-157.65008199 331.94693733 -156.26427356 331.95612175 -154.87846375 331.96508789 C-153.78873544 331.97452927 -153.78873544 331.97452927 -152.67699242 331.98416138 C-148.79443899 332.011383 -144.91191913 332.00124708 -141.02929688 331.99609375 C-136.10458872 331.98989431 -131.1810294 331.99521148 -126.2565918 332.05126953 C-122.2614022 332.09575149 -118.26831174 332.09597483 -114.27300453 332.06713867 C-112.75924797 332.06407577 -111.2453674 332.07678673 -109.73189354 332.10620117 C-101.01892169 332.35877695 -101.01892169 332.35877695 -93.14614868 329.0769043 C-90.86997593 326.82816716 -88.93218963 324.5460217 -87 322 C-85.71747446 320.55433846 -84.42724987 319.11541957 -83.125 317.6875 C-80.96760195 315.20180224 -78.9532652 312.64918902 -77 310 C-77.71542969 309.75507813 -78.43085938 309.51015625 -79.16796875 309.2578125 C-84.48917264 306.89446401 -88.63928898 302.79406496 -93 299 C-93.70640625 298.3915625 -94.4128125 297.783125 -95.140625 297.15625 C-111.55066963 281.94694034 -121.1977452 258.28085704 -122.1171875 236.18359375 C-122.12363995 234.12203582 -122.06984355 232.06038458 -122 230 C-122.66644531 230.04640625 -123.33289063 230.0928125 -124.01953125 230.140625 C-133.35608525 230.50625229 -141.15659057 228.70590769 -148.4375 222.625 C-154.78399532 216.53807504 -158.16264402 210.17778383 -158.43066406 201.2902832 C-158.45719173 193.37272235 -157.56901122 187.72696988 -153 181 C-152.443125 180.0925 -151.88625 179.185 -151.3125 178.25 C-144.50716403 171.62859203 -137.57983355 168.84420166 -128.25 168.9375 C-126.49429688 168.95103516 -126.49429688 168.95103516 -124.703125 168.96484375 C-123.81109375 168.97644531 -122.9190625 168.98804688 -122 169 C-122.2632095 162.34079961 -123.0887959 158.52169991 -127 153 C-128.93572377 147.98175812 -130.19257708 143.40178713 -130 138 C-130.9075 137.9175 -131.815 137.835 -132.75 137.75 C-136.49957052 136.8847145 -137.66469941 136.00252933 -140 133 C-140.27714844 132.20078125 -140.55429688 131.4015625 -140.83984375 130.578125 C-142.21308099 127.5264867 -143.60777456 126.42740098 -146.3125 124.5 C-155.09440705 117.99801112 -161.47994745 111.13255426 -163.8125 100.1875 C-165.4067217 82.51538289 -152.659436 65.22290784 -141.96484375 52.3046875 C-141.31644531 51.54414062 -140.66804688 50.78359375 -140 50 C-139.34128906 49.21882813 -138.68257813 48.43765625 -138.00390625 47.6328125 C-133.67487358 42.62024835 -129.09340504 38.223129 -124 34 C-123.20078125 33.31292969 -122.4015625 32.62585937 -121.578125 31.91796875 C-104.1681997 17.21224783 -84.07804927 5.98149793 -62 0 C-60.30617187 -0.47566406 -60.30617187 -0.47566406 -58.578125 -0.9609375 C-40.15620418 -5.26992756 -18.20689465 -5.13729676 0 0 Z " fill="#5F99D6" transform="translate(287,3)"/>
<path d="M0 0 C3.12215428 1.35727511 4.93163119 2.78281963 7.06640625 5.421875 C7.62851807 6.11031494 8.19062988 6.79875488 8.76977539 7.50805664 C9.36137451 8.24789795 9.95297363 8.98773926 10.5625 9.75 C11.49340454 10.89746704 11.49340454 10.89746704 12.44311523 12.06811523 C16.63581032 17.25176201 20.77032696 22.48127993 24.86962891 27.73901367 C30.02426277 34.34321031 35.33237489 40.82213827 40.62841797 47.31298828 C42.43212585 49.53150403 44.21857918 51.76356567 46 54 C49.60189277 52.79936908 50.34305857 51.60185363 52.625 48.625 C53.33011719 47.71878906 54.03523437 46.81257813 54.76171875 45.87890625 C55.50035156 44.92886719 56.23898437 43.97882813 57 43 C58.4731862 41.18263578 59.95238379 39.37012831 61.4375 37.5625 C62.56478516 36.18771484 62.56478516 36.18771484 63.71484375 34.78515625 C64.46894531 33.86605469 65.22304688 32.94695312 66 32 C67.50028317 30.16689838 69.00028408 28.33356573 70.5 26.5 C72.76002052 23.73687926 75.02091569 20.97450788 77.28515625 18.21484375 C82.2348484 12.17842673 87.13801591 6.10728791 92 0 C95.71719372 1.55025821 98.06783556 3.83223772 100.875 6.6875 C101.69742188 7.51636719 102.51984375 8.34523438 103.3671875 9.19921875 C106 12 106 12 107.02674866 13.77674866 C108.4891343 16.08183986 109.7399682 17.44129288 112 19 C117.13520225 20.03057316 122.2318442 19.88228558 127.44140625 19.796875 C128.97111285 19.79864532 130.50081902 19.80393429 132.03050232 19.81256104 C136.05533103 19.82779806 140.07890297 19.80402896 144.10357666 19.76934814 C150.51819164 19.71887447 156.9327374 19.72068251 163.3474865 19.73575592 C165.56818111 19.73441176 167.78790134 19.71221624 170.00843811 19.68719482 C187.99237759 19.59026372 203.88602287 24.22999604 217 37 C228.8635868 50.37970012 233.29569048 64.48266505 233.30639648 82.03393555 C233.31472 83.20579407 233.32304352 84.37765259 233.33161926 85.58502197 C233.35559974 89.43562187 233.36447409 93.28605225 233.37109375 97.13671875 C233.37779569 99.14306688 233.38450009 101.14941501 233.39152867 103.15576202 C233.41292415 109.45256249 233.42232379 115.74930926 233.42553711 122.04614258 C233.4291804 128.530561 233.45915106 135.01450851 233.50094169 141.49878281 C233.53565681 147.08204308 233.55108564 152.66514703 233.55178314 158.24851447 C233.55257469 161.5765693 233.56363921 164.90403341 233.58978081 168.23200035 C233.61660435 171.93983712 233.61189663 175.64636414 233.59936523 179.35424805 C233.62161667 180.9978405 233.62161667 180.9978405 233.64431763 182.67463684 C233.63455399 183.68799103 233.62479034 184.70134521 233.61473083 185.7454071 C233.61674216 186.62048259 233.61875349 187.49555807 233.62082577 188.39715099 C232.92483999 191.31511283 232.0113662 193.56522615 229.96616608 195.79825574 C225.22874757 198.69382268 219.07056867 197.81571586 213.68945312 197.76190186 C212.19550966 197.7688149 210.70157639 197.77834398 209.20766449 197.79026532 C205.1009674 197.81534823 200.99510521 197.80291759 196.88840485 197.78434801 C192.46021321 197.77079277 188.03216684 197.79171654 183.60400391 197.80822754 C174.92870002 197.83493449 166.25370725 197.82913263 157.57839108 197.81175169 C150.52904134 197.79821199 143.47977892 197.79635907 136.43041992 197.80289459 C134.92658036 197.80427369 134.92658036 197.80427369 133.39236021 197.80568065 C131.35580251 197.80759896 129.31924484 197.80954424 127.28268719 197.8115162 C108.17715909 197.82863342 89.07180361 197.80894105 69.96630383 197.776714 C53.56599109 197.74990668 37.16593314 197.75456261 20.765625 197.78222656 C1.72938083 197.81432167 -17.30671198 197.82698539 -36.34297943 197.80855298 C-38.37212624 197.80664165 -40.40127307 197.80475542 -42.43041992 197.80289459 C-43.42884934 197.80196894 -44.42727876 197.80104329 -45.45596361 197.80008958 C-52.49842996 197.79490482 -59.54080045 197.80366241 -66.58325195 197.81777191 C-75.16346489 197.83458411 -83.74334842 197.83007977 -92.32352352 197.79808745 C-96.7029884 197.78229727 -101.08190369 197.77617942 -105.46136475 197.79598236 C-109.46859487 197.81382838 -113.47476474 197.80409378 -117.48189831 197.77211705 C-118.9333653 197.76540056 -120.38492141 197.76885691 -121.83633137 197.78337178 C-132.55550249 197.88236741 -132.55550249 197.88236741 -135.96592951 195.79911727 C-138.73369821 192.77809347 -139.62470245 189.72493614 -139.62145996 185.72090149 C-139.63266876 184.70202347 -139.64387756 183.68314545 -139.65542603 182.63339233 C-139.64216278 181.53145538 -139.62889954 180.42951843 -139.61523438 179.29418945 C-139.62078339 178.12104691 -139.6263324 176.94790436 -139.63204956 175.73921204 C-139.64385307 171.86348532 -139.61955372 167.98892618 -139.59375 164.11328125 C-139.58957018 161.41293442 -139.59200214 158.71260129 -139.59387207 156.01225281 C-139.59381854 150.35055442 -139.5740971 144.68919019 -139.54199219 139.02758789 C-139.50519019 132.50649794 -139.4963049 125.98584691 -139.5032897 119.46466666 C-139.50962599 113.16845933 -139.49877726 106.87240065 -139.47932434 100.57622337 C-139.47120518 97.90860553 -139.46916701 95.24119634 -139.47001648 92.57354164 C-139.46820729 88.83305068 -139.44672553 85.09316818 -139.41992188 81.3527832 C-139.42285248 80.26096741 -139.42578308 79.16915161 -139.42880249 78.04425049 C-139.24730004 61.52519252 -132.68516053 46.70270582 -121 35 C-109.44546461 25.24991305 -96.23291061 19.79095095 -81.03588867 19.9375 C-79.65008199 19.94693733 -78.26427356 19.95612175 -76.87846375 19.96508789 C-75.78873544 19.97452927 -75.78873544 19.97452927 -74.67699242 19.98416138 C-70.79443899 20.011383 -66.91191913 20.00124708 -63.02929688 19.99609375 C-58.10458872 19.98989431 -53.1810294 19.99521148 -48.2565918 20.05126953 C-44.2614022 20.09575149 -40.26831174 20.09597483 -36.27300453 20.06713867 C-34.75924797 20.06407577 -33.2453674 20.07678673 -31.73189354 20.10620117 C-23.02119942 20.35831246 -23.02119942 20.35831246 -15.14834595 17.08129883 C-12.86928745 14.83135245 -10.93181942 12.55002468 -9 10 C-7.69554501 8.51373372 -6.38426506 7.0333934 -5.0625 5.5625 C-4.51722656 4.92441406 -3.97195312 4.28632813 -3.41015625 3.62890625 C-2.32370902 2.37392427 -1.17374345 1.17374345 0 0 Z " fill="#5E98D6" transform="translate(209,315)"/>
<path d="M0 0 C3.71719372 1.55025821 6.06783556 3.83223772 8.875 6.6875 C9.69742188 7.51636719 10.51984375 8.34523438 11.3671875 9.19921875 C14 12 14 12 15.02674866 13.77674866 C16.4891343 16.08183986 17.7399682 17.44129288 20 19 C25.13520225 20.03057316 30.2318442 19.88228558 35.44140625 19.796875 C36.97111285 19.79864532 38.50081902 19.80393429 40.03050232 19.81256104 C44.05533103 19.82779806 48.07890297 19.80402896 52.10357666 19.76934814 C58.51819164 19.71887447 64.9327374 19.72068251 71.3474865 19.73575592 C73.56818111 19.73441176 75.78790134 19.71221624 78.00843811 19.68719482 C95.99237759 19.59026372 111.88602287 24.22999604 125 37 C136.8635868 50.37970012 141.29569048 64.48266505 141.30639648 82.03393555 C141.31472 83.20579407 141.32304352 84.37765259 141.33161926 85.58502197 C141.35559974 89.43562187 141.36447409 93.28605225 141.37109375 97.13671875 C141.37779569 99.14306688 141.38450009 101.14941501 141.39152867 103.15576202 C141.41292415 109.45256249 141.42232379 115.74930926 141.42553711 122.04614258 C141.4291804 128.530561 141.45915106 135.01450851 141.50094169 141.49878281 C141.53565681 147.08204308 141.55108564 152.66514703 141.55178314 158.24851447 C141.55257469 161.5765693 141.56363921 164.90403341 141.58978081 168.23200035 C141.61660435 171.93983712 141.61189663 175.64636414 141.59936523 179.35424805 C141.62161667 180.9978405 141.62161667 180.9978405 141.64431763 182.67463684 C141.56412725 190.99748018 141.56412725 190.99748018 139.35287476 194.68528748 C134.86156131 199.02883844 127.55016446 197.77430207 121.75463867 197.68115234 C120.28594024 197.67945918 118.81723674 197.68041132 117.34854126 197.68380737 C113.36711321 197.68552784 109.3867713 197.65027118 105.40559554 197.60836363 C101.24297208 197.57083729 97.08032328 197.5673298 92.91755676 197.56021118 C85.03743058 197.54156782 77.15780427 197.49233805 69.27789813 197.43211424 C60.30583498 197.36503296 51.33374786 197.3320561 42.36149633 197.30194163 C23.90738089 197.23923827 5.45373065 197.13371348 -13 197 C-14.63580117 193.05874976 -16.27041492 189.11700963 -17.90400791 185.17484379 C-18.45798184 183.83844715 -19.01226015 182.50217664 -19.56686878 181.16604328 C-24.00293829 170.47802933 -28.29501863 159.74274792 -32.4375 148.9375 C-33.30004993 146.69438218 -34.16368999 144.45169479 -35.02896118 142.20962524 C-35.58084105 140.77949742 -36.13132785 139.34883106 -36.68026733 137.91757202 C-38.6752065 132.74522423 -40.84395612 127.66374397 -43.13696289 122.61547852 C-44.14774711 119.55224474 -44.29718506 117.20741746 -44 114 C-42.35142364 111.51376862 -40.75519033 109.41754035 -38.8125 107.1875 C-37.71538924 105.87672035 -36.62041995 104.56414601 -35.52734375 103.25 C-34.95226074 102.56421875 -34.37717773 101.8784375 -33.78466797 101.171875 C-30.70706914 97.4265509 -27.79719712 93.55447072 -24.875 89.6875 C-23.79037412 88.25291365 -22.70453152 86.81924599 -21.6171875 85.38671875 C-21.15940918 84.78045654 -20.70163086 84.17419434 -20.22998047 83.54956055 C-19 82 -19 82 -17 80 C-17 79.01 -17 78.02 -17 77 C-19.04920098 75.32062524 -21.05846518 73.84665021 -23.25 72.375 C-24.53059685 71.48530834 -25.81053221 70.59466386 -27.08984375 69.703125 C-27.74065918 69.25388672 -28.39147461 68.80464844 -29.06201172 68.34179688 C-32.0048499 66.30427626 -34.9196074 64.23272982 -37.8125 62.125 C-38.78832031 61.42632812 -39.76414062 60.72765625 -40.76953125 60.0078125 C-43 58 -43 58 -44.06640625 56.05859375 C-43.96150509 52.80665772 -42.23358179 51.34781487 -40.125 48.9375 C-38.87589844 47.48150391 -38.87589844 47.48150391 -37.6015625 45.99609375 C-36.74304688 45.00738281 -35.88453125 44.01867187 -35 43 C-33.49342958 41.17206217 -31.99323753 39.33884551 -30.5 37.5 C-27.5 33.83333333 -24.5 30.16666667 -21.5 26.5 C-20.75878906 25.59378906 -20.01757812 24.68757813 -19.25390625 23.75390625 C-17.74201773 21.90662478 -16.22898251 20.06028125 -14.71484375 18.21484375 C-9.7651516 12.17842673 -4.86198409 6.10728791 0 0 Z " fill="#5E98D6" transform="translate(301,315)"/>
<path d="M0 0 C1.155 0.9075 2.31 1.815 3.5 2.75 C10.76286294 8.19073125 18.6478105 12.23639328 27.88652039 12.26742554 C29.04002487 12.27595551 30.19352936 12.28448547 31.38198853 12.29327393 C32.63353729 12.29236755 33.88508606 12.29146118 35.17456055 12.29052734 C36.51719027 12.29651739 37.85981655 12.30332403 39.20243835 12.31088257 C42.83908783 12.32850553 46.4756431 12.33323649 50.11233115 12.33451414 C52.38891619 12.33593888 54.66547752 12.34021466 56.94205666 12.34550858 C64.89750301 12.36399954 72.85288248 12.37218073 80.80834961 12.37060547 C88.20195076 12.36940566 95.59525924 12.39047863 102.9887864 12.4220928 C109.35337169 12.44832883 115.71786186 12.45896964 122.08250076 12.45769465 C125.87621313 12.45718698 129.6696655 12.46276054 133.46332359 12.48405075 C137.03643653 12.50355626 140.60904482 12.50347483 144.18217659 12.48901749 C146.10159911 12.4859622 148.02102235 12.50252105 149.94036865 12.51989746 C159.5829627 12.45061753 168.5568645 10.77997283 176.0625 4.3125 C179.96325459 1.0183727 179.96325459 1.0183727 182 0 C182 2.97 182 5.94 182 9 C182.82242188 8.95359375 183.64484375 8.9071875 184.4921875 8.859375 C193.90087265 8.55516809 200.37723841 9.97742512 208.25 15.125 C216.27019285 23.50974707 218.48786685 31.70950568 218.2734375 42.9765625 C217.9071967 50.81266518 214.31025007 56.53280716 209.06640625 62.20703125 C202.75388257 67.68424934 195.48428601 70.16052721 187.25 70.0625 C185.77273438 70.04896484 185.77273438 70.04896484 184.265625 70.03515625 C183.51796875 70.02355469 182.7703125 70.01195312 182 70 C182.061875 71.134375 182.12375 72.26875 182.1875 73.4375 C182.07143374 98.12092493 170.97582585 120.5143888 154.1875 138.125 C141.99744898 150 141.99744898 150 137 150 C136.74347656 150.56589844 136.48695313 151.13179687 136.22265625 151.71484375 C134.85952204 154.26255465 133.26364929 156.32316138 131.4375 158.5625 C130.72335937 159.44164062 130.00921875 160.32078125 129.2734375 161.2265625 C128.52320313 162.14179688 127.77296875 163.05703125 127 164 C126.27039063 164.89460937 125.54078125 165.78921875 124.7890625 166.7109375 C122.53003649 169.47725356 120.26540999 172.23891056 118 175 C116.49971683 176.83310162 114.99971592 178.66643427 113.5 180.5 C111.23997948 183.26312074 108.97908431 186.02549212 106.71484375 188.78515625 C101.7651516 194.82157327 96.86198409 200.89271209 92 207 C88.87784572 205.64272489 87.06836881 204.21718037 84.93359375 201.578125 C84.37148193 200.88968506 83.80937012 200.20124512 83.23022461 199.49194336 C82.34282593 198.3821814 82.34282593 198.3821814 81.4375 197.25 C80.81689697 196.48502197 80.19629395 195.72004395 79.55688477 194.93188477 C75.36353136 189.74742406 71.22905805 184.51660743 67.12817383 179.25878906 C63.51354791 174.62898312 59.83100038 170.05691861 56.125 165.5 C55.58931396 164.8412085 55.05362793 164.18241699 54.50170898 163.50366211 C53.98809814 162.87339111 53.4744873 162.24312012 52.9453125 161.59375 C52.45321289 160.98917969 51.96111328 160.38460937 51.45410156 159.76171875 C50.48448014 158.58697259 49.50193331 157.42277687 48.50683594 156.26953125 C45 152.19834856 45 152.19834856 45 150 C44.28457031 149.75507813 43.56914062 149.51015625 42.83203125 149.2578125 C37.51082736 146.89446401 33.36071102 142.79406496 29 139 C28.29359375 138.3915625 27.5871875 137.783125 26.859375 137.15625 C10.44933037 121.94694034 0.8022548 98.28085704 -0.1171875 76.18359375 C-0.12363995 74.12203582 -0.06984355 72.06038458 0 70 C-0.66644531 70.04640625 -1.33289063 70.0928125 -2.01953125 70.140625 C-11.35608525 70.50625229 -19.15659057 68.70590769 -26.4375 62.625 C-32.78399532 56.53807504 -36.16264402 50.17778383 -36.43066406 41.2902832 C-36.45719173 33.37272235 -35.56901122 27.72696988 -31 21 C-30.443125 20.0925 -29.88625 19.185 -29.3125 18.25 C-22.50716403 11.62859203 -15.57983355 8.84420166 -6.25 8.9375 C-4.49429688 8.95103516 -4.49429688 8.95103516 -2.703125 8.96484375 C-1.81109375 8.97644531 -0.9190625 8.98804688 0 9 C0 6.03 0 3.06 0 0 Z " fill="#FDD1A3" transform="translate(165,163)"/>
<path d="M0 0 C33.13177113 -0.63092728 33.13177113 -0.63092728 46 3 C46.66725098 3.17740723 47.33450195 3.35481445 48.02197266 3.53759766 C71.32418972 9.85766067 92.36323716 22.70407012 109.9296875 39.08203125 C111.63581654 40.66261495 113.3628299 42.12473638 115.1875 43.5625 C118.86595643 46.75049558 121.91407256 50.24321876 125 54 C125.77601563 54.9384375 126.55203125 55.876875 127.3515625 56.84375 C137.71325136 69.67077128 149.20111613 85.95993718 147.8203125 103.25 C146.02132396 113.82364695 138.69338861 121.26926031 130.375 127.4375 C126.651551 130.26707466 124.79454718 132.61332913 123 137 C121.04059046 139.70585127 120.17392071 139.96248769 116.8125 140.6875 C115.884375 140.790625 114.95625 140.89375 114 141 C113.98582031 141.60585937 113.97164062 142.21171875 113.95703125 142.8359375 C113.41232317 152.40513349 109.97294688 159.9608479 102.87890625 166.47265625 C92.79261691 174.6716981 83.30318372 176.45055925 70.48486328 176.40405273 C69.1417891 176.40976592 67.79871977 176.41673382 66.45565796 176.42485046 C62.83153009 176.44269395 59.20764552 176.44163009 55.58348703 176.43590808 C52.5469837 176.43280294 49.51052621 176.43892343 46.47402942 176.44494683 C39.30442432 176.45896194 32.13493845 176.45745638 24.96533203 176.44604492 C17.59380659 176.43457061 10.22264527 176.44863449 2.8511678 176.4754414 C-3.50075127 176.49766709 -9.85255661 176.50422026 -16.20451176 176.49836498 C-19.98810307 176.49501007 -23.77146115 176.49731177 -27.55501938 176.51461601 C-31.11588366 176.53019298 -34.67621277 176.52601234 -38.23705673 176.50731087 C-40.14927783 176.50192527 -42.06152359 176.51605754 -43.97369385 176.53100586 C-57.08773397 176.42014125 -66.47526436 172.42594261 -75.78515625 163.23828125 C-81.86629596 156.58936928 -83.48621937 149.80513708 -84 141 C-84.9075 140.9175 -85.815 140.835 -86.75 140.75 C-90.48693511 139.88763036 -91.7204481 139.03940253 -94 136 C-95.35387325 131.38294508 -95.11125535 126.75703535 -94.9375 122 C-94.93459961 120.80890625 -94.93459961 120.80890625 -94.93164062 119.59375 C-94.90134766 118.8203125 -94.87105469 118.046875 -94.83984375 117.25 C-94.82300537 116.55390625 -94.80616699 115.8578125 -94.78881836 115.140625 C-93.53538256 111.73916257 -91.04151254 109.79409102 -88 108 C-84.98117327 107.52670967 -82.54066921 107.34231449 -79.53384399 107.39872742 C-78.69567276 107.39445529 -77.85750153 107.39018317 -76.99393117 107.38578159 C-74.19283422 107.37756311 -71.39324352 107.40501707 -68.59228516 107.43237305 C-66.58157385 107.43378377 -64.57085996 107.43299107 -62.56015015 107.43016052 C-57.1059081 107.42872591 -51.6522158 107.45812354 -46.19810152 107.49303031 C-40.4966285 107.52428593 -34.79514289 107.52722394 -29.09359741 107.53315735 C-18.29888884 107.54869807 -7.50443345 107.58972985 3.29016364 107.6399048 C15.58023874 107.69579096 27.87032593 107.72328297 40.16049647 107.74838197 C65.44047135 107.80064532 90.72022149 107.88859227 116 108 C116.01606945 105.90879794 116.02756487 103.81756038 116.03710938 101.72631836 C116.0439978 100.5617662 116.05088623 99.39721405 116.0579834 98.19737244 C115.67234381 76.93208903 96.3408655 56.1307593 82 42 C59.41130131 20.59310353 30.60208631 6.35889069 0 1 C0 0.67 0 0.34 0 0 Z " fill="#0078C7" transform="translate(241,0)"/>
<path d="M0 0 C0.33 0 0.66 0 1 0 C1 2.97 1 5.94 1 9 C1.82242188 8.95359375 2.64484375 8.9071875 3.4921875 8.859375 C12.90087265 8.55516809 19.37723841 9.97742512 27.25 15.125 C35.27019285 23.50974707 37.48786685 31.70950568 37.2734375 42.9765625 C36.9071967 50.81266518 33.31025007 56.53280716 28.06640625 62.20703125 C21.75388257 67.68424934 14.48428601 70.16052721 6.25 70.0625 C4.77273438 70.04896484 4.77273438 70.04896484 3.265625 70.03515625 C2.51796875 70.02355469 1.7703125 70.01195312 1 70 C1.061875 71.134375 1.12375 72.26875 1.1875 73.4375 C1.07143374 98.12092493 -10.02417415 120.5143888 -26.8125 138.125 C-39.00255102 150 -39.00255102 150 -44 150 C-44.25652344 150.56589844 -44.51304687 151.13179687 -44.77734375 151.71484375 C-46.14047796 154.26255465 -47.73635071 156.32316138 -49.5625 158.5625 C-50.27664063 159.44164062 -50.99078125 160.32078125 -51.7265625 161.2265625 C-52.47679687 162.14179688 -53.22703125 163.05703125 -54 164 C-54.72960937 164.89460937 -55.45921875 165.78921875 -56.2109375 166.7109375 C-58.46996351 169.47725356 -60.73459001 172.23891056 -63 175 C-64.50028317 176.83310162 -66.00028408 178.66643427 -67.5 180.5 C-69.76002052 183.26312074 -72.02091569 186.02549212 -74.28515625 188.78515625 C-79.2348484 194.82157327 -84.13801591 200.89271209 -89 207 C-92.12215428 205.64272489 -93.93163119 204.21718037 -96.06640625 201.578125 C-96.62851807 200.88968506 -97.19062988 200.20124512 -97.76977539 199.49194336 C-98.65717407 198.3821814 -98.65717407 198.3821814 -99.5625 197.25 C-100.49340454 196.10253296 -100.49340454 196.10253296 -101.44311523 194.93188477 C-105.63646864 189.74742406 -109.77094195 184.51660743 -113.87182617 179.25878906 C-117.48645209 174.62898312 -121.16899962 170.05691861 -124.875 165.5 C-125.41068604 164.8412085 -125.94637207 164.18241699 -126.49829102 163.50366211 C-129.64044021 159.64781377 -132.80878148 155.81533136 -136 152 C-135.505 151.01 -135.505 151.01 -135 150 C-134.03320312 150.47050781 -133.06640625 150.94101562 -132.0703125 151.42578125 C-117.0750714 158.63763105 -105.38402947 162.69467999 -89 157 C-64.82665492 146.72542229 -46.63079568 130.24548673 -36 106 C-30.80756503 92.74810532 -29.84294237 80.20006699 -29.68359375 66.125 C-29.66299047 64.5894316 -29.64199319 63.05386844 -29.62062073 61.51831055 C-29.56574815 57.50055213 -29.51618718 53.48274553 -29.46777344 49.46490479 C-29.41730219 45.35546645 -29.36175065 41.24609703 -29.30664062 37.13671875 C-29.19948569 29.09120432 -29.09794824 21.04563176 -29 13 C-28.33105713 12.86940186 -27.66211426 12.73880371 -26.97290039 12.60424805 C-26.08594482 12.42933838 -25.19898926 12.25442871 -24.28515625 12.07421875 C-23.40996338 11.90237061 -22.53477051 11.73052246 -21.63305664 11.5534668 C-12.89172076 9.71604367 -6.39606409 6.39606409 0 0 Z " fill="#FEBC86" transform="translate(346,163)"/>
<path d="M0 0 C65.34 0 130.68 0 198 0 C196.95274014 11.51985848 195.39020474 18.65990926 186.87890625 26.47265625 C176.79261691 34.6716981 167.30318372 36.45055925 154.48486328 36.40405273 C153.1417891 36.40976592 151.79871977 36.41673382 150.45565796 36.42485046 C146.83153009 36.44269395 143.20764552 36.44163009 139.58348703 36.43590808 C136.5469837 36.43280294 133.51052621 36.43892343 130.47402942 36.44494683 C123.30442432 36.45896194 116.13493845 36.45745638 108.96533203 36.44604492 C101.59380659 36.43457061 94.22264527 36.44863449 86.8511678 36.4754414 C80.49924873 36.49766709 74.14744339 36.50422026 67.79548824 36.49836498 C64.01189693 36.49501007 60.22853885 36.49731177 56.44498062 36.51461601 C52.88411634 36.53019298 49.32378723 36.52601234 45.76294327 36.50731087 C43.85072217 36.50192527 41.93847641 36.51605754 40.02630615 36.53100586 C26.91226603 36.42014125 17.52473564 32.42594261 8.21484375 23.23828125 C1.56376492 15.96621717 0.92052812 10.12580937 0 0 Z " fill="#554F57" transform="translate(157,140)"/>
<path d="M0 0 C4.46163806 -0.07524167 8.92292117 -0.12910583 13.38500977 -0.16479492 C14.89679411 -0.17970277 16.40853663 -0.20003634 17.92016602 -0.22631836 C35.92490198 -0.53107824 51.48271643 2.72674251 65.6171875 14.6796875 C76.90608762 25.67248532 83.84256309 39.82340515 84.27415466 55.63554382 C84.29497468 57.76826652 84.3050955 59.90111162 84.30639648 62.03393555 C84.31472 63.20579407 84.32304352 64.37765259 84.33161926 65.58502197 C84.35559974 69.43562187 84.36447409 73.28605225 84.37109375 77.13671875 C84.37779569 79.14306688 84.38450009 81.14941501 84.39152867 83.15576202 C84.41292415 89.45256249 84.42232379 95.74930926 84.42553711 102.04614258 C84.4291804 108.530561 84.45915106 115.01450851 84.50094169 121.49878281 C84.53565681 127.08204308 84.55108564 132.66514703 84.55178314 138.24851447 C84.55257469 141.5765693 84.56363921 144.90403341 84.58978081 148.23200035 C84.61660435 151.93983712 84.61189663 155.64636414 84.59936523 159.35424805 C84.61419952 160.44997635 84.62903381 161.54570465 84.64431763 162.67463684 C84.56435845 170.97348377 84.56435845 170.97348377 81.68161011 174.68528748 C78.13834742 177.74376138 76.14801719 177.69676535 71.51171875 177.5859375 C70.80852005 177.57744781 70.10532135 177.56895813 69.3808136 177.56021118 C67.14810955 177.52678324 64.91910021 177.45154502 62.6875 177.375 C61.1686722 177.34488573 59.64978741 177.31751245 58.13085938 177.29296875 C54.41938466 177.22703363 50.71005327 177.1235945 47 177 C47.78375 176.401875 48.5675 175.80375 49.375 175.1875 C52.0534721 172.95543991 53.83489643 171.39266811 54.25726891 167.82990646 C54.26062059 166.98198154 54.26397228 166.13405663 54.26742554 165.26043701 C54.27595551 164.28512024 54.28448547 163.30980347 54.29327393 162.30493164 C54.29191437 160.70137817 54.29191437 160.70137817 54.29052734 159.06542969 C54.29724457 157.93816467 54.30396179 156.81089966 54.31088257 155.6494751 C54.3299417 151.9068973 54.33379206 148.16449838 54.3359375 144.421875 C54.3423645 141.81650723 54.34909279 139.21114018 54.35610962 136.60577393 C54.36891158 131.13137655 54.37187414 125.65702751 54.37060547 120.18261719 C54.36941016 113.88942397 54.3903854 107.59657713 54.4220928 101.30347133 C54.45161682 95.22355577 54.45857528 89.14380331 54.45738602 83.06381989 C54.45973317 80.49165696 54.46850624 77.91949099 54.48405075 75.34737396 C54.58330402 57.21198403 54.18056182 41.66429439 44 26 C43.48695313 25.20980469 42.97390625 24.41960937 42.4453125 23.60546875 C32.88487739 10.17969026 18.53924547 4.30369235 2.89453125 1.48046875 C1.93933594 1.32191406 0.98414063 1.16335938 0 1 C0 0.67 0 0.34 0 0 Z " fill="#3C87D0" transform="translate(358,335)"/>
<path d="M0 0 C3.12215428 1.35727511 4.93163119 2.78281963 7.06640625 5.421875 C7.62851807 6.11031494 8.19062988 6.79875488 8.76977539 7.50805664 C9.36137451 8.24789795 9.95297363 8.98773926 10.5625 9.75 C11.18310303 10.51497803 11.80370605 11.27995605 12.44311523 12.06811523 C16.63581032 17.25176201 20.77032696 22.48127993 24.86962891 27.73901367 C30.03236095 34.35358583 35.33628141 40.85466412 40.65966797 47.34033203 C41.76577737 48.70997351 42.82854923 50.11449346 43.87890625 51.52734375 C49.40769787 57.97250967 56.3584065 62.8684546 63.25 67.75 C64.81788142 68.86954931 66.3855956 69.98933287 67.953125 71.109375 C68.63536133 71.59374023 69.31759766 72.07810547 70.02050781 72.57714844 C72.03451932 74.02481236 74.02071633 75.50530339 76 77 C75.40810285 80.09659663 74.50964007 81.92856901 72.48046875 84.328125 C71.95831787 84.9557373 71.43616699 85.58334961 70.89819336 86.22998047 C70.33366455 86.89658691 69.76913574 87.56319336 69.1875 88.25 C63.85909862 94.64408166 58.7942881 101.17006192 53.9597168 107.94628906 C53.49734619 108.58018555 53.03497559 109.21408203 52.55859375 109.8671875 C52.15954834 110.42519043 51.76050293 110.98319336 51.34936523 111.55810547 C49.74659787 113.27077853 48.13529805 114.06678098 46 115 C40.38132373 108.36518015 34.90404955 101.66094817 29.63378906 94.74658203 C25.8359199 89.76584431 21.93668653 84.87137467 18 80 C14.73959857 80.60576751 12.79383274 81.69607185 10.21484375 83.7578125 C9.51939453 84.30050781 8.82394531 84.84320313 8.10742188 85.40234375 C6.65460385 86.55570603 5.2040969 87.71198511 3.75585938 88.87109375 C3.06169922 89.41121094 2.36753906 89.95132813 1.65234375 90.5078125 C1.02320068 91.00941895 0.39405762 91.51102539 -0.25415039 92.02783203 C-1.11834595 92.50905518 -1.11834595 92.50905518 -2 93 C-2.99 92.67 -3.98 92.34 -5 92 C-5.90618808 88.8555594 -6.58460718 85.83348937 -7.1875 82.625 C-7.38819092 81.60873535 -7.58888184 80.5924707 -7.7956543 79.54541016 C-8.39959063 76.45458592 -8.98814409 73.36118445 -9.57116699 70.26635742 C-10.04577974 67.75805674 -10.52688206 65.25104994 -11.00878906 62.74414062 C-11.93339278 57.93035317 -12.84968847 53.1150487 -13.75991821 48.29852295 C-14.12751821 46.35367598 -14.49630797 44.4090535 -14.86630249 42.46466064 C-15.39193294 39.69363838 -15.9099338 36.92129557 -16.42578125 34.1484375 C-16.66447433 32.89809723 -16.66447433 32.89809723 -16.9079895 31.62249756 C-17.68922573 27.37657496 -18.34760276 23.33597379 -18 19 C-16.27734375 16.7265625 -16.27734375 16.7265625 -13.9375 14.625 C-10.18039155 11.12271121 -6.74539453 7.53184466 -3.41015625 3.62890625 C-2.32370902 2.37392427 -1.17374345 1.17374345 0 0 Z " fill="#3C87CF" transform="translate(209,315)"/>
<path d="M0 0 C33.13177113 -0.63092728 33.13177113 -0.63092728 46 3 C46.66725098 3.17740723 47.33450195 3.35481445 48.02197266 3.53759766 C71.32418972 9.85766067 92.36323716 22.70407012 109.9296875 39.08203125 C111.63581654 40.66261495 113.3628299 42.12473638 115.1875 43.5625 C118.86595643 46.75049558 121.91407256 50.24321876 125 54 C125.77601563 54.9384375 126.55203125 55.876875 127.3515625 56.84375 C137.71325136 69.67077128 149.20111613 85.95993718 147.8203125 103.25 C145.81430042 115.04043836 136.9310297 122.59554129 127.98828125 129.64453125 C126 131 126 131 124 131 C123.94392578 129.22882813 123.94392578 129.22882813 123.88671875 127.421875 C123.82104851 125.86455212 123.75460153 124.30726186 123.6875 122.75 C123.66494141 121.97269531 123.64238281 121.19539063 123.61914062 120.39453125 C123.36786219 114.58828601 123.36786219 114.58828601 120 110 C117.91665365 108.7483533 117.91665365 108.7483533 116 108 C116.04640625 107.21238281 116.0928125 106.42476563 116.140625 105.61328125 C116.92379663 81.97828014 102.02089339 63.236296 86.66625977 46.74072266 C63.63767512 22.65792274 32.73087558 6.73167406 0 1 C0 0.67 0 0.34 0 0 Z " fill="#3C87D0" transform="translate(241,0)"/>
<path d="M0 0 C4.26020411 1.9670084 7.87117944 4.70080799 11.66015625 7.44140625 C15.49190831 9.99377532 18.49913388 10.13603153 23 10.125 C24.051875 10.12757812 25.10375 10.13015625 26.1875 10.1328125 C29.08126878 10.12353635 29.08126878 10.12353635 32 9 C36.63079004 24.62891639 32.43233326 39.82241786 24.9140625 53.8671875 C20.25593987 61.49129842 14.61133746 67.94341606 6 71 C0.53165857 72.04514375 -4.15892395 71.2028832 -8.96875 68.42578125 C-20.51850504 60.31874165 -27.65576806 47.05211342 -30.609375 33.36328125 C-32.79076343 14.58152686 -32.79076343 14.58152686 -30 9 C-29.15695313 9.23976563 -29.15695313 9.23976563 -28.296875 9.484375 C-21.38367711 11.03631738 -14.18564075 10.57337812 -8 7 C-5.17780522 4.81789063 -2.55877711 2.48391927 0 0 Z " fill="#FDE077" transform="translate(255,37)"/>
<path d="M0 0 C4.83545269 2.01662889 7.93437906 5.71064774 11.51171875 9.42578125 C13.86659843 11.92746209 13.86659843 11.92746209 16.01953125 13.79296875 C18.57913793 16.22069874 19.95840688 17.87899321 20.09263611 21.4967041 C19.28655821 29.31888836 18.04823802 36.99719305 16.56640625 44.71875 C16.32840805 45.97965454 16.09040985 47.24055908 15.84519958 48.53967285 C15.3456828 51.18249653 14.84182711 53.82444352 14.3347168 56.46582031 C13.68641991 59.84446814 13.04919489 63.22509629 12.41511631 66.60643768 C11.80472478 69.85332166 11.18518049 73.09845481 10.56640625 76.34375 C10.3392543 77.5541394 10.11210236 78.76452881 9.87806702 80.01159668 C9.6612175 81.13376587 9.44436798 82.25593506 9.22094727 83.41210938 C9.03299088 84.39739624 8.84503448 85.38268311 8.65138245 86.39782715 C8.0381372 88.84764776 7.22875117 90.80406019 6 93 C3.25164995 91.70152826 0.85833435 90.26335487 -1.56640625 88.43359375 C-2.21673828 87.94826172 -2.86707031 87.46292969 -3.53710938 86.96289062 C-4.89173959 85.9426725 -6.24590355 84.921835 -7.59960938 83.90039062 C-8.57317383 83.17432617 -8.57317383 83.17432617 -9.56640625 82.43359375 C-10.44727905 81.76928345 -10.44727905 81.76928345 -11.34594727 81.09155273 C-13.12654873 79.81415127 -13.12654873 79.81415127 -16 79 C-17.6695427 77.33621434 -19.33571258 75.66904252 -21 74 C-23.18577446 72.28105035 -25.46200617 70.70428446 -27.75 69.125 C-33.29433627 65.23651765 -38.70755456 61.22835588 -44 57 C-43.39738701 53.3257347 -41.85773744 51.27707664 -39.5 48.4375 C-38.77683594 47.55835938 -38.05367188 46.67921875 -37.30859375 45.7734375 C-36.54675781 44.85820312 -35.78492188 43.94296875 -35 43 C-33.51984297 41.18830868 -32.04068066 39.37580422 -30.5625 37.5625 C-29.04194699 35.70810344 -27.52111276 33.85393744 -26 32 C-24.49971683 30.16689838 -22.99971592 28.33356573 -21.5 26.5 C-19.23997948 23.73687926 -16.97908431 20.97450788 -14.71484375 18.21484375 C-9.7651516 12.17842673 -4.86198409 6.10728791 0 0 Z " fill="#3C87CF" transform="translate(301,315)"/>
<path d="M0 0 C0.66 0 1.32 0 2 0 C9.09032107 16.82521754 15.92194586 33.74222459 22.5625 50.75 C22.91111084 51.64081268 23.25972168 52.53162537 23.61889648 53.44943237 C24.62500839 56.02250842 25.62763152 58.59691326 26.62890625 61.171875 C26.92535538 61.93031204 27.2218045 62.68874908 27.52723694 63.47016907 C29.51861 68.61178265 31.25174667 73.75524001 33 79 C11.88 79 -9.24 79 -31 79 C-27.62409153 68.87227458 -27.62409153 68.87227458 -25.95043945 64.59814453 C-25.57607254 63.6390921 -25.20170563 62.68003967 -24.81599426 61.69192505 C-24.41909897 60.68241791 -24.02220367 59.67291077 -23.61328125 58.6328125 C-23.19257858 57.55861053 -22.77187592 56.48440857 -22.33842468 55.37765503 C-21.44948474 53.10972496 -20.55939282 50.84224612 -19.66821289 48.57519531 C-18.33068096 45.17126927 -16.99808407 41.76544218 -15.66601562 38.359375 C-10.62320291 25.4940305 -5.44280594 12.70147675 0 0 Z " fill="#554E57" transform="translate(255,433)"/>
<path d="M0 0 C0 19.8 0 39.6 0 60 C-19.4486692 60 -19.4486692 60 -27.28125 52.9453125 C-34.68886512 45.18878797 -36.51175043 38.60684989 -36.49707031 28.01025391 C-36.2686456 21.67814279 -34.51686681 17.17789429 -31 12 C-30.443125 11.0925 -29.88625 10.185 -29.3125 9.25 C-20.32595085 0.50633056 -12.58054668 0 0 0 Z " fill="#FEBD86" transform="translate(165,172)"/>
<path d="M0 0 C3.03171475 1.41388812 5.62019427 3.08496882 8.30078125 5.08203125 C9.11353516 5.68466797 9.92628906 6.28730469 10.76367188 6.90820312 C11.60478516 7.53662109 12.44589844 8.16503906 13.3125 8.8125 C14.97490878 10.04865012 16.63766363 11.28433497 18.30078125 12.51953125 C19.4911499 13.40439209 19.4911499 13.40439209 20.70556641 14.30712891 C23.77857128 16.57444278 26.88396515 18.792283 30 21 C29.40810285 24.09659663 28.50964007 25.92856901 26.48046875 28.328125 C25.95831787 28.9557373 25.43616699 29.58334961 24.89819336 30.22998047 C24.33366455 30.89658691 23.76913574 31.56319336 23.1875 32.25 C17.85909862 38.64408166 12.7942881 45.17006192 7.9597168 51.94628906 C7.49734619 52.58018555 7.03497559 53.21408203 6.55859375 53.8671875 C6.15954834 54.42519043 5.76050293 54.98319336 5.34936523 55.55810547 C3.74659787 57.27077853 2.13529805 58.06678098 0 59 C-5.61909616 52.36468432 -11.11676393 45.67140021 -16.36401367 38.73779297 C-19.65556144 34.3966997 -23.12756067 30.23370198 -26.69921875 26.12109375 C-28 24 -28 24 -27.82958984 22.07006836 C-26.74371049 19.36048299 -25.3955827 18.44598545 -23.02734375 16.7578125 C-22.20943359 16.16613281 -21.39152344 15.57445312 -20.54882812 14.96484375 C-19.68708984 14.35769531 -18.82535156 13.75054687 -17.9375 13.125 C-16.25892401 11.91953616 -14.58053681 10.71380938 -12.90234375 9.5078125 C-12.08491699 8.92547852 -11.26749023 8.34314453 -10.42529297 7.74316406 C-6.909349 5.21610146 -3.45008252 2.61597681 0 0 Z " fill="#434044" transform="translate(255,371)"/>
<path d="M0 0 C10.56 0 21.12 0 32 0 C30.9059853 10.94014697 29.0041851 18.00279396 20.88671875 25.46875 C13.37147653 31.56807702 6.36681569 34.27690303 -3.46484375 34.1953125 C-4.48210289 34.19106766 -4.48210289 34.19106766 -5.51991272 34.18673706 C-7.65929766 34.17565416 -9.7982443 34.1505736 -11.9375 34.125 C-13.39908244 34.11495476 -14.86067153 34.10583163 -16.32226562 34.09765625 C-19.88164979 34.07575425 -23.44078203 34.04130866 -27 34 C-25.0461753 33.01738361 -23.09731735 32.04414395 -21.10546875 31.140625 C-12.76623235 27.26823009 -7.12982636 22.25965272 -3 14 C-2.01 9.38 -1.02 4.76 0 0 Z " fill="#433F43" transform="translate(323,141)"/>
<path d="M0 0 C4.18087152 -0.07441989 8.3613873 -0.12872818 12.54272461 -0.16479492 C13.96369141 -0.1798376 15.38461213 -0.20027704 16.80541992 -0.22631836 C18.85346886 -0.26290347 20.9009015 -0.27977097 22.94921875 -0.29296875 C24.79519653 -0.31653442 24.79519653 -0.31653442 26.6784668 -0.34057617 C30.30742508 0.03152209 32.12172368 0.80051691 35 3 C37.72658278 7.08987416 37.56302153 10.55898087 37.8125 15.375 C37.87630859 16.22578125 37.94011719 17.0765625 38.00585938 17.953125 C38.27447067 22.81082783 38.36084335 26.15697999 35 30 C30.88341316 33.07934753 28.0270728 33.31190554 22.94921875 33.07421875 C22.29041214 33.04777786 21.63160553 33.02133698 20.95283508 32.99409485 C18.86341592 32.90682189 16.7758328 32.79751361 14.6875 32.6875 C13.26503825 32.62418952 11.84251136 32.56232524 10.41992188 32.50195312 C6.94570329 32.35136532 3.47278173 32.18100944 0 32 C0.639375 31.731875 1.27875 31.46375 1.9375 31.1875 C4.33131686 30.11332248 4.33131686 30.11332248 5 27 C5.30610389 23.3802246 5.32359317 19.75619167 5.375 16.125 C5.41238281 15.13113281 5.44976562 14.13726562 5.48828125 13.11328125 C5.49988281 12.15035156 5.51148438 11.18742187 5.5234375 10.1953125 C5.54325684 9.31891113 5.56307617 8.44250977 5.58349609 7.53955078 C4.76002873 3.95557274 2.70244038 2.38261862 0 0 Z " fill="#0268B4" transform="translate(328,108)"/>
<path d="M0 0 C3.02727854 0.98715604 4.04014351 1.40345181 5.875 3.9375 C6.23576355 6.87980652 6.23576355 6.87980652 6.21557617 10.52026367 C6.21601425 11.18394455 6.21645233 11.84762543 6.21690369 12.53141785 C6.21481519 14.72306839 6.19148268 16.91395201 6.16796875 19.10546875 C6.16237298 20.6257536 6.15810279 22.14604386 6.15510559 23.66633606 C6.14365524 27.66627965 6.11418672 31.66589606 6.08099365 35.66571045 C6.05029669 39.7477984 6.03660107 43.82993925 6.02148438 47.91210938 C5.98931688 55.92073974 5.93654769 63.92904147 5.875 71.9375 C1.255 71.9375 -3.365 71.9375 -8.125 71.9375 C-8.23796909 63.14051033 -8.32969669 54.34400248 -8.38406086 45.54645157 C-8.41015327 41.46135762 -8.44554342 37.37678568 -8.50219727 33.29199219 C-8.55653189 29.34973778 -8.58642322 25.40798538 -8.59938622 21.46538544 C-8.6086237 19.96142421 -8.62666295 18.45749043 -8.65365028 16.95374298 C-8.68996389 14.84648832 -8.69494498 12.74130636 -8.69262695 10.63378906 C-8.70373001 9.43465881 -8.71483307 8.23552856 -8.72627258 7.00006104 C-8.125 3.9375 -8.125 3.9375 -5.78483582 1.51507568 C-3.125 -0.0625 -3.125 -0.0625 0 0 Z " fill="#3C87D0" transform="translate(371.125,440.0625)"/>
<path d="M0 0 C3.02727854 0.98715604 4.04014351 1.40345181 5.875 3.9375 C6.23576355 6.87980652 6.23576355 6.87980652 6.21557617 10.52026367 C6.21601425 11.18394455 6.21645233 11.84762543 6.21690369 12.53141785 C6.21481519 14.72306839 6.19148268 16.91395201 6.16796875 19.10546875 C6.16237298 20.6257536 6.15810279 22.14604386 6.15510559 23.66633606 C6.14365524 27.66627965 6.11418672 31.66589606 6.08099365 35.66571045 C6.05029669 39.7477984 6.03660107 43.82993925 6.02148438 47.91210938 C5.98931688 55.92073974 5.93654769 63.92904147 5.875 71.9375 C1.255 71.9375 -3.365 71.9375 -8.125 71.9375 C-8.23796909 63.14051033 -8.32969669 54.34400248 -8.38406086 45.54645157 C-8.41015327 41.46135762 -8.44554342 37.37678568 -8.50219727 33.29199219 C-8.55653189 29.34973778 -8.58642322 25.40798538 -8.59938622 21.46538544 C-8.6086237 19.96142421 -8.62666295 18.45749043 -8.65365028 16.95374298 C-8.68996389 14.84648832 -8.69494498 12.74130636 -8.69262695 10.63378906 C-8.70373001 9.43465881 -8.71483307 8.23552856 -8.72627258 7.00006104 C-8.125 3.9375 -8.125 3.9375 -5.78483582 1.51507568 C-3.125 -0.0625 -3.125 -0.0625 0 0 Z " fill="#3C87D0" transform="translate(143.125,440.0625)"/>
<path d="M0 0 C0 18.81 0 37.62 0 57 C-8.10558784 52.94720608 -14.06178636 48.77615892 -18 40.4375 C-20.46777385 32.33605821 -20.45339181 21.93645782 -16.75 14.3125 C-15.87247675 12.85077603 -14.96043296 11.408635 -14 10 C-13.401875 9.071875 -12.80375 8.14375 -12.1875 7.1875 C-9.08339399 4.08339399 -4.58741717 0 0 0 Z " fill="#FED2A4" transform="translate(148,174)"/>
<path d="M0 0 C2.69716805 0.81590039 4.33403037 1.7842033 6.55395508 3.4987793 C7.61259766 4.30605469 7.61259766 4.30605469 8.69262695 5.12963867 C9.41385742 5.69360352 10.13508789 6.25756836 10.87817383 6.83862305 C11.61874023 7.40645508 12.35930664 7.97428711 13.12231445 8.55932617 C14.94300277 9.95714495 16.75700324 11.36281114 18.56567383 12.77612305 C15.72255983 17.8895625 12.17400406 22.4523311 8.62817383 27.08862305 C8.00749023 27.92458008 7.38680664 28.76053711 6.74731445 29.62182617 C6.14209961 30.41137695 5.53688477 31.20092773 4.91333008 32.0144043 C4.36684814 32.73668213 3.82036621 33.45895996 3.25732422 34.203125 C1.56567383 35.77612305 1.56567383 35.77612305 -2.43432617 35.77612305 C-3.91064453 34.51025391 -3.91064453 34.51025391 -5.27416992 32.7409668 C-5.78012695 32.09579102 -6.28608398 31.45061523 -6.80737305 30.78588867 C-7.32364258 30.10204102 -7.83991211 29.41819336 -8.37182617 28.71362305 C-9.14042969 27.72845703 -9.14042969 27.72845703 -9.92456055 26.72338867 C-13.20889741 22.48755396 -16.3429439 18.15415798 -19.43432617 13.77612305 C-15.96015476 10.18699743 -12.38658071 6.97621905 -8.43432617 3.90112305 C-7.42370117 3.09932617 -6.41307617 2.2975293 -5.37182617 1.47143555 C-2.43432617 -0.22387695 -2.43432617 -0.22387695 0 0 Z " fill="#544E56" transform="translate(256.434326171875,393.223876953125)"/>
<path d="M0 0 C2.15622571 0.00097226 4.30888763 -0.04066043 6.46459961 -0.08496094 C7.84284744 -0.09016879 9.22110757 -0.09285612 10.59936523 -0.09277344 C11.84645264 -0.09986328 13.09354004 -0.10695313 14.37841797 -0.11425781 C18.63038506 0.66665882 20.13201313 2.10223836 22.72827148 5.50097656 C22.72827148 8.93781107 22.53119807 11.27550385 20.62646484 14.18261719 C17.73339025 16.19195517 14.75915656 15.96873894 11.35717773 15.96972656 C10.27907082 15.98114685 10.27907082 15.98114685 9.17918396 15.99279785 C7.66034414 16.0035938 6.14143011 16.00645396 4.62255859 16.00195312 C2.30171527 16.00098115 -0.01581623 16.04258999 -2.33618164 16.08691406 C-3.8133883 16.09212167 -5.29060643 16.09480925 -6.76782227 16.09472656 C-7.80548988 16.11931946 -7.80548988 16.11931946 -8.86412048 16.14440918 C-12.5402667 16.09183794 -14.01957256 15.73695046 -16.74072266 13.19042969 C-18.27172852 10.50097656 -18.27172852 10.50097656 -18.27172852 6.87597656 C-15.72994872 -1.70253025 -7.4488077 -0.02374122 0 0 Z " fill="#FCDF78" transform="translate(185.271728515625,468.4990234375)"/>
<path d="M0 0 C2.15622571 0.00097226 4.30888763 -0.04066043 6.46459961 -0.08496094 C7.84284744 -0.09016879 9.22110757 -0.09285612 10.59936523 -0.09277344 C11.84645264 -0.09986328 13.09354004 -0.10695313 14.37841797 -0.11425781 C18.63038506 0.66665882 20.13201313 2.10223836 22.72827148 5.50097656 C22.72827148 8.93781107 22.53119807 11.27550385 20.62646484 14.18261719 C17.73339025 16.19195517 14.75915656 15.96873894 11.35717773 15.96972656 C10.27907082 15.98114685 10.27907082 15.98114685 9.17918396 15.99279785 C7.66034414 16.0035938 6.14143011 16.00645396 4.62255859 16.00195312 C2.30171527 16.00098115 -0.01581623 16.04258999 -2.33618164 16.08691406 C-3.8133883 16.09212167 -5.29060643 16.09480925 -6.76782227 16.09472656 C-7.80548988 16.11931946 -7.80548988 16.11931946 -8.86412048 16.14440918 C-12.5402667 16.09183794 -14.01957256 15.73695046 -16.74072266 13.19042969 C-18.27172852 10.50097656 -18.27172852 10.50097656 -18.27172852 6.87597656 C-15.72994872 -1.70253025 -7.4488077 -0.02374122 0 0 Z " fill="#FCDF78" transform="translate(322.271728515625,468.4990234375)"/>
</svg>
