<?xml version="1.0" encoding="UTF-8"?>
<svg version="1.1" xmlns="http://www.w3.org/2000/svg" width="512" height="512">
<path d="M0 0 C32.013306 27.83983834 53.16270979 67.29510499 57.42919922 109.66357422 C57.55068826 112.39799923 57.63816389 115.10864416 57.66748047 117.84326172 C57.67731964 118.60484589 57.68715881 119.36643005 57.69729614 120.15109253 C58.13967547 163.36996288 48.01773096 202.69843555 29.42919922 241.66357422 C29.01299316 242.53981445 28.59678711 243.41605469 28.16796875 244.31884766 C11.47273739 279.21734783 -10.3252288 311.57317256 -34.57080078 341.66357422 C-35.31716797 342.59298828 -36.06353516 343.52240234 -36.83251953 344.47998047 C-45.52178284 355.19725855 -54.51033601 365.64347724 -63.90283203 375.74951172 C-65.88372937 377.91312726 -67.81280566 380.09548757 -69.72729492 382.31616211 C-75.78499346 389.24657617 -82.30424206 395.73670166 -88.77783203 402.27563477 C-90.3996453 403.91922723 -92.01515261 405.56906436 -93.62451172 407.22485352 C-95.95957377 409.62646247 -98.31340879 412.00811454 -100.67236328 414.38623047 C-101.39017975 415.13187759 -102.10799622 415.87752472 -102.8475647 416.64576721 C-103.52531952 417.32074753 -104.20307434 417.99572784 -104.90136719 418.69116211 C-105.49092194 419.29102432 -106.08047668 419.89088654 -106.68789673 420.50892639 C-108.57080078 421.66357422 -108.57080078 421.66357422 -111.04211426 421.57800293 C-114.01058486 420.50453861 -115.48079209 419.24273731 -117.69921875 417.00512695 C-118.47707733 416.23019394 -119.25493591 415.45526093 -120.05636597 414.65684509 C-120.88355133 413.81215164 -121.71073669 412.96745819 -122.56298828 412.09716797 C-123.42715363 411.22971451 -124.29131897 410.36226105 -125.18167114 409.46852112 C-127.94584612 406.68858515 -130.69558358 403.89481208 -133.44580078 401.10107422 C-135.28998731 399.24539592 -137.13503008 397.39056813 -138.98095703 395.53662109 C-140.75907186 393.74506835 -142.53643965 391.95277381 -144.31298828 390.15966797 C-145.54769363 388.91388222 -145.54769363 388.91388222 -146.80734253 387.64292908 C-151.57811665 382.79406658 -156.13763906 377.82144363 -160.57080078 372.66357422 C-162.02525595 371.05589049 -163.48300973 369.45117707 -164.94580078 367.85107422 C-169.67695423 362.60220196 -174.12956864 357.15795346 -178.57080078 351.66357422 C-179.58162846 350.43237335 -180.59340127 349.20194804 -181.60595703 347.97216797 C-228.52383842 290.86644422 -278.30901278 215.76237886 -278.77392578 139.14013672 C-278.78094009 138.36042007 -278.78795441 137.58070343 -278.79518127 136.77735901 C-278.81255814 134.28103779 -278.81903143 131.78495365 -278.82080078 129.28857422 C-278.82147552 128.43631256 -278.82215027 127.5840509 -278.82284546 126.70596313 C-278.80744278 114.4798322 -278.59774888 102.57815717 -275.57080078 90.66357422 C-275.39387695 89.95620117 -275.21695313 89.24882812 -275.03466797 88.52001953 C-273.740077 83.50040517 -272.2210042 78.57665319 -270.57080078 73.66357422 C-270.35053223 72.9976123 -270.13026367 72.33165039 -269.90332031 71.64550781 C-262.13906133 48.5331639 -248.94168102 28.5802028 -232.57080078 10.66357422 C-231.82314453 9.84373047 -231.07548828 9.02388672 -230.30517578 8.17919922 C-205.35754043 -17.87721993 -170.84052076 -33.63585476 -135.57080078 -39.33642578 C-133.87697266 -39.61099609 -133.87697266 -39.61099609 -132.14892578 -39.89111328 C-84.08356264 -45.59758215 -36.73811596 -31.25651955 0 0 Z " fill="#EDEDED" transform="translate(366.57080078125,66.33642578125)"/>
<path d="M0 0 C32.013306 27.83983834 53.16270979 67.29510499 57.42919922 109.66357422 C57.55068826 112.39799923 57.63816389 115.10864416 57.66748047 117.84326172 C57.67731964 118.60484589 57.68715881 119.36643005 57.69729614 120.15109253 C58.13967547 163.36996288 48.01773096 202.69843555 29.42919922 241.66357422 C29.01299316 242.53981445 28.59678711 243.41605469 28.16796875 244.31884766 C11.47273739 279.21734783 -10.3252288 311.57317256 -34.57080078 341.66357422 C-35.31716797 342.59298828 -36.06353516 343.52240234 -36.83251953 344.47998047 C-45.52178284 355.19725855 -54.51033601 365.64347724 -63.90283203 375.74951172 C-65.88372937 377.91312726 -67.81280566 380.09548757 -69.72729492 382.31616211 C-75.78499346 389.24657617 -82.30424206 395.73670166 -88.77783203 402.27563477 C-90.3996453 403.91922723 -92.01515261 405.56906436 -93.62451172 407.22485352 C-95.95957377 409.62646247 -98.31340879 412.00811454 -100.67236328 414.38623047 C-101.39017975 415.13187759 -102.10799622 415.87752472 -102.8475647 416.64576721 C-103.52531952 417.32074753 -104.20307434 417.99572784 -104.90136719 418.69116211 C-105.49092194 419.29102432 -106.08047668 419.89088654 -106.68789673 420.50892639 C-108.57080078 421.66357422 -108.57080078 421.66357422 -111.04211426 421.57800293 C-114.01058486 420.50453861 -115.48079209 419.24273731 -117.69921875 417.00512695 C-118.47707733 416.23019394 -119.25493591 415.45526093 -120.05636597 414.65684509 C-120.88355133 413.81215164 -121.71073669 412.96745819 -122.56298828 412.09716797 C-123.42715363 411.22971451 -124.29131897 410.36226105 -125.18167114 409.46852112 C-127.94584612 406.68858515 -130.69558358 403.89481208 -133.44580078 401.10107422 C-135.28998731 399.24539592 -137.13503008 397.39056813 -138.98095703 395.53662109 C-140.75907186 393.74506835 -142.53643965 391.95277381 -144.31298828 390.15966797 C-145.54769363 388.91388222 -145.54769363 388.91388222 -146.80734253 387.64292908 C-151.57811665 382.79406658 -156.13763906 377.82144363 -160.57080078 372.66357422 C-162.02525595 371.05589049 -163.48300973 369.45117707 -164.94580078 367.85107422 C-169.67695423 362.60220196 -174.12956864 357.15795346 -178.57080078 351.66357422 C-179.58162846 350.43237335 -180.59340127 349.20194804 -181.60595703 347.97216797 C-228.52383842 290.86644422 -278.30901278 215.76237886 -278.77392578 139.14013672 C-278.78094009 138.36042007 -278.78795441 137.58070343 -278.79518127 136.77735901 C-278.81255814 134.28103779 -278.81903143 131.78495365 -278.82080078 129.28857422 C-278.82147552 128.43631256 -278.82215027 127.5840509 -278.82284546 126.70596313 C-278.80744278 114.4798322 -278.59774888 102.57815717 -275.57080078 90.66357422 C-275.39387695 89.95620117 -275.21695313 89.24882812 -275.03466797 88.52001953 C-273.740077 83.50040517 -272.2210042 78.57665319 -270.57080078 73.66357422 C-270.35053223 72.9976123 -270.13026367 72.33165039 -269.90332031 71.64550781 C-262.13906133 48.5331639 -248.94168102 28.5802028 -232.57080078 10.66357422 C-231.82314453 9.84373047 -231.07548828 9.02388672 -230.30517578 8.17919922 C-205.35754043 -17.87721993 -170.84052076 -33.63585476 -135.57080078 -39.33642578 C-133.87697266 -39.61099609 -133.87697266 -39.61099609 -132.14892578 -39.89111328 C-84.08356264 -45.59758215 -36.73811596 -31.25651955 0 0 Z M-140.57080078 -7.33642578 C-141.78638672 -7.05798828 -143.00197266 -6.77955078 -144.25439453 -6.49267578 C-178.38126995 1.74607042 -208.61512801 24.62992778 -226.94873047 54.38452148 C-234.01239983 66.22499025 -239.28726426 78.24251717 -242.57080078 91.66357422 C-242.85697266 92.74896484 -243.14314453 93.83435547 -243.43798828 94.95263672 C-252.10727631 128.22618981 -245.21132622 165.03847899 -228.27954102 194.6003418 C-224.24813725 201.4172352 -219.78378444 207.68817978 -214.57080078 213.66357422 C-213.77287109 214.60587891 -212.97494141 215.54818359 -212.15283203 216.51904297 C-195.01881735 236.31834882 -170.97374633 251.24395783 -145.57080078 257.66357422 C-144.86922852 257.84549316 -144.16765625 258.02741211 -143.44482422 258.21484375 C-109.74245385 266.72314596 -72.49158639 261.3825981 -42.38330078 243.99560547 C-9.32617542 224.06950491 12.47321579 193.77648896 22.42919922 156.66357422 C22.91066406 154.92720703 22.91066406 154.92720703 23.40185547 153.15576172 C28.07872803 133.01258036 27.01113 110.49751808 21.42919922 90.66357422 C21.12369141 89.53701416 21.12369141 89.53701416 20.81201172 88.38769531 C11.17887257 53.75745204 -12.59200865 24.37141818 -43.74267578 6.72216797 C-72.64001085 -9.07415816 -108.3603846 -15.76124715 -140.57080078 -7.33642578 Z " fill="#F94B4B" transform="translate(366.57080078125,66.33642578125)"/>
<path d="M0 0 C0.66 0 1.32 0 2 0 C-8.72896821 71.95000149 -54.18960871 138.29010113 -100.59521484 192.35693359 C-102.01599182 194.01870437 -103.42502753 195.68983978 -104.83203125 197.36328125 C-110.02204365 203.51380457 -115.33851656 209.519609 -120.8515625 215.3828125 C-121.49620453 216.06874985 -122.14084656 216.75468719 -122.80502319 217.46141052 C-129.6299974 224.70024795 -136.53463487 231.85837476 -143.52880859 238.93383789 C-144.95031287 240.37736174 -146.36549735 241.8271312 -147.77490234 243.2824707 C-149.84882763 245.42278617 -151.94133098 247.5432014 -154.0390625 249.66015625 C-154.66616119 250.3150856 -155.29325989 250.97001495 -155.93936157 251.64479065 C-156.5312326 252.23388718 -157.12310364 252.8229837 -157.73291016 253.42993164 C-158.24504059 253.95236954 -158.75717102 254.47480743 -159.28482056 255.01307678 C-161 256 -161 256 -163.44616699 255.88928223 C-166.45074676 254.84304335 -167.89343201 253.5958656 -170.12841797 251.34155273 C-170.90627655 250.56661972 -171.68413513 249.79168671 -172.48556519 248.99327087 C-173.72634323 247.7262307 -173.72634323 247.7262307 -174.9921875 246.43359375 C-175.85635284 245.56614029 -176.72051819 244.69868683 -177.61087036 243.8049469 C-180.37504534 241.02501094 -183.1247828 238.23123786 -185.875 235.4375 C-187.71918653 233.5818217 -189.56422929 231.72699391 -191.41015625 229.87304688 C-193.18827107 228.08149413 -194.96563887 226.28919959 -196.7421875 224.49609375 C-197.5653244 223.66556992 -198.3884613 222.83504608 -199.23654175 221.97935486 C-204.00731587 217.13049236 -208.56683827 212.15786941 -213 207 C-214.45445517 205.39231627 -215.91220895 203.78760285 -217.375 202.1875 C-222.10615345 196.93862774 -226.55876785 191.49437924 -231 186 C-232.01082767 184.76879913 -233.02260049 183.53837382 -234.03515625 182.30859375 C-262 148.26608539 -262 148.26608539 -262 143 C-260.18242187 142.65388672 -260.18242187 142.65388672 -258.328125 142.30078125 C-204.6477558 131.9320027 -152.04299935 112.3010819 -104.85546875 84.59375 C-102 83 -102 83 -100 83 C-100 82.01 -100 81.02 -100 80 C-97.71092769 78.38950644 -95.48912792 76.99723452 -93.0625 75.625 C-92.37317383 75.22289307 -91.68384766 74.82078613 -90.97363281 74.40649414 C-87.43337982 72.3507695 -83.85875052 70.37052359 -80.25 68.4375 C-74.81209284 65.46396275 -69.96024812 61.69614057 -65 58 C-63.16736502 56.68652507 -61.33403568 55.37401839 -59.5 54.0625 C-53.81469291 49.92333875 -48.39270254 45.5110618 -43 41 C-41.99195313 40.16726563 -40.98390625 39.33453125 -39.9453125 38.4765625 C-28.89916374 29.29955229 -18.43573696 19.49456511 -8.25 9.375 C-7.76072021 8.89039307 -7.27144043 8.40578613 -6.76733398 7.90649414 C-4.78009572 5.91009322 -2.95831374 3.94282481 -1.296875 1.6640625 C-0.86890625 1.11492187 -0.4409375 0.56578125 0 0 Z " fill="#DC3C46" transform="translate(419,232)"/>
<path d="M0 0 C11.83221106 7.0141085 18.7162383 17.758008 22.8203125 30.671875 C23.39534591 33.49912261 23.69839394 35.83023478 23.8203125 38.671875 C23.93246094 40.30769531 23.93246094 40.30769531 24.046875 41.9765625 C24.64290498 57.06553203 20.00412874 70.64986529 9.72265625 81.984375 C4.18029328 87.30191549 0.66371138 88.53451545 -7.1796875 91.671875 C-7.5096875 118.401875 -7.8396875 145.131875 -8.1796875 172.671875 C-13.4596875 172.671875 -18.7396875 172.671875 -24.1796875 172.671875 C-24.1796875 145.941875 -24.1796875 119.211875 -24.1796875 91.671875 C-27.1496875 90.681875 -30.1196875 89.691875 -33.1796875 88.671875 C-45.36581668 81.60904338 -51.07835345 70.18190984 -55.296875 57.24609375 C-58.64079253 43.70766656 -56.02414306 28.10195431 -48.90234375 16.203125 C-37.58413925 -0.4277061 -19.35959348 -9.1893537 0 0 Z " fill="#AD2A37" transform="translate(328.1796875,115.328125)"/>
<path d="M0 0 C5.28 0 10.56 0 16 0 C15.98839844 1.97315186 15.97679687 3.94630371 15.96484375 5.97924805 C15.93583969 12.50543827 15.94371754 19.03077279 15.97665405 25.5569334 C15.99527469 29.51320269 15.99917948 33.46833709 15.96923828 37.42456055 C15.94087548 41.24423777 15.95144964 45.06202122 15.98880005 48.88160133 C15.9962353 50.33720319 15.98974027 51.79294625 15.96896362 53.24841881 C15.56491781 61.09381448 15.56491781 61.09381448 18.63671875 67.92715454 C20.72831942 69.27159935 22.67400067 70.12856783 25 71 C26.98 71.99 28.96 72.98 31 74 C31.33 49.58 31.66 25.16 32 0 C37.28 0 42.56 0 48 0 C48.33 24.42 48.66 48.84 49 74 C56.46590261 70.62618738 56.46590261 70.62618738 63 66 C63.12380838 63.94521547 63.17798203 61.8862104 63.20532227 59.82788086 C63.21522186 59.18399918 63.22512146 58.54011749 63.23532104 57.87672424 C63.26701528 55.73946869 63.29172449 53.60219087 63.31640625 51.46484375 C63.33696896 49.98653064 63.35796524 48.50822351 63.37937927 47.02992249 C63.43467059 43.13207829 63.48404857 39.23418042 63.53222656 35.33624268 C63.58239019 31.36148277 63.63810301 27.38680116 63.69335938 23.41210938 C63.80102726 15.60813726 63.90194032 7.80409985 64 0 C69.28 0 74.56 0 80 0 C80.09065236 8.71064614 80.1639174 17.42097495 80.20724869 26.13198757 C80.2280538 30.17760798 80.25624026 34.22288672 80.30175781 38.26831055 C80.34547058 42.17815026 80.36919022 46.08766297 80.37950897 49.99772835 C80.38685506 51.48357345 80.40119959 52.96940224 80.42292023 54.45510674 C80.66696957 71.85257322 80.66696957 71.85257322 74.39257812 78.77290344 C70.13740647 82.8117224 64.99143407 85.34880063 59.75 87.875 C58.54730469 88.47828125 58.54730469 88.47828125 57.3203125 89.09375 C51.40896046 92 51.40896046 92 48 92 C48 119.72 48 147.44 48 176 C42.72 176 37.44 176 32 176 C32 148.28 32 120.56 32 92 C30.35 91.67 28.7 91.34 27 91 C23.75635557 89.65309621 20.67496656 87.99952065 17.5625 86.375 C16.31243164 85.75431641 16.31243164 85.75431641 15.03710938 85.12109375 C8.67262589 81.81055609 3.63609425 78.15236265 0.94096375 71.31219482 C-0.07555794 67.73403585 -0.24086178 64.79181877 -0.22705078 61.07666016 C-0.22734283 60.4125412 -0.22763489 59.74842224 -0.22793579 59.06417847 C-0.22655261 56.88900263 -0.21103988 54.71417782 -0.1953125 52.5390625 C-0.19157876 51.02306302 -0.18873349 49.50706111 -0.18673706 47.99105835 C-0.17912902 44.01590218 -0.1595051 40.04089394 -0.1373291 36.0657959 C-0.11680948 32.0035197 -0.1077223 27.94121942 -0.09765625 23.87890625 C-0.07625629 15.91919564 -0.04109748 7.95963331 0 0 Z " fill="#AD2A37" transform="translate(176,112)"/>
<path d="M0 0 C0 0.66 0 1.32 0 2 C-1.76371818 3.03307771 -3.53625033 4.05112049 -5.3125 5.0625 C-6.79169922 5.91521484 -6.79169922 5.91521484 -8.30078125 6.78515625 C-11 8 -11 8 -14 7 C-11.725306 4.44736912 -9.56797307 3.15855185 -6.4375 1.8125 C-5.65246094 1.46832031 -4.86742187 1.12414062 -4.05859375 0.76953125 C-2 0 -2 0 0 0 Z " fill="#F65354" transform="translate(319,313)"/>
</svg>
