<?xml version="1.0" encoding="UTF-8"?>
<svg version="1.1" xmlns="http://www.w3.org/2000/svg" width="512" height="512">
<path d="M0 0 C1.10669232 -0.00307895 1.10669232 -0.00307895 2.23574206 -0.0062201 C4.72753712 -0.01191007 7.21927725 -0.0104304 9.71107769 -0.00901413 C11.50780431 -0.01159662 13.30453035 -0.01460945 15.1012556 -0.01801753 C20.05398292 -0.02610438 25.00669576 -0.02787804 29.95942891 -0.028615 C35.29492307 -0.03046262 40.63040966 -0.03800844 45.96589947 -0.04475021 C57.63930509 -0.05834574 69.31270729 -0.06436007 80.98611951 -0.06876087 C88.27101321 -0.07152108 95.55590558 -0.07575801 102.84079838 -0.08026505 C122.99919362 -0.09245901 143.15758779 -0.10275826 163.31598663 -0.10614014 C165.25213229 -0.10646949 165.25213229 -0.10646949 167.227392 -0.10680549 C169.1682424 -0.10713291 169.1682424 -0.10713291 171.1483019 -0.10746694 C173.77035733 -0.10791041 176.39241276 -0.10835697 179.01446819 -0.10880661 C180.31510587 -0.10902804 181.61574354 -0.10924947 182.95579448 -0.10947761 C204.03890909 -0.11342707 225.12198917 -0.13088504 246.20509044 -0.15416613 C267.83591314 -0.17785983 289.46671849 -0.19034107 311.09755439 -0.19150805 C323.24850067 -0.1924259 335.39940196 -0.19820576 347.55033588 -0.21632767 C357.89557484 -0.23170189 368.2407549 -0.23686496 378.5860031 -0.22858956 C383.86668149 -0.22467363 389.14724118 -0.22565857 394.42790508 -0.23964691 C399.25962325 -0.25232927 404.09113281 -0.2512384 408.92285045 -0.2390562 C410.6731944 -0.23708934 412.42355284 -0.24022294 414.17387638 -0.24890056 C416.54929332 -0.25993402 418.92396637 -0.25254718 421.29936218 -0.24050903 C421.98223717 -0.24810423 422.66511216 -0.25569942 423.36868033 -0.26352477 C428.7212322 -0.20478461 432.71728982 1.21483042 436.70172405 4.81502151 C437.17996624 5.39381058 437.65820843 5.97259964 438.1509428 6.56892776 C438.64207561 7.1451387 439.13320843 7.72134964 439.63922405 8.31502151 C441.82334561 11.62321867 441.96264819 14.92066791 441.95196819 18.80818558 C441.95189266 19.72883804 441.95181713 20.64949051 441.95173931 21.59804153 C441.94657803 22.58359024 441.94141674 23.56913895 441.93609905 24.58455276 C441.93397663 26.10759018 441.93397663 26.10759018 441.93181133 27.66139603 C441.92621796 30.90143669 441.91366665 34.14140802 441.9009428 37.38142776 C441.89592695 39.57934343 441.89136419 41.77726019 441.88727093 43.97517776 C441.8762507 49.36061805 441.85951914 54.74601795 441.8384428 60.13142776 C442.65828655 60.08502151 443.4781303 60.03861526 444.3228178 59.99080276 C445.40047405 59.95470901 446.4781303 59.91861526 447.5884428 59.88142776 C448.65578655 59.83502151 449.7231303 59.78861526 450.8228178 59.74080276 C454.51277687 60.21877674 455.56471006 61.26269954 457.8384428 64.13142776 C459.82527678 68.10509571 459.11100409 73.07463214 459.1509428 77.44392776 C459.17994671 78.49000198 459.20895061 79.5360762 459.23883343 80.61384964 C459.30288964 88.35479605 459.30288964 88.35479605 456.94391155 92.29939651 C451.71869076 96.8460172 450.93794402 95.13142776 441.8384428 95.13142776 C441.8384428 212.94142776 441.8384428 330.75142776 441.8384428 452.13142776 C445.1384428 452.13142776 448.4384428 452.13142776 451.8384428 452.13142776 C455.52467291 453.74415344 456.59199281 454.76175277 458.8384428 458.13142776 C459.2501124 462.66394462 459.21004475 467.20603852 459.20904827 471.75496292 C459.21341446 473.99190678 459.24971978 476.22686515 459.28766155 478.46345901 C459.29353157 479.89183771 459.29749973 481.32022574 459.2993803 482.74861526 C459.30759808 484.04396194 459.31581585 485.33930862 459.32428265 486.67390823 C458.76174228 490.67727338 457.6633548 492.2999355 454.8384428 495.13142776 C451.73522845 496.68303494 448.45349123 496.27221297 445.04750633 496.26564884 C444.22952376 496.26800107 443.41154119 496.2703533 442.56877127 496.27277681 C439.79819035 496.27949095 437.02765607 496.27900787 434.25706768 496.27859879 C432.26250092 496.2818959 430.26793484 496.28562114 428.27336961 496.28974026 C422.76917865 496.29978557 417.2649986 496.30348111 411.76079977 496.30612957 C405.83361715 496.3100251 399.90644324 496.31960388 393.97926617 496.32834244 C380.33165499 496.34719191 366.68404225 496.35736566 353.03642163 496.36580312 C346.29537453 496.37000721 339.55432834 496.37522949 332.813282 496.38048765 C309.74750659 496.39837849 286.68173094 496.41337577 263.61594963 496.42080784 C262.16746903 496.4212826 260.71898843 496.42175849 259.27050783 496.4222355 C258.193012 496.42259006 258.193012 496.42259006 257.09374859 496.42295179 C253.45420329 496.42415302 249.81465801 496.42536846 246.17511272 496.42659378 C245.45282843 496.42683393 244.73054413 496.42707408 243.98637243 496.42732151 C220.55978744 496.43521724 197.13325303 496.45865438 173.70669012 496.49114972 C148.95095656 496.52542624 124.1952526 496.54515692 99.43949491 496.54845208 C96.72334435 496.54886963 94.00719382 496.5493492 91.29104328 496.54987526 C90.62222856 496.54999845 89.95341385 496.55012164 89.26433202 496.55024857 C79.15646047 496.55243855 69.04864174 496.56575228 58.94078922 496.58491325 C47.44741616 496.60656247 35.95413549 496.61469922 24.46074434 496.60494647 C18.59284167 496.60038508 12.72512988 496.60239443 6.85725307 496.62170792 C1.49011841 496.63922133 -3.87668445 496.63843867 -9.24382206 496.62281062 C-11.19000655 496.62041648 -13.13621332 496.62485064 -15.08236358 496.63663927 C-17.71968356 496.65163064 -20.35580835 496.64217492 -22.99309731 496.62641239 C-23.75589374 496.6366346 -24.51869017 496.64685681 -25.30460164 496.65738878 C-30.20246108 496.59311228 -32.72980094 495.63357984 -36.1615572 492.13142776 C-38.40190844 487.65072528 -37.4301307 481.56590164 -37.45672321 476.58333206 C-37.47391371 474.33767203 -37.5177972 472.09349343 -37.56194782 469.84822464 C-37.57207721 468.41529274 -37.58059254 466.98234834 -37.58733845 465.54939651 C-37.60192097 464.24768509 -37.61650349 462.94597366 -37.6315279 461.60481644 C-37.08504583 457.56595906 -36.05917901 455.94589559 -33.1615572 453.13142776 C-30.1615572 452.13142776 -30.1615572 452.13142776 -20.1615572 452.13142776 C-20.1615572 334.32142776 -20.1615572 216.51142776 -20.1615572 95.13142776 C-23.7915572 95.13142776 -27.4215572 95.13142776 -31.1615572 95.13142776 C-34.16353183 93.33024298 -35.61322086 92.22810044 -37.1615572 89.13142776 C-37.40334119 85.34496846 -37.34675543 81.54974566 -37.3490572 77.75642776 C-37.36130329 76.70197464 -37.37354939 75.64752151 -37.38616657 74.56111526 C-37.38810017 73.54533401 -37.39003376 72.52955276 -37.39202595 71.48299026 C-37.39613483 70.5530928 -37.40024372 69.62319534 -37.40447712 68.66511917 C-37.14519768 65.96079554 -36.64481006 64.39535627 -35.1615572 62.13142776 C-31.63476621 59.78023377 -30.13276234 59.91699325 -25.9740572 60.00642776 C-24.88737751 60.02447464 -23.80069782 60.04252151 -22.68108845 60.06111526 C-21.84964314 60.08431839 -21.01819782 60.10752151 -20.1615572 60.13142776 C-20.16821903 59.57068054 -20.17488087 59.00993332 -20.18174458 58.43219376 C-20.24831255 52.5757307 -20.29344658 46.71937581 -20.32635212 40.86262894 C-20.34140275 38.67931627 -20.36184794 36.49603365 -20.38787556 34.31282425 C-20.42442238 31.16764771 -20.44132118 28.02287228 -20.45452595 24.87752151 C-20.4700098 23.90745667 -20.48549366 22.93739182 -20.50144672 21.93793106 C-20.50304946 15.42758677 -19.89771795 10.25313844 -15.4428072 5.17049026 C-14.8549947 4.70384964 -14.2671822 4.23720901 -13.6615572 3.75642776 C-13.0737447 3.27431839 -12.4859322 2.79220901 -11.8803072 2.29549026 C-8.12612299 -0.24711631 -4.342635 -0.01113811 0 0 Z " fill="#F4EEC9" transform="translate(45.1615571975708,7.868572235107422)"/>
<path d="M0 0 C1.27534564 -0.00761181 1.27534564 -0.00761181 2.57645583 -0.0153774 C3.98566531 -0.01612404 3.98566531 -0.01612404 5.42334366 -0.01688576 C6.914137 -0.02345914 6.914137 -0.02345914 8.43504739 -0.03016531 C11.78679985 -0.04358865 15.13852601 -0.04974009 18.49029922 -0.0558567 C20.88477066 -0.06375485 23.2792409 -0.07202362 25.67370987 -0.08063698 C32.87503664 -0.10462233 40.07636521 -0.11978951 47.27771795 -0.13269705 C49.311321 -0.13640837 51.34492337 -0.14038165 53.37852573 -0.14444971 C66.00379825 -0.16968584 78.62907184 -0.19174148 91.25436401 -0.20417786 C94.17936329 -0.20710761 97.10436253 -0.21006927 100.02936172 -0.21308327 C100.75636686 -0.21382932 101.483372 -0.21457537 102.2324076 -0.21534403 C114.01031209 -0.22799852 125.78806565 -0.2612222 137.56589958 -0.3028851 C149.65486555 -0.34529842 161.74375424 -0.36887219 173.83279443 -0.37409842 C180.6216229 -0.37751327 187.41021551 -0.38927674 194.19897079 -0.42220116 C200.58477071 -0.45220185 206.97015897 -0.45862191 213.35601425 -0.4468174 C215.70139472 -0.446596 218.04679385 -0.45495549 220.39210892 -0.47247124 C223.5914965 -0.49506718 226.78937934 -0.48691128 229.98877335 -0.47098732 C231.38459849 -0.49181045 231.38459849 -0.49181045 232.80862212 -0.51305425 C236.93409653 -0.46237895 240.09984051 -0.24397796 243.53687191 2.17643261 C246.54593592 5.85287271 246.79664765 8.5540393 246.70174026 13.11432457 C246.70898351 13.91206714 246.71622676 14.70980971 246.7236895 15.5317263 C246.74058551 18.20242109 246.71463131 20.87095772 246.68878555 23.5415554 C246.69200466 25.45696661 246.69782168 27.37237496 246.70604324 29.28777122 C246.7205872 34.48827958 246.69762527 39.68801584 246.66718411 44.88843083 C246.64084078 50.32780475 246.64611497 55.76715451 246.64726639 61.20657921 C246.64445662 70.34034211 246.61840641 79.47380603 246.57745743 88.60747337 C246.53026673 99.17249911 246.5144636 109.73719749 246.51666409 120.30232102 C246.5184942 130.46049585 246.50318552 140.61856392 246.47828865 150.7767067 C246.46768814 155.10238478 246.46219863 159.42802508 246.46060753 163.75371552 C246.45759709 168.84518887 246.43930655 173.93638665 246.40910912 179.02776909 C246.40033628 180.89825504 246.39665759 182.7687727 246.39839172 184.63927841 C246.39986105 187.18870917 246.38292657 189.73736494 246.36116409 192.28668785 C246.3658099 193.0303608 246.3704557 193.77403376 246.37524229 194.54024225 C246.331363 197.6435871 246.13292538 199.82314298 244.62245464 202.5651598 C241.92226682 205.11823304 239.32315503 205.26306941 235.77859306 205.27682209 C234.49411071 205.28535895 234.49411071 205.28535895 233.18367922 205.29406828 C232.24254601 205.29524815 231.3014128 205.29642803 230.33176041 205.29764366 C229.33225463 205.30273148 228.33274886 205.3078193 227.30295503 205.3130613 C223.93815841 205.32881598 220.57338332 205.33731872 217.20856094 205.34575462 C214.80246722 205.35529041 212.39637488 205.36518145 209.99028397 205.37540245 C202.75972174 205.40409966 195.52915329 205.42386932 188.29855639 205.4407948 C186.25673691 205.44559018 184.21491796 205.45057343 182.17309904 205.45560002 C169.49560748 205.48656526 156.81811135 205.51325196 144.14059258 205.53001881 C141.20475252 205.53396833 138.26891255 205.53797133 135.33307266 205.54204369 C134.6033801 205.54305205 133.87368754 205.54406041 133.12188308 205.54509933 C121.29483783 205.56211526 109.46800148 205.60323614 97.64105828 205.65406667 C85.50121656 205.70581345 73.36148238 205.73495689 61.22153127 205.74221569 C54.40419746 205.74688103 47.58720608 205.76166435 40.76998138 205.80195999 C34.35955967 205.83980523 27.94956171 205.84727288 21.5390377 205.83395386 C19.18355281 205.83400799 16.82804269 205.84437838 14.47265434 205.86570549 C11.26180767 205.89322948 8.05311992 205.88394769 4.84225845 205.86527061 C3.90558669 205.88206554 2.96891492 205.89886047 2.00385916 205.91616434 C-2.61674191 205.84878643 -4.45230748 205.62277918 -8.11835194 202.59243011 C-10.32878595 198.61767995 -10.74003326 195.5552746 -10.6681633 191.12210655 C-10.67525769 190.33238223 -10.68235207 189.5426579 -10.68966144 188.72900254 C-10.70721664 186.09163856 -10.68915026 183.4557532 -10.67107773 180.81841087 C-10.67621747 178.92417798 -10.68349916 177.02994987 -10.69276047 175.13573265 C-10.71127439 169.99730619 -10.69833632 164.85939862 -10.67867017 159.72099376 C-10.66228479 154.34347158 -10.6710963 148.96598229 -10.67618942 143.58844566 C-10.6807101 134.55905937 -10.66484107 125.52988026 -10.63689804 116.50053978 C-10.60483663 106.05987411 -10.60486576 95.61958191 -10.62211281 85.17888969 C-10.63797266 75.13551106 -10.63124843 65.09226942 -10.6141758 55.04889679 C-10.60730142 50.7742562 -10.60834171 46.49972528 -10.61572075 42.22508621 C-10.62337809 37.19264851 -10.61127535 32.16063624 -10.58387184 27.1282711 C-10.57698152 25.28077584 -10.57689695 23.43324089 -10.58408737 21.58574677 C-10.59276811 19.06500159 -10.57685046 16.54557356 -10.55463791 14.02493858 C-10.56287868 13.29264249 -10.57111944 12.56034639 -10.57960993 11.80585951 C-10.50112648 6.98539616 -9.46296587 4.52185002 -6.03997421 1.13701439 C-3.7674351 0.00074483 -2.5236541 0.00797846 0 0 Z " fill="#B0D2EF" transform="translate(206.03997421264648,195.8629856109619)"/>
<path d="M0 0 C1.10669232 -0.00307895 1.10669232 -0.00307895 2.23574206 -0.0062201 C4.72753712 -0.01191007 7.21927725 -0.0104304 9.71107769 -0.00901413 C11.50780431 -0.01159662 13.30453035 -0.01460945 15.1012556 -0.01801753 C20.05398292 -0.02610438 25.00669576 -0.02787804 29.95942891 -0.028615 C35.29492307 -0.03046262 40.63040966 -0.03800844 45.96589947 -0.04475021 C57.63930509 -0.05834574 69.31270729 -0.06436007 80.98611951 -0.06876087 C88.27101321 -0.07152108 95.55590558 -0.07575801 102.84079838 -0.08026505 C122.99919362 -0.09245901 143.15758779 -0.10275826 163.31598663 -0.10614014 C165.25213229 -0.10646949 165.25213229 -0.10646949 167.227392 -0.10680549 C169.1682424 -0.10713291 169.1682424 -0.10713291 171.1483019 -0.10746694 C173.77035733 -0.10791041 176.39241276 -0.10835697 179.01446819 -0.10880661 C180.31510587 -0.10902804 181.61574354 -0.10924947 182.95579448 -0.10947761 C204.03890909 -0.11342707 225.12198917 -0.13088504 246.20509044 -0.15416613 C267.83591314 -0.17785983 289.46671849 -0.19034107 311.09755439 -0.19150805 C323.24850067 -0.1924259 335.39940196 -0.19820576 347.55033588 -0.21632767 C357.89557484 -0.23170189 368.2407549 -0.23686496 378.5860031 -0.22858956 C383.86668149 -0.22467363 389.14724118 -0.22565857 394.42790508 -0.23964691 C399.25962325 -0.25232927 404.09113281 -0.2512384 408.92285045 -0.2390562 C410.6731944 -0.23708934 412.42355284 -0.24022294 414.17387638 -0.24890056 C416.54929332 -0.25993402 418.92396637 -0.25254718 421.29936218 -0.24050903 C421.98223717 -0.24810423 422.66511216 -0.25569942 423.36868033 -0.26352477 C428.7212322 -0.20478461 432.71728982 1.21483042 436.70172405 4.81502151 C437.17996624 5.39381058 437.65820843 5.97259964 438.1509428 6.56892776 C438.64207561 7.1451387 439.13320843 7.72134964 439.63922405 8.31502151 C441.82334561 11.62321867 441.96264819 14.92066791 441.95196819 18.80818558 C441.95189266 19.72883804 441.95181713 20.64949051 441.95173931 21.59804153 C441.94657803 22.58359024 441.94141674 23.56913895 441.93609905 24.58455276 C441.93397663 26.10759018 441.93397663 26.10759018 441.93181133 27.66139603 C441.92621796 30.90143669 441.91366665 34.14140802 441.9009428 37.38142776 C441.89592695 39.57934343 441.89136419 41.77726019 441.88727093 43.97517776 C441.8762507 49.36061805 441.85951914 54.74601795 441.8384428 60.13142776 C442.65828655 60.08502151 443.4781303 60.03861526 444.3228178 59.99080276 C445.40047405 59.95470901 446.4781303 59.91861526 447.5884428 59.88142776 C448.65578655 59.83502151 449.7231303 59.78861526 450.8228178 59.74080276 C454.51277687 60.21877674 455.56471006 61.26269954 457.8384428 64.13142776 C459.82527678 68.10509571 459.11100409 73.07463214 459.1509428 77.44392776 C459.17994671 78.49000198 459.20895061 79.5360762 459.23883343 80.61384964 C459.30288964 88.35479605 459.30288964 88.35479605 456.94391155 92.29939651 C453.44117505 95.34723217 451.40670981 95.23524132 446.8281889 95.15315628 C444.93645443 95.12301186 444.93645443 95.12301186 443.00650311 95.09225845 C441.62496001 95.06506005 440.24341912 95.03774924 438.8618803 95.01033401 C437.45227087 94.98603526 436.04265352 94.96219158 434.63302898 94.93878555 C430.92083004 94.87592021 427.20877098 94.80686058 423.49670696 94.7365303 C419.70964211 94.66586893 415.92247798 94.60103884 412.1353178 94.53572464 C404.70291636 94.40668074 397.27065299 94.27109583 389.8384428 94.13142776 C389.85415325 94.75074173 389.8698637 95.37005569 389.88605022 96.00813675 C389.9490831 98.86163781 389.98764717 101.71499168 390.0259428 104.56892776 C390.06364788 106.02975784 390.06364788 106.02975784 390.10211468 107.52009964 C390.17884355 115.16741021 389.33957844 122.23985723 384.5259428 128.44392776 C378.41319156 134.556679 372.59529554 137.16706965 364.0259428 137.56892776 C356.4046875 137.43654864 351.72249543 134.56684999 346.0259428 129.75642776 C336.76942201 118.64860281 338.8384428 109.52019451 338.8384428 94.13142776 C322.0084428 94.13142776 305.1784428 94.13142776 287.8384428 94.13142776 C287.8384428 101.39142776 287.8384428 108.65142776 287.8384428 116.13142776 C284.07420747 125.54201608 281.40278211 131.01860552 272.6509428 135.56892776 C266.24475091 138.07475112 259.62398198 138.33470745 253.06109905 136.24861526 C247.49872933 133.72254661 242.96264855 130.45523008 239.8384428 125.13142776 C236.8384428 117.13142776 236.8384428 117.13142776 236.8384428 94.13142776 C219.6784428 94.13142776 202.5184428 94.13142776 184.8384428 94.13142776 C184.8384428 101.72142776 184.8384428 109.31142776 184.8384428 117.13142776 C181.75364908 125.35754435 179.50901235 130.49072311 171.6509428 134.50642776 C164.95060246 137.54602989 158.29221418 138.51074336 151.13922405 136.29549026 C141.42945968 131.86438799 137.54293748 126.01008025 133.8384428 116.13142776 C133.8384428 108.87142776 133.8384428 101.61142776 133.8384428 94.13142776 C117.0084428 94.13142776 100.1784428 94.13142776 82.8384428 94.13142776 C82.8384428 101.06142776 82.8384428 107.99142776 82.8384428 115.13142776 C79.01985758 126.58718343 76.28338532 130.77817676 65.8384428 136.13142776 C59.10835693 138.37478972 51.89873185 138.04732406 45.4634428 135.06892776 C38.52428551 131.09255673 34.835134 126.28800096 32.42950726 118.73054886 C31.36061745 114.03025934 31.52719025 109.3635457 31.6509428 104.56892776 C31.66447796 103.56023636 31.67801311 102.55154495 31.69195843 101.51228714 C31.72694704 99.05142156 31.77603122 96.59172442 31.8384428 94.13142776 C31.06027706 94.15283829 30.28211132 94.17424881 29.4803648 94.19630814 C22.13892839 94.39465204 14.79740026 94.57325616 7.45496368 94.72982788 C3.68032008 94.81101223 -0.09382626 94.89975977 -3.86785603 95.00593948 C-7.51155804 95.10817175 -11.15521617 95.19034363 -14.79970455 95.25875473 C-16.18849706 95.28832379 -17.57715645 95.32506044 -18.96556377 95.36915207 C-20.91345094 95.42977409 -22.86214992 95.4623265 -24.81072712 95.49373245 C-25.91881229 95.52037979 -27.02689747 95.54702713 -28.16856098 95.57448196 C-31.87660954 95.02557834 -33.50057114 93.71473462 -36.1615572 91.13142776 C-38.14873929 87.15706358 -37.34640581 82.12591851 -37.3490572 77.75642776 C-37.36130329 76.70197464 -37.37354939 75.64752151 -37.38616657 74.56111526 C-37.38810017 73.54533401 -37.39003376 72.52955276 -37.39202595 71.48299026 C-37.39613483 70.5530928 -37.40024372 69.62319534 -37.40447712 68.66511917 C-37.14519768 65.96079554 -36.64481006 64.39535627 -35.1615572 62.13142776 C-31.63476621 59.78023377 -30.13276234 59.91699325 -25.9740572 60.00642776 C-24.88737751 60.02447464 -23.80069782 60.04252151 -22.68108845 60.06111526 C-21.84964314 60.08431839 -21.01819782 60.10752151 -20.1615572 60.13142776 C-20.16821903 59.57068054 -20.17488087 59.00993332 -20.18174458 58.43219376 C-20.24831255 52.5757307 -20.29344658 46.71937581 -20.32635212 40.86262894 C-20.34140275 38.67931627 -20.36184794 36.49603365 -20.38787556 34.31282425 C-20.42442238 31.16764771 -20.44132118 28.02287228 -20.45452595 24.87752151 C-20.4700098 23.90745667 -20.48549366 22.93739182 -20.50144672 21.93793106 C-20.50304946 15.42758677 -19.89771795 10.25313844 -15.4428072 5.17049026 C-14.8549947 4.70384964 -14.2671822 4.23720901 -13.6615572 3.75642776 C-13.0737447 3.27431839 -12.4859322 2.79220901 -11.8803072 2.29549026 C-8.12612299 -0.24711631 -4.342635 -0.01113811 0 0 Z " fill="#D25526" transform="translate(45.1615571975708,7.868572235107422)"/>
<path d="M0 0 C0.75685089 -0.01409912 1.51370178 -0.02819824 2.29348755 -0.04272461 C3.10405609 -0.03260345 3.91462463 -0.0224823 4.74975586 -0.01205444 C5.61881561 -0.02081604 6.48787537 -0.02957764 7.38327026 -0.03860474 C10.24422745 -0.06053757 13.10362785 -0.04606796 15.96459961 -0.02914429 C17.95947566 -0.03251418 19.95434971 -0.03736825 21.94921875 -0.04364014 C26.12544344 -0.05100318 30.30113259 -0.04032412 34.47729492 -0.01693726 C39.82414885 0.01155 45.16974787 -0.004857 50.51655579 -0.03479958 C54.63449519 -0.0528878 58.75213822 -0.04710748 62.87008667 -0.03416061 C64.84121856 -0.03083083 66.81237757 -0.03489862 68.78347778 -0.04655838 C71.54118878 -0.05929217 74.29688223 -0.03985534 77.05444336 -0.01205444 C78.27029617 -0.02723618 78.27029617 -0.02723618 79.51071167 -0.04272461 C80.64598801 -0.02157593 80.64598801 -0.02157593 81.80419922 0 C82.4545665 0.00188513 83.10493378 0.00377026 83.77500916 0.00571251 C87.28715041 1.04462428 89.79141524 2.68694593 91.90209961 5.63491821 C92.77741742 9.12379139 92.6864001 12.52551441 92.62362671 16.10679626 C92.62875326 17.172792 92.63387981 18.23878774 92.63916171 19.33708638 C92.64905841 22.91524733 92.6160212 26.4917268 92.58325195 30.06973267 C92.58155984 32.63201355 92.58250885 35.19429735 92.58590698 37.75657654 C92.58727405 43.27610544 92.57023857 48.7950912 92.53647995 54.31450844 C92.48770331 62.29451609 92.47208989 70.274318 92.464552 78.25445857 C92.4514224 91.20178903 92.41149882 104.14889259 92.35473633 117.09609985 C92.29965649 129.67258571 92.25718878 142.24900992 92.23168945 154.82559204 C92.23011311 155.60089727 92.22853677 156.37620251 92.22691266 157.17500184 C92.2190824 161.0645068 92.21150016 164.95401221 92.20404124 168.8435179 C92.14184766 201.1074829 92.03617483 233.37116905 91.90209961 265.63491821 C92.96252646 265.63003552 92.96252646 265.63003552 94.04437608 265.62505418 C135.92213131 265.43261225 177.79992709 265.25585732 219.67783351 265.09953995 C224.70351704 265.08076702 229.72920008 265.06186271 234.75488281 265.0428772 C235.75542721 265.03909965 236.75597161 265.03532211 237.78683553 265.03143009 C253.99831496 264.96991031 270.20973045 264.89774194 286.42114731 264.82165442 C303.04926863 264.74384753 319.67740714 264.67744651 336.30561715 264.62168568 C346.57031016 264.58690313 356.83488557 264.54317037 367.09948996 264.48807337 C374.13346366 264.45116864 381.1674232 264.42531937 388.20147278 264.40824429 C392.26283688 264.39805637 396.32402712 264.3829173 400.38530922 264.3546772 C404.10188301 264.3289414 407.81823169 264.31705738 411.53489212 264.31628933 C413.51954093 264.31224762 415.50414196 264.29329332 417.48869962 264.2738474 C418.66559238 264.27633715 419.84248514 264.2788269 421.05504131 264.2813921 C422.0707932 264.27721517 423.08654508 264.27303825 424.13307732 264.26873475 C427.41021594 264.70211298 429.25298172 265.68238967 431.90209961 267.63491821 C435.19597111 272.57572547 434.27397276 278.4714923 434.27270508 284.25845337 C434.27707127 286.49539723 434.31337658 288.7303556 434.35131836 290.96694946 C434.35718838 292.39532816 434.36115653 293.82371619 434.36303711 295.25210571 C434.37125488 296.54745239 434.37947266 297.84279907 434.38793945 299.17739868 C433.82539909 303.18076383 432.7270116 304.80342594 429.90209961 307.63491821 C426.79888525 309.18652539 423.51714803 308.77570342 420.11116314 308.76913929 C419.29318057 308.77149152 418.475198 308.77384375 417.63242808 308.77626726 C414.86184716 308.78298139 412.09131288 308.78249831 409.32072449 308.78208923 C407.32615773 308.78538635 405.33159164 308.78911159 403.33702642 308.79323071 C397.83283546 308.80327602 392.3286554 308.80697156 386.82445657 308.80962002 C380.89727396 308.81351555 374.97010005 308.82309433 369.04292297 308.83183289 C355.3953118 308.85068236 341.74769905 308.86085611 328.10007843 308.86929357 C321.35903134 308.87349766 314.61798514 308.87871994 307.8769388 308.8839781 C284.8111634 308.90186894 261.74538775 308.91686621 238.67960644 308.92429829 C237.23112584 308.92477305 235.78264524 308.92524894 234.33416464 308.92572595 C233.25666881 308.92608051 233.25666881 308.92608051 232.15740539 308.92644224 C228.5178601 308.92764346 224.87831481 308.92885891 221.23876953 308.93008423 C220.51648524 308.93032438 219.79420094 308.93056453 219.05002924 308.93081196 C195.62344424 308.93870769 172.19690983 308.96214482 148.77034693 308.99464017 C124.01461336 309.02891668 99.25890941 309.04864737 74.50315171 309.05194253 C71.78700116 309.05236008 69.07085062 309.05283965 66.35470009 309.05336571 C65.68588537 309.0534889 65.01707065 309.05361209 64.32798883 309.05373902 C54.22011728 309.055929 44.11229855 309.06924272 34.00444603 309.0884037 C22.51107296 309.11005291 11.01779229 309.11818966 -0.47559885 309.10843692 C-6.34350152 309.10387553 -12.21121332 309.10588488 -18.07909012 309.12519836 C-23.44622478 309.14271178 -28.81302765 309.14192912 -34.18016525 309.12630107 C-36.12634975 309.12390693 -38.07255651 309.12834109 -40.01870678 309.14012972 C-42.65602675 309.15512109 -45.29215154 309.14566537 -47.9294405 309.12990284 C-48.69223693 309.14012505 -49.45503336 309.15034725 -50.24094483 309.16087922 C-55.13880428 309.09660273 -57.66614413 308.13707028 -61.09790039 304.63491821 C-63.33825163 300.15421573 -62.36647389 294.06939209 -62.39306641 289.08682251 C-62.4102569 286.84116248 -62.45414039 284.59698388 -62.49829102 282.35171509 C-62.5084204 280.91878319 -62.51693574 279.48583879 -62.52368164 278.05288696 C-62.53826416 276.75117554 -62.55284668 275.44946411 -62.56787109 274.10830688 C-62.02138902 270.06944951 -60.9955222 268.44938604 -58.09790039 265.63491821 C-55.22476631 264.67720685 -53.59344833 264.53839179 -50.62646484 264.6131897 C-49.7257576 264.63328598 -48.82505035 264.65338226 -47.89704895 264.67408752 C-46.92821274 264.70112259 -45.95937653 264.72815765 -44.96118164 264.75601196 C-43.96660446 264.77962296 -42.97202728 264.80323395 -41.9473114 264.82756042 C-38.76819533 264.90418199 -35.58932377 264.98821309 -32.41040039 265.07241821 C-30.25611551 265.12564039 -28.10181867 265.17838078 -25.94750977 265.23062134 C-20.6641551 265.3597951 -15.38098228 265.49505409 -10.09790039 265.63491821 C-10.10131787 264.81253795 -10.10131787 264.81253795 -10.1048044 263.97354394 C-10.23903066 231.49002749 -10.34199821 199.00658436 -10.40429237 166.52285459 C-10.41179674 162.6237666 -10.41956266 158.72467918 -10.42749023 154.82559204 C-10.4290641 154.04934375 -10.43063796 153.27309546 -10.43225951 152.4733245 C-10.45837777 139.89922108 -10.50569085 127.325282 -10.56081717 114.75127611 C-10.61689773 101.85217067 -10.650247 88.95315138 -10.66243136 76.05392903 C-10.67067013 68.09231218 -10.69670412 60.13115982 -10.74539919 52.16968592 C-10.78082153 46.06797257 -10.78463881 39.96666001 -10.77654648 33.86483192 C-10.77820106 31.35937638 -10.79018793 28.85390372 -10.81313324 26.3485527 C-10.84287926 22.93398002 -10.83584894 19.52141298 -10.81942749 16.10679626 C-10.83690454 15.10971391 -10.85438159 14.11263157 -10.87238824 13.0853346 C-10.78775388 6.59842985 -10.78775388 6.59842985 -8.85795808 3.90310287 C-6.16661363 1.5002414 -3.61822031 0.01048763 0 0 Z " fill="#D25627" transform="translate(70.097900390625,195.36508178710938)"/>
<path d="M0 0 C0.82281276 -0.00350607 1.64562552 -0.00701215 2.49337199 -0.01062447 C5.27440535 -0.01999243 8.05523177 -0.01500133 10.83627415 -0.01015663 C12.84066727 -0.01389017 14.84505893 -0.0184905 16.84944826 -0.02388728 C22.3761292 -0.03616921 27.90274985 -0.03585073 33.42944133 -0.03349853 C39.38249553 -0.03309167 45.33553006 -0.04411686 51.28857517 -0.05361366 C62.95828461 -0.07025267 74.62797893 -0.07575037 86.29769843 -0.07683842 C95.77890872 -0.07775665 105.26011245 -0.08186887 114.74132061 -0.08823967 C117.4680764 -0.09003469 120.1948322 -0.09181431 122.921588 -0.09358943 C123.59941849 -0.09403152 124.27724898 -0.09447362 124.97561979 -0.09492911 C144.04732165 -0.10724124 163.11902123 -0.11512985 182.19072723 -0.11424255 C183.26978398 -0.11419582 183.26978398 -0.11419582 184.37063985 -0.11414814 C188.01691847 -0.11398192 191.66319709 -0.11378383 195.30947571 -0.11357872 C196.03367258 -0.11353883 196.75786945 -0.11349894 197.50401168 -0.11345784 C198.96851444 -0.11337697 200.4330172 -0.11329337 201.89751996 -0.11320706 C224.6895132 -0.11198119 247.48144697 -0.12699982 270.27342319 -0.15435219 C295.86483145 -0.18505127 321.45620062 -0.20228602 347.04762846 -0.20042574 C349.77469861 -0.20027648 352.50176876 -0.20017907 355.22883892 -0.20011711 C355.90034086 -0.2000938 356.5718428 -0.20007049 357.26369329 -0.20004648 C368.08508852 -0.19998485 378.90643226 -0.21277409 389.72781216 -0.22998164 C400.5969127 -0.24690804 411.46593398 -0.24859134 422.33504026 -0.235763 C428.22712521 -0.22920775 434.11902285 -0.22920797 440.01109028 -0.2464695 C445.39910996 -0.26209259 450.78679217 -0.25944765 456.17480309 -0.24190123 C458.12968563 -0.23880746 460.0845927 -0.24255208 462.03944635 -0.25362138 C464.68609107 -0.26762183 467.33153209 -0.25725228 469.97813416 -0.24050903 C470.74648044 -0.25044539 471.51482673 -0.26038175 472.30645624 -0.27061921 C475.81241528 -0.22335842 477.69041458 -0.02494475 480.49410349 2.16338003 C484.04160334 6.93143062 483.31181453 11.80732963 483.36448765 17.56976891 C483.39349155 18.61584312 483.42249546 19.66191734 483.45237827 20.73969078 C483.51643448 28.48063719 483.51643448 28.48063719 481.1574564 32.42523766 C477.6547199 35.47307331 475.62025465 35.36108246 471.04173374 35.27899742 C469.78057743 35.25890114 468.51942112 35.23880486 467.22004795 35.21809959 C465.83850485 35.19090119 464.45696396 35.16359038 463.07542515 35.13617516 C461.66581571 35.1118764 460.25619837 35.08803272 458.84657383 35.06462669 C455.13437489 35.00176135 451.42231583 34.93270172 447.71025181 34.86237144 C443.92318695 34.79171007 440.13602283 34.72687998 436.34886265 34.66156578 C428.9164612 34.53252188 421.48419784 34.39693697 414.05198765 34.25726891 C414.0676981 34.87658287 414.08340855 35.49589684 414.09959507 36.13397789 C414.16262795 38.98747895 414.20119202 41.84083282 414.23948765 44.69476891 C414.27719273 46.15559898 414.27719273 46.15559898 414.31565952 47.64594078 C414.39238839 55.29325135 413.55312328 62.36569837 408.73948765 68.56976891 C402.62673641 74.68252015 396.80884039 77.29291079 388.23948765 77.69476891 C380.61823234 77.56238978 375.93604028 74.69269113 370.23948765 69.88226891 C360.98296685 58.77444395 363.05198765 49.64603565 363.05198765 34.25726891 C346.22198765 34.25726891 329.39198765 34.25726891 312.05198765 34.25726891 C312.05198765 41.51726891 312.05198765 48.77726891 312.05198765 56.25726891 C308.28775232 65.66785722 305.61632695 71.14444666 296.86448765 75.69476891 C290.45829576 78.20059226 283.83752682 78.46054859 277.2746439 76.37445641 C271.71227417 73.84838775 267.1761934 70.58107122 264.05198765 65.25726891 C261.05198765 57.25726891 261.05198765 57.25726891 261.05198765 34.25726891 C243.89198765 34.25726891 226.73198765 34.25726891 209.05198765 34.25726891 C209.05198765 41.84726891 209.05198765 49.43726891 209.05198765 57.25726891 C205.96719393 65.48338549 203.72255719 70.61656425 195.86448765 74.63226891 C189.16414731 77.67187103 182.50575903 78.6365845 175.3527689 76.42133141 C165.64300452 71.99022913 161.75648233 66.13592139 158.05198765 56.25726891 C158.05198765 48.99726891 158.05198765 41.73726891 158.05198765 34.25726891 C141.22198765 34.25726891 124.39198765 34.25726891 107.05198765 34.25726891 C107.05198765 41.18726891 107.05198765 48.11726891 107.05198765 55.25726891 C103.23340243 66.71302457 100.49693017 70.9040179 90.05198765 76.25726891 C83.32190178 78.50063086 76.1122767 78.1731652 69.67698765 75.19476891 C62.73783035 71.21839787 59.04867884 66.4138421 56.6430521 58.85639 C55.57416229 54.15610048 55.7407351 49.48938684 55.86448765 44.69476891 C55.8780228 43.6860775 55.89155796 42.67738609 55.90550327 41.63812828 C55.94049188 39.1772627 55.98957606 36.71756556 56.05198765 34.25726891 C55.27382191 34.27867943 54.49565617 34.30008995 53.69390965 34.32214928 C46.35247323 34.52049318 39.01094511 34.6990973 31.66850853 34.85566902 C27.89386493 34.93685337 24.11971859 35.02560091 20.34568882 35.13178062 C16.70198681 35.2340129 13.05832868 35.31618477 9.41384029 35.38459587 C8.02504779 35.41416493 6.63638839 35.45090158 5.24798107 35.49499321 C3.30009391 35.55561523 1.35139492 35.58816765 -0.59718227 35.61957359 C-2.25931004 35.6595446 -2.25931004 35.6595446 -3.95501614 35.7003231 C-7.66306469 35.15141948 -9.2870263 33.84057576 -11.94801235 31.25726891 C-13.93519444 27.28290472 -13.13286096 22.25175965 -13.13551235 17.88226891 C-13.14775845 16.82781578 -13.16000454 15.77336266 -13.17262173 14.68695641 C-13.17455532 13.67117516 -13.17648891 12.65539391 -13.1784811 11.60883141 C-13.18258999 10.67893394 -13.18669888 9.74903648 -13.19093227 8.79096031 C-12.93165284 6.08663668 -12.43126521 4.52119741 -10.94801235 2.25726891 C-7.21113859 -0.23398027 -4.32510984 -0.02306896 0 0 Z " fill="#802F33" transform="translate(20.948012351989746,67.74273109436035)"/>
<path d="M0 0 C0.81575967 -0.00205263 1.63151933 -0.00410527 2.47199899 -0.0062201 C5.22899835 -0.01191318 7.98594811 -0.01043002 10.74295235 -0.00901413 C12.73013241 -0.01159644 14.71731196 -0.01460922 16.70449078 -0.01801753 C22.18362083 -0.02610645 27.6627378 -0.02787815 33.14187312 -0.028615 C39.04381523 -0.03046225 44.9457505 -0.03800785 50.84768867 -0.04475021 C64.43424323 -0.05905619 78.02079679 -0.06486153 91.60735731 -0.06944216 C98.31874256 -0.07177703 105.03012694 -0.07537953 111.74151152 -0.07913754 C134.70753072 -0.09197303 157.67354944 -0.10269281 180.63957214 -0.10614014 C182.08151704 -0.10636177 183.52346194 -0.10658355 184.96540684 -0.10680549 C186.41086476 -0.10702613 187.85632267 -0.10724661 189.30178058 -0.10746694 C192.20169632 -0.10790949 195.10161205 -0.10835661 198.00152779 -0.10880661 C198.72053951 -0.108916 199.43955123 -0.10902539 200.18035119 -0.1091381 C223.50323961 -0.1127701 246.82609698 -0.12869557 270.1489735 -0.15199697 C294.79762891 -0.176578 319.44626656 -0.19031215 344.09493458 -0.19150805 C346.79927389 -0.19167951 349.5036132 -0.19189494 352.2079525 -0.19214249 C353.20680537 -0.19222614 353.20680537 -0.19222614 354.22583709 -0.19231148 C364.28919126 -0.19339198 374.35251673 -0.20271154 384.41586113 -0.21632767 C395.85796322 -0.23169386 407.30001208 -0.23686972 418.74212252 -0.22858956 C424.58367155 -0.22467084 430.42511327 -0.22567205 436.26664925 -0.23964691 C441.60964199 -0.25231263 446.95244597 -0.25125323 452.29543819 -0.2390562 C454.23284232 -0.23708643 456.1702595 -0.24023608 458.10764526 -0.24890056 C460.73293523 -0.25990224 463.35754826 -0.25257009 465.9828186 -0.24050903 C467.12177144 -0.25190182 467.12177144 -0.25190182 468.28373343 -0.26352477 C472.73799617 -0.21908149 475.59154466 0.35921039 479.11725044 3.13142776 C482.41112195 8.07223502 481.48912359 13.96800185 481.48785591 19.75496292 C481.4922221 21.99190678 481.52852742 24.22686515 481.56646919 26.46345901 C481.57233921 27.89183771 481.57630737 29.32022574 481.57818794 30.74861526 C481.58640572 32.04396194 481.59462349 33.33930862 481.60309029 34.67390823 C481.04054992 38.67727338 479.94216244 40.2999355 477.11725044 43.13142776 C474.01403609 44.68303494 470.73229887 44.27221297 467.32631397 44.26564884 C466.5083314 44.26800107 465.69034883 44.2703533 464.84757891 44.27277681 C462.07699799 44.27949095 459.30646371 44.27900787 456.53587532 44.27859879 C454.54130856 44.2818959 452.54674248 44.28562114 450.55217725 44.28974026 C445.04798629 44.29978557 439.54380624 44.30348111 434.03960741 44.30612957 C428.1124248 44.3100251 422.18525088 44.31960388 416.25807381 44.32834244 C402.61046263 44.34719191 388.96284989 44.35736566 375.31522927 44.36580312 C368.57418217 44.37000721 361.83313598 44.37522949 355.09208964 44.38048765 C332.02631423 44.39837849 308.96053858 44.41337577 285.89475727 44.42080784 C284.44627667 44.4212826 282.99779607 44.42175849 281.54931547 44.4222355 C280.47181964 44.42259006 280.47181964 44.42259006 279.37255623 44.42295179 C275.73301093 44.42415302 272.09346565 44.42536846 268.45392036 44.42659378 C267.73163607 44.42683393 267.00935177 44.42707408 266.26518007 44.42732151 C242.83859508 44.43521724 219.41206067 44.45865438 195.98549776 44.49114972 C171.2297642 44.52542624 146.47406024 44.54515692 121.71830255 44.54845208 C119.00215199 44.54886963 116.28600146 44.5493492 113.56985092 44.54987526 C112.9010362 44.54999845 112.23222149 44.55012164 111.54313966 44.55024857 C101.43526811 44.55243855 91.32744938 44.56575228 81.21959686 44.58491325 C69.7262238 44.60656247 58.23294313 44.61469922 46.73955198 44.60494647 C40.87164931 44.60038508 35.00393752 44.60239443 29.13606071 44.62170792 C23.76892605 44.63922133 18.40212319 44.63843867 13.03498558 44.62281062 C11.08880109 44.62041648 9.14259432 44.62485064 7.19644406 44.63663927 C4.55912408 44.65163064 1.92299929 44.64217492 -0.71428967 44.62641239 C-1.4770861 44.6366346 -2.23988253 44.64685681 -3.025794 44.65738878 C-7.92365344 44.59311228 -10.4509933 43.63357984 -13.88274956 40.13142776 C-16.1231008 35.65072528 -15.15132305 29.56590164 -15.17791557 24.58333206 C-15.19510607 22.33767203 -15.23898956 20.09349343 -15.28314018 17.84822464 C-15.29326956 16.41529274 -15.3017849 14.98234834 -15.30853081 13.54939651 C-15.32311333 12.24768509 -15.33769585 10.94597366 -15.35272026 9.60481644 C-14.80623819 5.56595906 -13.78037137 3.94589559 -10.88274956 1.13142776 C-7.20767448 -0.09359726 -3.82640295 -0.00886237 0 0 Z " fill="#B18F46" transform="translate(22.882749557495117,459.8685722351074)"/>
<path d="M0 0 C3.98487952 1.3802376 6.29794427 5.2424259 8.23274231 8.83309937 C9.38259078 11.27822476 10.46696756 13.74300084 11.53125 16.2265625 C11.93167007 17.13929932 12.33209015 18.05203613 12.74464417 18.99243164 C14.01747278 21.89984163 15.2764513 24.8130144 16.53515625 27.7265625 C17.37605445 29.65273633 18.21784364 31.57852144 19.06054688 33.50390625 C23.45384772 43.55755154 27.79326527 53.63454703 32.09765625 63.7265625 C36.79176359 54.62790892 40.97082874 45.36798632 45.03515625 35.9765625 C45.62274348 34.62486807 46.21063331 33.27330515 46.79882812 31.921875 C47.0899649 31.25224731 47.38110168 30.58261963 47.68106079 29.8927002 C48.266468 28.54745741 48.85286617 27.20264541 49.4402771 25.85827637 C50.97704587 22.33502828 52.48600139 18.8029975 53.95751953 15.25195312 C54.41778282 14.15823395 54.41778282 14.15823395 54.88734436 13.04241943 C55.47308731 11.64972006 56.04998669 10.25325609 56.61643982 8.8526001 C58.18378567 5.15687504 59.46148532 2.59830636 63.09765625 0.7265625 C67.85177721 0.7265625 69.99831108 0.81491041 73.66015625 3.8515625 C75.58139982 7.69404965 74.98100651 9.53754163 74.09765625 13.7265625 C73.06215863 16.66640861 71.8068786 19.48698977 70.51953125 22.32421875 C70.15610123 23.14391144 69.7926712 23.96360413 69.41822815 24.80813599 C68.63903026 26.56293958 67.85592067 28.31601057 67.06924438 30.06747437 C65.83811155 32.81032724 64.61899212 35.55823218 63.40307617 38.30786133 C59.94308948 46.12534473 56.45827255 53.93146262 52.94833374 61.72663879 C51.71156137 64.48074207 50.48617672 67.23980611 49.2635498 70.00021362 C48.42708974 71.87608689 47.57373562 73.74363897 46.71972656 75.61157227 C46.22182617 76.73619873 45.72392578 77.8608252 45.2109375 79.01953125 C44.77563721 79.9839917 44.34033691 80.94845215 43.8918457 81.94213867 C42.50849778 86.79214885 43.84590751 90.77167776 46.16015625 95.1015625 C46.52238281 95.78992188 46.88460937 96.47828125 47.2578125 97.1875 C47.53496094 97.69539063 47.81210937 98.20328125 48.09765625 98.7265625 C48.48695313 98.27925781 48.87625 97.83195312 49.27734375 97.37109375 C55.7228673 90.40576991 63.14720971 86.37783322 72.640625 85.48828125 C81.93899304 85.22732262 89.79861071 87.85559109 97.09765625 93.7265625 C104.8841072 101.13281565 109.18601004 108.29402982 109.59765625 119.1640625 C109.24981683 129.01951273 105.90998764 137.55237517 99.09765625 144.7265625 C91.14082496 152.12826602 82.92031097 154.2981341 72.19360352 154.28686523 C63.66586549 153.94359401 56.67879088 150.28562978 50.28515625 144.7265625 C43.18529967 136.87030473 39.43191339 125.4407409 35.31835938 115.79321289 C34.08792848 112.52327549 34.08792848 112.52327549 32.09765625 109.7265625 C31.60736938 110.88273071 31.60736938 110.88273071 31.10717773 112.06225586 C29.86707128 114.96877581 28.61505352 117.86980247 27.35522461 120.76782227 C26.55394151 122.62062542 25.76606025 124.47920626 24.97851562 126.33789062 C21.07789286 135.27782728 16.90270666 144.32575544 7.97265625 149.1640625 C7.16570312 149.61652344 6.35875 150.06898438 5.52734375 150.53515625 C4.72554688 150.92832031 3.92375 151.32148438 3.09765625 151.7265625 C2.33839844 152.09910156 1.57914062 152.47164062 0.796875 152.85546875 C-7.44858516 155.51644938 -17.67626014 154.88242828 -25.46484375 151.2265625 C-33.9874226 146.20641332 -39.55751987 140.42220731 -43.05859375 131.078125 C-45.2850145 122.23428704 -45.28802234 111.92044598 -40.90234375 103.7265625 C-35.76753858 95.41903218 -28.46149325 89.29415271 -19.12109375 86.19921875 C-9.37351498 84.12270989 0.05286274 85.83554415 8.421875 91.22265625 C10.37099423 92.66738233 12.23601993 94.17174375 14.09765625 95.7265625 C15.42621127 96.73290207 16.75834212 97.73458698 18.09765625 98.7265625 C18.64272497 97.42394064 19.15718684 96.10851139 19.66015625 94.7890625 C19.95019531 94.05816406 20.24023438 93.32726562 20.5390625 92.57421875 C22.30862184 83.55317849 18.37207339 76.10413049 14.59765625 68.1015625 C13.72918392 66.21414977 12.86646526 64.32416416 12.00358582 62.43418884 C11.05954142 60.36800957 10.11112093 58.30387259 9.16259766 56.23974609 C5.70181543 48.69026012 2.30150877 41.11433175 -1.05761719 33.519104 C-1.82505323 31.79152289 -2.5982751 30.06649965 -3.37744141 28.34417725 C-4.47903233 25.90854365 -5.56166954 23.46525985 -6.640625 21.01953125 C-7.13656914 19.93983818 -7.13656914 19.93983818 -7.64253235 18.83833313 C-9.78801185 13.90160095 -10.343069 10.11396775 -9.90234375 4.7265625 C-7.42768461 0.6021306 -4.68394204 0.24211231 0 0 Z " fill="#84B5CB" transform="translate(291.90234375,221.2734375)"/>
<path d="M0 0 C8.13914073 6.54670015 13.98520957 13.86977378 15.25 24.44921875 C15.63729132 34.67613008 13.08511377 43.55849494 6.56640625 51.53125 C-1.02385 59.52468384 -8.99791732 62.56837865 -19.9375 62.875 C-29.33616364 62.8651263 -36.8365916 59.48651992 -43.9375 53.3125 C-48.61718092 48.13425743 -51.26665195 41.60086572 -54.125 35.3125 C-54.79014287 33.89442724 -55.45551184 32.4764605 -56.12109375 31.05859375 C-56.77026691 29.64416264 -57.41744863 28.2288156 -58.0625 26.8125 C-58.36929687 26.15451416 -58.67609375 25.49652832 -58.9921875 24.81860352 C-61.09242975 20.08035537 -62.16243551 16.36453901 -60.45678711 11.34667969 C-59.57367328 9.17724248 -58.61841539 7.0585761 -57.625 4.9375 C-57.29113281 4.20144531 -56.95726562 3.46539062 -56.61328125 2.70703125 C-55.79384796 0.90427802 -54.96078451 -0.89226899 -54.125 -2.6875 C-53.135 -2.6875 -52.145 -2.6875 -51.125 -2.6875 C-49.475 0.6125 -47.825 3.9125 -46.125 7.3125 C-45.17625 6.260625 -44.2275 5.20875 -43.25 4.125 C-30.73947122 -8.41095668 -14.71412932 -7.94562983 0 0 Z " fill="#557681" transform="translate(386.125,312.6875)"/>
<path d="M0 0 C16.83 0 33.66 0 51 0 C51 27.1372549 51 27.1372549 43.8125 35.875 C37.31882924 41.69453969 30.68938511 43.7775402 21.99609375 43.4453125 C14.63081122 42.35060297 9.00703638 38.76953267 4.25390625 33.13671875 C-2.47970204 21.6623146 0 14.84853451 0 0 Z " fill="#E54D3D" transform="translate(282,102)"/>
<path d="M0 0 C16.83 0 33.66 0 51 0 C51 28.5221875 51 28.5221875 43.75 36.4609375 C37.81533134 41.68026663 30.71319066 43.43808706 22.98046875 43.3359375 C15.12337552 42.45034115 9.52903 38.18210091 4.47265625 32.35546875 C-2.38875432 21.38085184 0 14.06048393 0 0 Z " fill="#E54D3D" transform="translate(179,102)"/>
<path d="M0 0 C16.83 0 33.66 0 51 0 C51 27.92307692 51 27.92307692 44 36 C35.75166218 41.77926301 29.11439899 44.07180598 19 43 C11.89400659 40.78990721 7.16189864 37.09058337 3 31 C0 22 0 22 0 0 Z " fill="#E54D3D" transform="translate(77,102)"/>
<path d="M0 0 C16.83 0 33.66 0 51 0 C51 26.7027027 51 26.7027027 45.6875 34.3125 C39.57474876 40.42525124 33.75685274 43.03564189 25.1875 43.4375 C17.5662447 43.30512088 12.88405263 40.43542222 7.1875 35.625 C-2.06902079 24.51717505 0 15.38876675 0 0 Z " fill="#E54D3D" transform="translate(384,102)"/>
<path d="M0 0 C16.83 0 33.66 0 51 0 C51 27.73172669 51 27.73172669 42.96875 36.2734375 C38.02406948 40.60984383 32.31697742 42.73984491 25.8125 43.25 C17.12715297 42.68046905 10.76871809 39.57790479 5 33 C-1.8892299 22.32766698 0 13.74216795 0 0 Z " fill="#EBEEEF" transform="translate(128,102)"/>
<path d="M0 0 C16.83 0 33.66 0 51 0 C51 27.82789666 51 27.82789666 42.94140625 36.2734375 C36.90705531 41.64000313 30.02271129 43.43661014 22 43 C14.33914129 41.43277184 8.74197769 38.23231354 4 32 C-2.11740658 21.80432237 0 12.41972786 0 0 Z " fill="#EBEEEF" transform="translate(333,102)"/>
<path d="M0 0 C16.5 0 33 0 50 0 C50 24.62962963 50 24.62962963 44.3125 33.6875 C38.72986776 39.27013224 32.55794357 41.75981832 24.703125 42.1328125 C17.63748165 41.78565661 11.0818668 38.94281075 6 34 C-2.55494422 22.67467229 0 16.95743171 0 0 Z " fill="#EBEFF0" transform="translate(231,103)"/>
<path d="M0 0 C16.5 0 33 0 50 0 C50 25.61187215 50 25.61187215 44.2890625 33.3046875 C38.31055668 38.94637609 33.00604361 41.50921141 24.8125 42.3125 C17.20810823 41.6891892 10.2360526 38.60135859 5 33 C0 23 0 23 0 0 Z " fill="#EBEFF0" transform="translate(436,103)"/>
<path d="M0 0 C16.5 0 33 0 50 0 C50 27.60784314 50 27.60784314 41.8125 36.4375 C35.20097772 41.4639705 27.71701242 42.71477631 19.6015625 41.62890625 C12.03821367 39.80052913 6.25926843 34.36587958 2 28 C0 22 0 22 0 0 Z " fill="#EBEFF0" transform="translate(26,103)"/>
<path d="M0 0 C3.98487952 1.3802376 6.29794427 5.2424259 8.23274231 8.83309937 C9.38259078 11.27822476 10.46696756 13.74300084 11.53125 16.2265625 C11.93167007 17.13929932 12.33209015 18.05203613 12.74464417 18.99243164 C14.01747278 21.89984163 15.2764513 24.8130144 16.53515625 27.7265625 C17.37605445 29.65273633 18.21784364 31.57852144 19.06054688 33.50390625 C20.6846028 37.21776256 22.29591196 40.93675357 23.89794922 44.66015625 C25.24988376 47.79615722 26.63219626 50.91274842 28.06689453 54.01171875 C28.35637466 54.64859619 28.6458548 55.28547363 28.94410706 55.94165039 C29.69232792 57.58291812 30.45498233 59.2175857 31.21899414 60.8515625 C32.65745062 65.55822088 31.44041565 69.4389871 29.46875 73.8125 C29.15615234 74.51503906 28.84355469 75.21757812 28.52148438 75.94140625 C28.03325195 77.01068359 28.03325195 77.01068359 27.53515625 78.1015625 C27.20580078 78.83761719 26.87644531 79.57367188 26.53710938 80.33203125 C25.7301782 82.13300807 24.91477365 83.93018431 24.09765625 85.7265625 C23.43765625 85.7265625 22.77765625 85.7265625 22.09765625 85.7265625 C21.30205533 83.91534128 20.50646855 82.10411385 19.7109375 80.29286194 C18.99244647 78.657108 18.27385587 77.0213978 17.55517578 75.38572693 C15.54045116 70.79955917 13.52813726 66.21235588 11.52001953 61.62329102 C6.21437742 49.50513896 6.21437742 49.50513896 0.81149292 37.43014526 C-0.50293857 34.52296565 -1.80723433 31.61129306 -3.11077881 28.69921875 C-3.71697299 27.35321498 -4.32842844 26.00956713 -4.94537354 24.66845703 C-10.88715382 11.74542069 -10.88715382 11.74542069 -9.90234375 4.7265625 C-7.42768461 0.6021306 -4.68394204 0.24211231 0 0 Z " fill="#557681" transform="translate(291.90234375,221.2734375)"/>
<path d="M0 0 C4.52049994 2.45774754 7.55699234 5.73898468 9.875 10.375 C10.69255213 16.65847209 10.17880604 21.49385742 6.41015625 26.6796875 C3.08515963 30.35156672 0.12858351 32.06008877 -4.80859375 32.75 C-9.34535942 32.94698304 -12.42153219 32.70754842 -16.5625 30.75 C-20.61524189 26.9938002 -23.71074108 22.94034319 -24.36328125 17.32421875 C-24.54535131 11.77587312 -23.88314853 8.7265404 -20.125 4.375 C-14.08358784 -1.44557725 -7.98846044 -3.63935532 0 0 Z " fill="#AED1EE" transform="translate(374.125,325.625)"/>
<path d="M0 0 C4.47460097 2.56998457 7.69083523 5.27359375 9.7890625 10.08203125 C10.51581019 15.51749833 10.72514772 21.0467301 8.2890625 26.08203125 C4.57475764 30.53919708 1.01319305 32.59940677 -4.7421875 33.4609375 C-10.40070738 33.72511539 -13.83711685 32.93515897 -18.2109375 29.08203125 C-22.9986584 23.64732104 -23.62796112 20.29338925 -23.55078125 13.1328125 C-22.95995388 7.82894837 -20.630232 5.09310732 -16.63671875 1.7734375 C-11.48845515 -1.69474008 -5.76822339 -2.39493374 0 0 Z " fill="#AFD2EF" transform="translate(288.2109375,324.91796875)"/>
</svg>
