<?xml version="1.0" encoding="UTF-8"?>
<svg version="1.1" xmlns="http://www.w3.org/2000/svg" width="512" height="512">
<path d="M0 0 C1.61456334 -0.00373913 3.22912487 -0.0083417 4.84368354 -0.01373065 C9.26994855 -0.02594372 13.69613789 -0.02570217 18.1224159 -0.02334189 C22.90035816 -0.0229333 27.67827629 -0.03397701 32.45620728 -0.04345703 C41.81348178 -0.06005897 51.17073109 -0.06556622 60.52801909 -0.06668179 C68.13593984 -0.06763269 75.74385228 -0.0717451 83.3517704 -0.07808304 C104.93096694 -0.09569363 126.5101436 -0.10492225 148.08934738 -0.10342209 C149.83379284 -0.10330222 149.83379284 -0.10330222 151.61347961 -0.10317993 C152.77786656 -0.10309817 153.9422535 -0.10301641 155.1419249 -0.10293217 C174.00845899 -0.10211943 192.87491322 -0.12125452 211.74142423 -0.14945666 C231.12258864 -0.17819904 250.50371412 -0.1919962 269.88490039 -0.19026911 C280.76224663 -0.18960566 291.63950915 -0.19507849 302.51683617 -0.21662521 C311.7788454 -0.23485485 321.04073297 -0.23916971 330.3027524 -0.22560637 C335.02540011 -0.21908561 339.74781453 -0.21892723 344.47043991 -0.23631287 C348.80031623 -0.25208823 353.12977514 -0.24913464 357.45964155 -0.2317446 C359.01951762 -0.22868449 360.57942518 -0.23226952 362.13926407 -0.24346475 C377.43996591 -0.34593923 389.75598753 2.51689244 401.20454407 13.07601929 C410.21863486 22.54278276 414.30470182 36.04378334 418.99360657 48.01742554 C419.84032246 50.16998509 420.68873552 52.32180786 421.54187012 54.47183228 C422.13411685 55.97511882 422.71710481 57.48207995 423.29165649 58.99221802 C424.93532248 63.25010503 426.74005323 67.2829083 428.89668274 71.3074646 C438.4260337 89.89640607 437.53378626 108.41016757 437.1051178 128.76443481 C437.03937982 132.45697695 437.02295452 136.14902971 437.00812244 139.84207535 C436.98774601 144.30179992 436.93902676 148.76108719 436.88813782 153.22055054 C436.87740203 154.46340191 436.87740203 154.46340191 436.86644936 155.73136139 C436.64937319 175.77374125 431.92705107 191.70214789 418.12641907 206.70492554 C415.24360657 209.26742554 415.24360657 209.26742554 412.81772041 210.53044224 C408.60670799 212.85078063 405.74964582 214.5950387 404.31647873 219.33144951 C403.97092212 223.24402183 403.939355 227.09446805 404.01655579 231.01522827 C404.00950726 232.51380492 403.99806402 234.01236635 403.98257446 235.51087952 C403.95305421 239.56497263 403.9847842 243.61651915 404.02773809 247.67040515 C404.06219139 251.91189771 404.04001346 256.15309043 404.02391052 260.39463806 C404.00201217 268.42005051 404.0308487 276.44444206 404.07803357 284.46971327 C404.12928818 293.60882582 404.12380237 302.74763087 404.11361289 311.88684928 C404.0939272 330.68072729 404.1452934 349.47381295 404.24360657 368.26742554 C405.50672668 368.25300415 406.7698468 368.23858276 408.07124329 368.22372437 C414.71954486 368.14781889 420.04677762 370.78879067 425.49360657 374.45492554 C432.84159941 381.96991821 436.55824377 389.49184104 436.54438782 400.08773804 C436.55081551 401.19760574 436.55081551 401.19760574 436.55737305 402.32989502 C436.56309272 403.89141828 436.5636341 405.45296818 436.5592804 407.01449585 C436.55614329 409.36491291 436.57952781 411.7140408 436.60493469 414.06430054 C436.6887258 433.15944748 431.30674326 449.02961387 417.80220032 462.90414429 C402.85658535 476.70887262 386.58086827 480.57868449 366.82873535 480.52812195 C365.15484949 480.53114502 363.480965 480.53503529 361.80708295 480.53971452 C357.22152157 480.5499832 352.63603848 480.54781556 348.05047071 480.54353392 C343.09942432 480.54106464 338.14839668 480.5500834 333.19735718 480.55757141 C323.50299532 480.57031498 313.80866117 480.57211251 304.11429235 480.56977115 C296.23321805 480.56798738 288.35215216 480.56973889 280.47107887 480.57399559 C279.34896629 480.57459078 278.22685371 480.57518597 277.07073772 480.57579919 C274.7910783 480.57701096 272.51141888 480.57822509 270.23175947 480.57944157 C248.85700669 480.59031588 227.48226969 480.58815518 206.10751603 480.58205672 C186.56139908 480.57688815 167.01533198 480.58814165 147.46922489 480.60715494 C127.39081697 480.62653603 107.31243262 480.63478883 87.23401529 480.63103169 C75.96493503 480.62912 64.69589719 480.6316041 53.42682457 480.64574623 C43.83288355 480.65766446 34.23901106 480.65905996 24.64506909 480.64695606 C19.75245658 480.64107041 14.8599694 480.63995933 9.96736526 480.65195847 C5.48344154 480.66282729 0.99974763 480.659702 -3.48416539 480.64569678 C-5.10119194 480.6430526 -6.71823655 480.64540757 -8.33524535 480.65343264 C-27.92527077 480.74386287 -44.1332562 475.70561245 -58.39311218 461.82601929 C-69.04051098 450.29867017 -76.0431061 435.77192659 -76.09233093 419.96273804 C-76.09898773 419.19871674 -76.10564453 418.43469543 -76.11250305 417.64752197 C-76.12255815 416.04249452 -76.12732231 414.43742586 -76.1269989 412.83236694 C-76.13137068 410.40505696 -76.1677596 407.97957112 -76.20561218 405.55258179 C-76.28598484 394.527448 -75.33252949 385.22836414 -67.45951843 376.79867554 C-60.27104548 370.33564481 -53.25024489 368.16042516 -43.75639343 368.26742554 C-43.62994162 348.58713964 -43.56646582 328.90760648 -43.57761097 309.22690582 C-43.58132368 300.08834937 -43.56456191 290.95069316 -43.49931335 281.81234741 C-43.44248285 273.84566776 -43.42436026 265.87999229 -43.45238703 257.91314268 C-43.4658806 253.6956855 -43.46021743 249.48024613 -43.40816689 245.26304626 C-43.35973427 241.28935868 -43.36324862 237.31902875 -43.4058075 233.3453064 C-43.41237559 231.89087445 -43.4003124 230.43621436 -43.3677578 228.98213196 C-43.10120901 220.6468101 -43.10120901 220.6468101 -47.13002586 213.73457336 C-49.98038175 211.59865332 -49.98038175 211.59865332 -52.93950939 209.94051361 C-60.37166125 205.52618755 -65.0695135 198.26240191 -69.13139343 190.82992554 C-69.45325623 190.24589966 -69.77511902 189.66187378 -70.10673523 189.06015015 C-75.78572736 178.05513154 -76.35985824 166.65176701 -76.57670593 154.52133179 C-76.60066248 153.24685842 -76.60066248 153.24685842 -76.625103 151.94663811 C-76.70497992 147.42482581 -76.76313006 142.90324937 -76.8066864 138.38095093 C-76.84616715 134.72264248 -76.92866337 131.06957521 -77.05278015 127.41317749 C-77.88501882 102.30300593 -74.84981461 82.89176532 -63.64782906 60.28141689 C-60.01900154 52.92890289 -57.1390527 45.31069873 -54.25639343 37.64242554 C-48.44455041 22.33600241 -41.45935515 10.74203328 -26.44389343 3.31039429 C-17.68792967 -0.08763235 -9.25740012 -0.02030706 0 0 Z M-18.45610046 37.66098022 C-21.03920856 40.85227788 -22.30699062 44.56813673 -23.69389343 48.39242554 C-24.02453796 49.26173706 -24.3551825 50.13104858 -24.69584656 51.02670288 C-25.73310725 53.76754077 -26.74484126 56.51701082 -27.75639343 59.26742554 C-28.44374398 61.09089002 -29.13252231 62.913817 -29.82279968 64.73617554 C-33.1856253 72.33528315 -33.1856253 72.33528315 -34.75639343 80.26742554 C107.14360657 80.26742554 249.04360657 80.26742554 395.24360657 80.26742554 C392.78370345 72.06774848 390.12547059 64.07512235 387.16499329 56.06088257 C386.63101253 54.6069227 386.10373367 53.15048512 385.58296204 51.69174194 C384.820713 49.55753999 384.03845199 47.43165608 383.25141907 45.30648804 C383.02415131 44.65854279 382.79688354 44.01059753 382.56272888 43.34301758 C380.92252445 39.0101137 379.22139247 36.65105796 375.24360657 34.26742554 C367.66404039 31.71404866 360.09759988 31.98763786 352.17488098 32.01345825 C350.63512605 32.01115209 349.09537221 32.00797452 347.55562067 32.00400376 C343.33632325 31.99566854 339.11711651 31.99977526 334.8978188 32.0059762 C330.34288375 32.01050488 325.78796419 32.00351486 321.23303223 31.99801636 C312.3145817 31.98912517 303.39616484 31.99104315 294.47771299 31.99684164 C287.2292086 32.0013592 279.98071364 32.00197062 272.73220825 31.99979401 C271.70039221 31.99948754 270.66857617 31.99918107 269.60549298 31.99886532 C267.5093501 31.99822587 265.41320722 31.99757744 263.31706434 31.99692014 C243.66354177 31.99121765 224.01003785 31.99777347 204.35651833 32.00852087 C187.49449022 32.01745631 170.63248965 32.01590424 153.77046204 32.00668335 C134.18705145 31.99597929 114.60365722 31.99176696 95.02024412 31.99790788 C92.93183104 31.99854497 90.84341796 31.99917371 88.75500488 31.99979401 C87.72747735 32.00010256 86.69994982 32.00041111 85.64128509 32.00072901 C78.40185412 32.00245554 71.16243352 31.99954174 63.92300415 31.9948349 C55.10004951 31.98922457 46.27713045 31.99074573 37.45417988 32.00139639 C32.95297101 32.00665103 28.45182145 32.00871334 23.95061302 32.00209808 C19.82896346 31.99613228 15.70742813 31.99942419 11.58578891 32.01005319 C10.09599091 32.01228453 8.60618323 32.01115689 7.11639148 32.00630161 C-6.61807976 31.5714564 -6.61807976 31.5714564 -18.45610046 37.66098022 Z M35.24360657 203.26742554 C34.38122375 204.36377319 34.38122375 204.36377319 33.50141907 205.48226929 C27.32617936 213.09982277 17.50214519 218.37914659 8.24360657 221.26742554 C7.59263 221.47883179 6.94165344 221.69023804 6.27095032 221.90805054 C0.22940449 223.64483989 -5.294375 223.728924 -11.75639343 224.26742554 C-11.75639343 271.78742554 -11.75639343 319.30742554 -11.75639343 368.26742554 C114.96360657 368.26742554 241.68360657 368.26742554 372.24360657 368.26742554 C372.24360657 320.74742554 372.24360657 273.22742554 372.24360657 224.26742554 C364.81860657 223.27742554 364.81860657 223.27742554 357.24360657 222.26742554 C344.69272919 218.55673136 334.07648769 213.0817379 325.24360657 203.26742554 C322.13601319 204.30329 321.02520533 205.46161493 318.80220032 207.74398804 C306.21927501 220.04308796 291.27250794 223.74174094 274.17353821 223.6968689 C257.7712618 223.36557539 243.15163266 217.32276902 231.36860657 205.70492554 C230.66735657 204.90055054 229.96610657 204.09617554 229.24360657 203.26742554 C226.13601319 204.30329 225.02520533 205.46161493 222.80220032 207.74398804 C210.21927501 220.04308796 195.27250794 223.74174094 178.17353821 223.6968689 C161.7712618 223.36557539 147.15163266 217.32276902 135.36860657 205.70492554 C134.66735657 204.90055054 133.96610657 204.09617554 133.24360657 203.26742554 C130.13601319 204.30329 129.02520533 205.46161493 126.80220032 207.74398804 C114.21927501 220.04308796 99.27250794 223.74174094 82.17353821 223.6968689 C65.9305851 223.36879341 51.01520259 217.4491611 39.49360657 205.70492554 C38.75110657 204.90055054 38.00860657 204.09617554 37.24360657 203.26742554 C36.58360657 203.26742554 35.92360657 203.26742554 35.24360657 203.26742554 Z " fill="#000000" transform="translate(75.75639343261719,15.732574462890625)"/>
<path d="M0 0 C3.24570428 1.08190143 6.49105336 2.16488298 9.734375 3.25390625 C11.07268185 3.69082408 12.41122744 4.12701124 13.75 4.5625 C14.72839844 4.89411133 14.72839844 4.89411133 15.7265625 5.23242188 C21.37399741 7.05080802 25.79374043 7.37937404 32 8 C32 55.52 32 103.04 32 152 C158.72 152 285.44 152 416 152 C416 104.48 416 56.96 416 8 C421.61 7.01 427.22 6.02 433 5 C438.31678607 3.08966041 438.31678607 3.08966041 443.55859375 0.98828125 C446 0 446 0 448 0 C448 50.16 448 100.32 448 152 C450.64 152 453.28 152 456 152 C465.45544002 154.39734244 471.39141716 159.6392532 476.703125 167.62109375 C479.59344039 172.92290722 480.30858044 177.85612853 480.30078125 183.8203125 C480.30720894 184.93018021 480.30720894 184.93018021 480.31376648 186.06246948 C480.31948616 187.62399275 480.32002753 189.18554264 480.31567383 190.74707031 C480.31253672 193.09748738 480.33592124 195.44661526 480.36132812 197.796875 C480.44511923 216.89202194 475.06313669 232.76218833 461.55859375 246.63671875 C446.61297878 260.44144708 430.33726171 264.31125895 410.58512878 264.26069641 C408.91124292 264.26371949 407.23735844 264.26760975 405.56347638 264.27228898 C400.977915 264.28255767 396.39243191 264.28039002 391.80686414 264.27610838 C386.85581775 264.2736391 381.90479011 264.28265786 376.95375061 264.29014587 C367.25938875 264.30288945 357.5650546 264.30468697 347.87068578 264.30234561 C339.98961148 264.30056185 332.10854559 264.30231335 324.22747231 264.30657005 C323.10535973 264.30716524 321.98324715 264.30776043 320.82713116 264.30837366 C318.54747174 264.30958542 316.26781232 264.31079956 313.9881529 264.31201603 C292.61340012 264.32289034 271.23866313 264.32072964 249.86390946 264.31463119 C230.31779251 264.30946261 210.77172541 264.32071611 191.22561833 264.33972941 C171.1472104 264.35911049 151.06882606 264.3673633 130.99040872 264.36360615 C119.72132846 264.36169446 108.45229062 264.36417856 97.183218 264.37832069 C87.58927698 264.39023892 77.99540449 264.39163442 68.40146252 264.37953053 C63.50885001 264.37364487 58.61636283 264.37253379 53.7237587 264.38453293 C49.23983497 264.39540175 44.75614106 264.39227646 40.27222804 264.37827124 C38.65520149 264.37562707 37.03815688 264.37798203 35.42114808 264.38600711 C15.83112267 264.47643733 -0.37686277 259.43818691 -14.63671875 245.55859375 C-25.28411755 234.03124464 -32.28671267 219.50450106 -32.3359375 203.6953125 C-32.3425943 202.9312912 -32.3492511 202.1672699 -32.35610962 201.38009644 C-32.36616472 199.77506898 -32.37092887 198.17000032 -32.37060547 196.56494141 C-32.37497725 194.13763143 -32.41136617 191.71214558 -32.44921875 189.28515625 C-32.52959141 178.26002246 -31.57613606 168.96093861 -23.703125 160.53125 C-16.41287513 153.97671342 -9.8214775 152 0 152 C0 101.84 0 51.68 0 0 Z " fill="#7E7E7E" transform="translate(32,232)"/>
</svg>
