<?xml version="1.0" encoding="UTF-8"?>
<svg version="1.1" xmlns="http://www.w3.org/2000/svg" width="512" height="512">
<path d="M0 0 C0.81176193 -0.00979385 1.62352386 -0.01958771 2.45988464 -0.02967834 C20.42209711 -0.20170332 37.75572087 -0.02748286 55.3125 4.23828125 C56.18745117 4.44195313 57.06240234 4.645625 57.96386719 4.85546875 C101.27108341 15.18416809 139.81787087 41.70916841 166.3125 77.23828125 C166.93769531 78.0684375 167.56289063 78.89859375 168.20703125 79.75390625 C178.44026406 93.8455711 185.97688889 109.06414951 192.3125 125.23828125 C192.57401855 125.90005371 192.83553711 126.56182617 193.10498047 127.24365234 C199.56829273 143.95138183 203.41024583 162.92933981 203.515625 180.84765625 C203.52268463 181.64802307 203.52974426 182.44838989 203.53701782 183.27301025 C203.76330139 216.46153425 203.76330139 216.46153425 200.3125 231.23828125 C200.01448486 232.56424316 200.01448486 232.56424316 199.71044922 233.91699219 C187.85663901 285.64755269 160.3986589 331.95782244 126.765625 372.48095703 C124.67634079 375.00761492 122.62278732 377.56296032 120.5625 380.11328125 C116.97845119 384.49159729 113.24849748 388.71302012 109.4375 392.89453125 C107.48755276 395.04520836 105.58223871 397.22653096 103.6875 399.42578125 C100.93598308 402.58939172 98.03275183 405.53957912 95.04296875 408.4765625 C93.31798519 410.23269701 91.72067536 412.0519252 90.125 413.92578125 C83.38420104 421.72931879 75.95295115 428.98156718 68.10546875 435.6640625 C66.25820371 437.28595315 64.53493286 438.9848833 62.8125 440.73828125 C59.14969951 444.45024685 55.27185108 447.84728863 51.3125 451.23828125 C50.23417305 452.16903691 49.15606534 453.10004662 48.078125 454.03125 C40.91281742 460.21080662 33.71786475 466.34666018 26.3125 472.23828125 C25.3740625 473.00785156 24.435625 473.77742188 23.46875 474.5703125 C22.5303125 475.30636719 21.591875 476.04242188 20.625 476.80078125 C19.79613281 477.46207031 18.96726562 478.12335938 18.11328125 478.8046875 C14.45814995 480.67558455 11.29229957 481.02681051 7.3125 480.23828125 C4.86557894 478.82443905 3.08939095 477.61090533 1 475.80078125 C0.44368896 475.34558105 -0.11262207 474.89038086 -0.68579102 474.42138672 C-1.82431832 473.48686922 -2.95617057 472.54415767 -4.08105469 471.59326172 C-6.39523756 469.64132936 -8.76545371 467.75996669 -11.125 465.86328125 C-12.98383869 464.32725102 -14.8377317 462.78522254 -16.6875 461.23828125 C-17.21424316 460.79790527 -17.74098633 460.3575293 -18.28369141 459.90380859 C-27.08036864 452.52404581 -35.52156076 444.81582034 -43.87353516 436.93896484 C-46.16662035 434.78908174 -48.48420947 432.66692518 -50.80395508 430.54589844 C-59.30109277 422.76881411 -67.59081461 414.83725556 -75.078125 406.06640625 C-76.71336434 404.20890137 -78.42231793 402.47222116 -80.1875 400.73828125 C-83.89963453 397.07542284 -87.3013765 393.20203758 -90.6875 389.23828125 C-91.48929687 388.31402344 -92.29109375 387.38976562 -93.1171875 386.4375 C-100.10941985 378.3287848 -106.64371054 369.91096579 -113.08203125 361.35839844 C-114.60239439 359.35066828 -116.14128056 357.35894447 -117.6875 355.37109375 C-129.39879441 340.21130106 -139.57741448 323.92473893 -148.68603516 307.08105469 C-149.68560577 305.24176679 -150.70609474 303.41541234 -151.73046875 301.58984375 C-168.11932843 272.08358229 -180.5758808 236.75756753 -180.92578125 202.76953125 C-180.93552979 201.97987473 -180.94527832 201.1902182 -180.95532227 200.37663269 C-181.12926179 182.62838699 -180.7967127 165.60390322 -176.6875 148.23828125 C-176.51621582 147.46436035 -176.34493164 146.69043945 -176.16845703 145.89306641 C-166.42806992 102.5806246 -138.98150965 63.55759016 -103.6875 37.23828125 C-102.85734375 36.61308594 -102.0271875 35.98789062 -101.171875 35.34375 C-87.08021015 25.11051719 -71.86163174 17.57389236 -55.6875 11.23828125 C-55.02572754 10.9767627 -54.36395508 10.71524414 -53.68212891 10.44580078 C-36.9320364 3.96610057 -17.95798621 0.17965746 0 0 Z M-79.6875 81.23828125 C-80.52667969 81.96917969 -81.36585938 82.70007813 -82.23046875 83.453125 C-84.7487936 85.68189964 -87.22581652 87.9472095 -89.6875 90.23828125 C-90.36554688 90.8621875 -91.04359375 91.48609375 -91.7421875 92.12890625 C-114.48324339 113.86533718 -130.31355341 147.30642091 -131.86450195 178.83666992 C-132.33980647 204.30179207 -132.33980647 204.30179207 -127.6875 229.23828125 C-127.47319336 229.99947266 -127.25888672 230.76066406 -127.03808594 231.54492188 C-116.5637117 267.98415684 -91.70723639 299.30899926 -58.76171875 318.07421875 C-24.15433485 336.93554007 15.2019302 340.60748389 52.97021484 329.94140625 C89.84841205 318.8710281 120.17710484 292.66935705 138.33496094 259.06933594 C143.11949317 250.10730003 146.79876193 241.36703609 149.625 231.61328125 C149.98875732 230.36212524 149.98875732 230.36212524 150.35986328 229.08569336 C153.69690762 216.95559614 154.69272131 205.03973098 154.625 192.48828125 C154.62317719 191.78484589 154.62135437 191.08141052 154.61947632 190.35665894 C154.57301679 179.6956348 154.01727003 169.60113509 151.3125 159.23828125 C151.14089355 158.5534668 150.96928711 157.86865234 150.79248047 157.16308594 C144.7219092 133.26055062 133.18630044 112.22612387 116.3125 94.23828125 C115.85375488 93.74247559 115.39500977 93.24666992 114.92236328 92.73583984 C88.59410285 64.49245208 52.45229118 50.22537411 14.3125 48.23828125 C-19.12929363 47.2803132 -54.51869216 59.02539557 -79.6875 81.23828125 Z " fill="#000000" transform="translate(244.6875,15.76171875)"/>
<path d="M0 0 C2.11397211 1.00054954 4.22038777 2.0171694 6.3203125 3.046875 C8.66258827 4.16182005 11.00504091 5.27639359 13.34765625 6.390625 C15.12825439 7.24720703 15.12825439 7.24720703 16.94482422 8.12109375 C22.23193083 10.65217896 27.55663642 13.09937327 32.8828125 15.546875 C33.9255835 16.02842041 34.96835449 16.50996582 36.04272461 17.00610352 C43.17985447 20.30167655 50.32783143 23.57291553 57.48025513 26.83512878 C64.83862439 30.19129071 72.19271752 33.55672638 79.5447998 36.92663574 C81.30289709 37.7316634 83.06204734 38.53439043 84.82128906 39.33691406 C87.55422524 40.58577447 90.28200611 41.84504869 93.0078125 43.109375 C93.76247803 43.45186279 94.51714355 43.79435059 95.29467773 44.1472168 C98.6917203 45.73806086 100.31618444 46.60318291 102.4453125 49.796875 C102.98167614 55.42869318 102.98167614 55.42869318 102.4453125 57.796875 C99.38017222 61.46426379 95.80425414 63.32272427 91.53125 65.265625 C90.85356064 65.58220062 90.17587128 65.89877625 89.47764587 66.22494507 C87.26232196 67.25730795 85.04147362 68.27713975 82.8203125 69.296875 C81.26421845 70.01894322 79.70847643 70.74177053 78.15307617 71.46533203 C74.28542352 73.26210073 70.41328431 75.04893694 66.53936768 76.83215332 C63.61904999 78.17753037 60.70209244 79.53012242 57.78515625 80.8828125 C53.72935303 82.761324 49.67056743 84.63316917 45.609375 86.5 C39.85019877 89.14770327 34.09645833 91.80702606 28.34375 94.46875 C25.66267323 95.70861391 22.98153913 96.94835374 20.30038452 98.18804932 C18.53378024 99.00515256 16.76735919 99.82265209 15.00112915 100.64056396 C12.51822651 101.79020813 10.03458345 102.93823842 7.55078125 104.0859375 C6.80609589 104.43122498 6.06141052 104.77651245 5.29415894 105.13226318 C3.9309999 105.76146196 2.56523747 106.3850654 1.19638062 107.00177002 C-0.23484049 107.65164253 -1.65059334 108.33548812 -3.0612793 109.02880859 C-10.02891225 111.17510971 -15.23535208 109.5551932 -21.49609375 106.4921875 C-22.61837875 105.9663784 -22.61837875 105.9663784 -23.76333618 105.4299469 C-26.22148163 104.27453627 -28.6689997 103.09821767 -31.1171875 101.921875 C-32.84925558 101.10361245 -34.58209903 100.28698937 -36.31567383 99.47192383 C-39.92407701 97.77387 -43.52902701 96.06877579 -47.13183594 94.35888672 C-54.8221297 90.71639668 -62.55510435 87.16707112 -70.2869873 83.61398315 C-73.53219145 82.12090366 -76.7743049 80.62117998 -80.01647949 79.12153625 C-86.02939404 76.34042029 -92.04575243 73.5678135 -98.07749939 70.82774353 C-100.72850192 69.62268577 -103.37671668 68.41158176 -106.02456665 67.19961548 C-107.81659447 66.38244557 -109.61271389 65.57426714 -111.40893555 64.76635742 C-112.4637915 64.28271729 -113.51864746 63.79907715 -114.60546875 63.30078125 C-115.97699097 62.67925171 -115.97699097 62.67925171 -117.3762207 62.04516602 C-119.5546875 60.796875 -119.5546875 60.796875 -121.5546875 57.796875 C-122.09105114 52.16505682 -122.09105114 52.16505682 -121.5546875 49.796875 C-118.48817829 46.15031581 -115.17578468 44.42423226 -110.88671875 42.43359375 C-109.8984182 41.97083038 -109.8984182 41.97083038 -108.89015198 41.49871826 C-106.71972556 40.48531686 -104.54364225 39.48475569 -102.3671875 38.484375 C-100.83450828 37.77218932 -99.30212341 37.05936984 -97.77001953 36.34594727 C-86.17304379 30.95756545 -74.52979563 25.6691659 -62.87719727 20.40234375 C-51.43112007 15.2242766 -40.0522235 9.90810908 -28.69287109 4.54272461 C-28.04843048 4.23888855 -27.40398987 3.93505249 -26.74002075 3.62200928 C-25.00476634 2.80361087 -23.27041499 1.98329846 -21.53613281 1.1628418 C-13.5242261 -2.50786063 -8.22917637 -3.59141795 0 0 Z " fill="#000000" transform="translate(265.5546875,122.203125)"/>
<path d="M0 0 C6.51740251 2.54132033 12.90862856 5.26209954 19.2421875 8.23046875 C20.0906424 8.62518875 20.93909729 9.01990875 21.81326294 9.42658997 C24.50169009 10.67770931 27.18845733 11.93233989 29.875 13.1875 C40.60455337 18.19324019 51.34011458 23.18229398 62.1328125 28.05078125 C62.97987762 28.43372849 63.82694275 28.81667572 64.69967651 29.21122742 C65.48343658 29.56344864 66.26719666 29.91566986 67.07470703 30.27856445 C67.76243195 30.58792435 68.45015686 30.89728424 69.15872192 31.21601868 C75.84528396 34.06303012 82.63990294 34.22080466 89.48413086 31.73413086 C90.7327043 31.17626587 91.97607666 30.60665808 93.21484375 30.02734375 C93.89990997 29.7172789 94.5849762 29.40721405 95.290802 29.0877533 C97.53238176 28.06943779 99.76628436 27.03543902 102 26 C103.55304449 25.28800781 105.10635235 24.57658984 106.65991211 23.86572266 C111.57169622 21.61249299 116.47391769 19.33889346 121.375 17.0625 C131.2798079 12.46356098 141.19096371 7.88300047 151.1640625 3.43359375 C151.93841644 3.08700211 152.71277039 2.74041046 153.5105896 2.38331604 C158.87900086 0 158.87900086 0 160 0 C160.17820101 6.54662146 160.30036907 13.09261277 160.38452148 19.64111328 C160.41961833 21.86628592 160.46730943 24.09129835 160.52807617 26.31591797 C160.61346857 29.52351475 160.6527967 32.72896985 160.68359375 35.9375 C160.71972275 36.92427734 160.75585175 37.91105469 160.79307556 38.92773438 C160.79611523 44.33406641 160.20685924 47.38698712 156.6081543 51.53710938 C155.42798458 52.71445025 154.22728201 53.87185507 153 55 C152.20335937 55.8146875 151.40671875 56.629375 150.5859375 57.46875 C127.1117284 79.03516119 99.54271989 84.33971215 68.69564819 83.30923462 C43.83823829 82.24565674 21.14149035 69.51297776 4 52 C3.29601074 51.34394775 2.59202148 50.68789551 1.86669922 50.01196289 C-0.92283943 45.51097698 -0.49754676 41.42120737 -0.390625 36.23046875 C-0.38496521 35.19432938 -0.37930542 34.15819 -0.37347412 33.09065247 C-0.35112666 29.78912692 -0.30093178 26.48869619 -0.25 23.1875 C-0.22993296 20.94597924 -0.21168255 18.70444143 -0.1953125 16.46289062 C-0.15126733 10.9748884 -0.08437118 5.48752243 0 0 Z " fill="#000000" transform="translate(176,213)"/>
<path d="M0 0 C0.09894543 5.33848672 0.17150414 10.67643869 0.21972656 16.015625 C0.23983061 17.8314748 0.26711835 19.64725995 0.30175781 21.46289062 C0.35033039 24.07438105 0.37298027 26.68501498 0.390625 29.296875 C0.41127014 30.10743347 0.43191528 30.91799194 0.45318604 31.75311279 C0.45464454 35.42435436 0.35041054 37.53680951 -1.89941406 40.51074219 C-4.17018705 42.12065795 -5.24736782 42.54300988 -8 42.5 C-8.99 42.51546875 -8.99 42.51546875 -10 42.53125 C-12.98095161 41.73943473 -14.10016616 40.41557279 -16 38 C-16.45410156 34.70019531 -16.45410156 34.70019531 -16.390625 30.828125 C-16.38496521 30.1457074 -16.37930542 29.46328979 -16.37347412 28.76019287 C-16.35115636 26.58940238 -16.30097508 24.42028794 -16.25 22.25 C-16.22992876 20.7747635 -16.21167907 19.29950101 -16.1953125 17.82421875 C-16.1513088 14.21560499 -16.08231583 10.60796619 -16 7 C-13.52189684 5.83102715 -11.04259881 4.66472456 -8.5625 3.5 C-7.50192383 2.99919922 -7.50192383 2.99919922 -6.41992188 2.48828125 C-1.11328125 0 -1.11328125 0 0 0 Z " fill="#000000" transform="translate(368,198)"/>
</svg>
