<?xml version="1.0" encoding="UTF-8"?>
<svg version="1.1" xmlns="http://www.w3.org/2000/svg" width="1024" height="1024">
<path d="M0 0 C337.92 0 675.84 0 1024 0 C1024 337.92 1024 675.84 1024 1024 C686.08 1024 348.16 1024 0 1024 C0 686.08 0 348.16 0 0 Z " fill="#FEFEFE" transform="translate(0,0)"/>
<path d="M0 0 C0.89589844 0.78375 1.79179688 1.5675 2.71484375 2.375 C14.40532089 12.75052362 14.40532089 12.75052362 19 18 C19 18.66 19 19.32 19 20 C19.66 20 20.32 20 21 20 C23.76141875 22.96971542 26.21750309 26.1926467 28.72363281 29.37939453 C29.94966819 30.93609362 31.18940316 32.48197339 32.4296875 34.02734375 C53.93601906 61.2709874 69.65458979 92.60031656 79 126 C79.33773438 127.20398438 79.67546875 128.40796875 80.0234375 129.6484375 C85.57020954 150.19694273 87.18713822 171.02406744 87.18530273 192.2331543 C87.18747674 195.03254706 87.20565678 197.83153657 87.22460938 200.63085938 C87.27483291 216.32506555 86.35215286 231.8519284 82.8125 247.1875 C82.48995239 248.61267944 82.48995239 248.61267944 82.16088867 250.06665039 C72.70459569 290.78374682 55.70182166 327.72716086 29 360 C28.28094482 360.87350098 28.28094482 360.87350098 27.54736328 361.76464844 C18.14981981 373.1234992 8.2549554 383.70337691 -3.32421875 392.875 C-5.0407509 394.23820217 -6.73369869 395.63196233 -8.39453125 397.0625 C-34.35780036 419.30504866 -66.37460278 435.29694871 -99 445 C-99.78938965 445.23557617 -100.5787793 445.47115234 -101.39208984 445.71386719 C-110.78176437 448.46273411 -120.24366986 450.53847917 -129.875 452.25 C-130.78942871 452.41330811 -131.70385742 452.57661621 -132.64599609 452.74487305 C-196.32196486 463.46798388 -263.93435474 447.17485664 -317 411 C-317.96752197 410.34668701 -317.96752197 410.34668701 -318.95458984 409.68017578 C-332.28826389 400.62274925 -344.26907462 390.02048529 -356 379 C-356.98419922 378.07960938 -356.98419922 378.07960938 -357.98828125 377.140625 C-363.14040553 372.16616018 -367.51795584 366.57247437 -372 361 C-373.54142611 359.14563335 -375.08308946 357.29146387 -376.625 355.4375 C-420.80458124 301.14452064 -436.77909592 230.41294304 -430.34375 161.69140625 C-423.67256737 105.3373678 -396.68217738 51.43255418 -356 12 C-353.67632139 9.69763954 -351.36796586 7.39579521 -349.140625 5 C-341.89951381 -2.66001844 -333.47408931 -8.78874106 -325 -15 C-324.12504883 -15.64267822 -324.12504883 -15.64267822 -323.23242188 -16.29833984 C-248.22773424 -70.9272053 -145.72412626 -81.03272942 0 0 Z " fill="#FE9FA1" transform="translate(684,317)"/>
<path d="M0 0 C10.25832952 7.45862721 19.08175104 16.42594659 25.75 27.25 C26.41773438 28.30832031 27.08546875 29.36664063 27.7734375 30.45703125 C41.68433434 53.1506964 45.14311603 80.43403098 39.25048828 106.22265625 C34.90353633 123.83099233 26.83535596 138.00919857 15.45458984 151.82226562 C10.41852343 157.96110635 5.99466443 164.09863226 2.375 171.1875 C2.06546387 171.78280518 1.75592773 172.37811035 1.43701172 172.99145508 C-5.26222103 186.78152879 -5.79888407 199.80123023 -5.75 214.8125 C-5.64691038 246.52883588 -5.64691038 246.52883588 -16.25 257.25 C-25.08778205 265.49407308 -34.13526324 268.88898419 -46.15625 268.74609375 C-47.1615979 268.74754898 -48.1669458 268.74900421 -49.20275879 268.75050354 C-51.31375039 268.74885452 -53.42475529 268.73740621 -55.53564453 268.71655273 C-58.74173777 268.68757468 -61.94617531 268.69597113 -65.15234375 268.70898438 C-67.21615376 268.702746 -69.27995861 268.69435429 -71.34375 268.68359375 C-72.76137634 268.68799721 -72.76137634 268.68799721 -74.2076416 268.69248962 C-85.64210527 268.53274754 -94.02012462 265.4034352 -102.16015625 257.36328125 C-107.70766891 251.36819856 -112.37087293 244.33842387 -112.37597656 235.94067383 C-112.37978333 235.0715889 -112.38359009 234.20250397 -112.38751221 233.30708313 C-112.38853943 232.36656601 -112.38956665 231.42604889 -112.390625 230.45703125 C-112.40898121 228.44334832 -112.42855404 226.42967619 -112.44921875 224.41601562 C-112.47793868 221.25901414 -112.4999937 218.10269634 -112.50048828 214.94555664 C-112.51511219 201.74956475 -113.39100433 190.59998666 -118.25 178.25 C-118.60247803 177.25983887 -118.95495605 176.26967773 -119.31811523 175.24951172 C-122.23388002 167.0761997 -127.05852638 160.62586372 -132.5625 154 C-146.96235705 136.55587787 -154.91878523 119.44810305 -159.25 97.25 C-159.45238281 96.21746094 -159.65476562 95.18492187 -159.86328125 94.12109375 C-163.25187392 68.96336029 -155.73812218 42.85361741 -140.93164062 22.43164062 C-125.1266126 1.88282353 -104.39468501 -10.96790852 -79.25 -16.75 C-78.49211182 -16.9250708 -77.73422363 -17.1001416 -76.95336914 -17.28051758 C-49.69014325 -22.01520406 -22.50724145 -15.66220762 0 0 Z " fill="#FEFEFE" transform="translate(571.25,381.75)"/>
<path d="M0 0 C25.08 0 50.16 0 76 0 C76 38 76 38 72 48 C71.34 48 70.68 48 70 48 C70 48.66 70 49.32 70 50 C68.75264433 50.6509259 67.50198168 51.29551669 66.25 51.9375 C65.20585938 52.47697266 65.20585938 52.47697266 64.140625 53.02734375 C60.73254845 54.57590408 57.63850939 55.12451251 53.90917969 55.16113281 C52.71708893 55.17554413 52.71708893 55.17554413 51.50091553 55.19024658 C50.64983215 55.19449646 49.79874878 55.19874634 48.921875 55.203125 C48.03647034 55.20882507 47.15106567 55.21452515 46.23883057 55.22039795 C44.36610097 55.22983391 42.49335487 55.23637635 40.62060547 55.24023438 C37.77411435 55.24991796 34.92835237 55.28094543 32.08203125 55.3125 C30.25781676 55.31903294 28.43359714 55.32428227 26.609375 55.328125 C25.76638855 55.3404718 24.9234021 55.3528186 24.05487061 55.36553955 C16.957884 55.33915802 11.69385239 53.77895913 5.6875 49.8125 C0.08103304 43.94526713 -0.44101476 37.41542421 -0.29296875 29.6875 C-0.28994751 28.92888672 -0.28692627 28.17027344 -0.28381348 27.38867188 C-0.26828122 24.59230676 -0.22639899 21.79613769 -0.1875 19 C-0.125625 12.73 -0.06375 6.46 0 0 Z " fill="#FE9BA2" transform="translate(474,581)"/>
<path d="M0 0 C0 0.99 0 1.98 0 3 C-1.86021293 4.60447171 -3.69315438 6.01784416 -5.6875 7.4375 C-20.22516536 18.19693577 -33.62992457 31.27784441 -44.9140625 45.39453125 C-46.32905816 47.16195093 -47.76480454 48.91291809 -49.21875 50.6484375 C-54.11002784 56.37982132 -54.11002784 56.37982132 -58.1875 62.6875 C-59.64785555 65.35642565 -61.08647257 67.49577534 -62.9375 69.875 C-66.11318811 74.03815331 -68.56186171 78.37461365 -71 83 C-71.71156924 84.32197562 -72.42387374 85.64355562 -73.13671875 86.96484375 C-78.2349527 96.45505818 -83.02851821 105.97461152 -87 116 C-87.42796875 117.04929687 -87.8559375 118.09859375 -88.296875 119.1796875 C-91.49564678 127.31419852 -94.09070387 135.48134936 -96.3125 143.9375 C-96.69390137 145.37488525 -96.69390137 145.37488525 -97.08300781 146.84130859 C-98.37491918 151.90085536 -99.34830954 156.82284082 -99.78417969 162.02954102 C-100.00881371 164.08046996 -100.43137399 166.00141127 -100.9375 168 C-102.65156407 175.20422418 -103.20675417 182.64981787 -104 190 C-104.33 190 -104.66 190 -105 190 C-107.00251441 162.02042371 -97.20026967 132.26039468 -86 107 C-85.61972656 106.13922852 -85.23945313 105.27845703 -84.84765625 104.39160156 C-71.86960034 75.36117977 -53.84865587 49.14682002 -31 27 C-28.67632139 24.69763954 -26.36796586 22.39579521 -24.140625 20 C-16.90483075 12.34560608 -8.43585446 6.25098704 0 0 Z " fill="#FEAB7A" transform="translate(359,302)"/>
<path d="M0 0 C0.66 0 1.32 0 2 0 C2.3396019 1.87387477 2.67138691 3.74916697 3 5.625 C3.185625 6.66914062 3.37125 7.71328125 3.5625 8.7890625 C3.98715797 11.90574865 4.07545206 14.85930812 4 18 C4.66 18.33 5.32 18.66 6 19 C6.6328125 21.36328125 6.6328125 21.36328125 7.125 24.3125 C7.29257812 25.27800781 7.46015625 26.24351562 7.6328125 27.23828125 C8 30 8 30 8 34 C8.66 34.33 9.32 34.66 10 35 C10.81640625 37.51171875 10.81640625 37.51171875 11.5625 40.6875 C11.81128906 41.72261719 12.06007813 42.75773438 12.31640625 43.82421875 C13 47 13 47 13.46484375 50.33203125 C13.64144531 51.21246094 13.81804687 52.09289062 14 53 C14.66 53.33 15.32 53.66 16 54 C17.0703125 56.14453125 17.0703125 56.14453125 18.125 58.8125 C18.47820312 59.68519531 18.83140625 60.55789063 19.1953125 61.45703125 C20 64 20 64 20 68 C20.66 68 21.32 68 22 68 C22.69670416 69.78810766 23.38211189 71.58062052 24.0625 73.375 C24.44535156 74.37273437 24.82820313 75.37046875 25.22265625 76.3984375 C26 79 26 79 25 81 C16.03502782 62.30087163 8.69414428 43.42673269 3.75 23.25 C3.49154297 22.20859863 3.23308594 21.16719727 2.96679688 20.09423828 C1.37514874 13.40401062 0.42409989 6.86363263 0 0 Z " fill="#FEAD76" transform="translate(255,548)"/>
<path d="M0 0 C2.81242558 2.6395782 4.84533356 5.12226269 6.69921875 8.5 C7.42322876 9.8156897 7.42322876 9.8156897 8.16186523 11.15795898 C8.66532471 12.09583252 9.16878418 13.03370605 9.6875 14 C10.4765271 15.46191772 10.4765271 15.46191772 11.28149414 16.95336914 C31.09337917 54.12733093 31.09337917 54.12733093 29.6171875 63.40625 C29.41351562 63.9321875 29.20984375 64.458125 29 65 C26.47711518 58.53712059 24.02081311 52.07761833 21.8125 45.5 C16.95287327 31.82274867 10.49142385 18.60974277 2.49609375 6.49609375 C1.14978884 4.24990879 0.43934083 2.5578062 0 0 Z " fill="#FE7BB0" transform="translate(730,372)"/>
<path d="M0 0 C5.05938594 4.5124253 7.67075886 9.35379429 9 16 C9.66 16 10.32 16 11 16 C11.515625 17.11375 12.03125 18.2275 12.5625 19.375 C15.16760862 24.62283613 18.55486764 29.27745901 22 34 C21.67 34.66 21.34 35.32 21 36 C16.44060181 30.20443053 12.54931342 24.16366197 8.8125 17.8125 C8.29236328 16.93658203 7.77222656 16.06066406 7.23632812 15.15820312 C6.24596634 13.48989253 5.2589299 11.81960156 4.27587891 10.14697266 C3.2600174 8.43754172 2.20487472 6.75146994 1.13671875 5.07421875 C0 3 0 3 0 0 Z " fill="#FEAA77" transform="translate(281,629)"/>
<path d="M0 0 C0.66 0.33 1.32 0.66 2 1 C0.43902526 2.1063219 -1.12385327 3.20995785 -2.6875 4.3125 C-3.55761719 4.92738281 -4.42773438 5.54226563 -5.32421875 6.17578125 C-12.40042827 11 -12.40042827 11 -16 11 C-12.94900596 7.67633258 -9.76550484 5.45775774 -5.875 3.1875 C-4.82054687 2.56230469 -3.76609375 1.93710937 -2.6796875 1.29296875 C-1.35324219 0.65294922 -1.35324219 0.65294922 0 0 Z " fill="#FEA287" transform="translate(384,286)"/>
</svg>
